<svg
    xmlns="http://www.w3.org/2000/svg"
    viewBox="0 0 1580 390"
    id="vector"
    width="1580px"
    height="390px">
    <g id="cachos">
        <path
            id="path_1"
            d="M 611 193.673 L 624 199 L 624 237 C 620.8 233.8 614.46 234.667 611.689 235.5 C 613.077 219.974 612.906 205.571 611 193.673 Z M 392 263.463 L 408.571 263.463 C 414.847 291.476 447.15 351.208 501.5 355.5 L 501.5 369 C 438.848 366.413 402.502 299.703 392 263.463 Z"
            fill="#057e2c"
            fill-opacity="0.4572517398168714"
            stroke-width="1"/>
        <path
            id="path_2"
            d="M 584.743 177.86 C 588.064 174.062 589.974 173.128 591.851 169.042 C 584.728 167.872 579.967 168.04 577.604 170.648 C 576.819 172.64 579.508 173.331 584.743 177.86 Z"
            fill="#03aa39"
            fill-opacity="0"
            stroke-width="1"/>
        <path
            id="path_3"
            d="M 331.424 143.275 C 326.122 148.143 324.933 148.721 322.599 147.727 C 316 144.896 312.269 144.448 306.317 145.779 C 296.29 148.036 289.437 155.27 288.119 164.965 C 287.8 167.005 286.658 167.842 283.322 168.545 C 276.375 170.057 271.761 172.677 268.715 176.841 C 264.749 182.263 263.105 193.061 265.797 200.776 C 266.541 202.647 267.286 204.518 268.031 206.389 C 266.77 207.597 265.509 208.805 264.249 210.012 C 261.705 212.433 260.007 215.214 259.102 218.106 C 258.197 220.997 258.085 223.999 258.71 226.858 C 259.335 229.718 260.697 232.436 262.743 234.76 C 264.788 237.084 267.516 239.015 270.872 240.302 C 273.724 241.398 274.998 242.77 275.639 245.423 C 277.25 252.117 279.663 254.839 286.62 257.804 C 291.35 259.824 301.555 259.517 303.855 259.02 C 302.112 256.586 304.194 258.069 307.205 255.775 C 314.143 250.453 316.189 240.467 311.772 233.544 C 311.015 232.362 310.259 231.179 309.503 229.997 C 310.632 229.602 311.761 229.207 312.89 228.812 C 314.746 228.149 317.984 225.891 320.095 223.811 C 321.379 222.558 322.664 221.305 323.949 220.052 C 325.18 220.878 326.41 221.705 327.642 222.532 C 332.079 225.482 339.427 227.119 344.537 226.308 C 346.615 225.991 350.45 224.245 353.068 222.445 C 355.685 220.643 358.184 219.634 358.633 220.219 C 360.987 223.284 369.393 225.576 374.187 225.597 C 378.241 225.618 382.353 221.428 385.415 217.966 C 383.037 215.917 381.824 215.622 382.199 214.733 C 383.297 213.562 385.491 213.507 388.764 214.064 C 390.144 211.119 390.902 208.304 389.719 206.621 C 388.016 204.2 384.887 204.447 384.467 207.237 C 383.595 212.868 372.7 222.726 365.514 218.812 C 361.549 216.659 361.497 216.511 362.291 210.916 C 363.242 204.179 361.942 200.53 356.892 195.8 C 354.139 193.226 351.836 192.245 347.63 191.841 C 341.287 191.222 336.055 193.136 336.074 196.092 C 336.093 197.682 336.999 197.928 341.48 197.501 C 349.864 196.68 357.023 202.329 357.043 209.787 C 357.062 213.543 351.77 218.904 346.524 220.485 C 343.881 221.297 341.469 221.541 338.993 221.172 C 336.518 220.803 333.979 219.82 331.083 218.177 C 327.149 215.939 326.687 215.181 326.66 210.941 C 326.625 205.847 323.462 200.732 319.054 198.635 C 314.645 196.537 309.942 196.401 307.84 198.326 C 305.382 200.573 306.37 202.183 310.228 202.209 C 314.054 202.235 318.862 206.261 320.533 210.848 C 324.032 220.481 310.514 229.795 300.099 224.986 C 296.39 223.285 296.272 223.328 296.292 225.527 C 296.311 226.84 299.222 230.342 303.095 233.715 C 309.304 239.113 309.88 240.028 309.899 244.547 C 309.917 256.539 291.732 261.265 285.01 251.068 C 282.323 246.993 282.467 244.817 285.475 243.996 C 287.061 243.577 287.965 242.388 287.983 240.708 C 288.001 237.821 286.856 237.373 284.641 239.403 C 282.542 241.328 274.603 238.927 270.664 235.207 C 267.669 232.381 266.594 228.483 267.107 222.329 C 267.222 221.136 268.984 218.355 271.035 216.171 C 274.458 212.497 275.005 212.317 277.758 213.618 C 281.828 215.533 291.17 214.417 291.71 212 C 292.046 210.535 291.116 210.248 286.535 210.34 C 281.723 210.436 280.458 209.981 277.438 206.965 C 273.031 202.559 272.274 198.178 274.987 192.804 C 279.141 184.551 288.689 181.589 296.039 186.302 C 299.463 188.508 299.875 188.576 301.772 186.919 C 303.669 185.262 303.566 184.982 300.17 182.579 C 297.097 180.406 296.517 179.223 296.463 174.993 C 296.371 168.352 300.451 163.983 308.436 162.172 C 313.021 161.146 315.167 161.2 319.06 162.382 C 324.416 165.792 322.31 171.111 322.845 176.893 C 323.404 182.938 332.333 184.639 336.628 181.902 C 340.376 179.166 337.715 173.06 334.635 169.605 C 331.863 166.427 333.244 161.391 334.095 155.666 C 334.442 152.979 340.562 147.686 344.68 146.442 C 350.264 144.763 356.341 145.844 360.93 149.33 C 364.066 151.721 364.543 152.859 364.491 157.376 C 364.439 161.166 364.931 162.82 366.276 163.288 C 369.089 164.261 369.139 164.176 369.088 161.133 C 369.036 155.681 374.519 151.166 381.813 150.619 C 387.293 150.202 389.679 150.807 393.218 153.502 C 396.4 155.928 396.889 157.067 396.837 161.504 C 396.786 165.801 396.122 167.198 393.082 169.751 C 390.209 172.161 388.678 172.66 386.089 172.077 C 383.181 171.422 382.794 171.621 383.095 173.827 C 383.876 179.078 397.186 176.265 400.131 170.188 C 401.891 166.506 405.797 165.558 412.829 167.111 C 419.435 168.571 422.758 171.916 423.599 177.945 C 424.173 182.162 423.77 183.283 420.822 186.364 C 418.434 188.848 416.32 189.913 413.821 189.901 C 411.511 189.888 410.215 190.448 410.163 191.475 C 410.112 193.856 414.61 195.581 418.693 194.756 C 421.681 194.145 422.819 194.588 425.825 197.51 C 428.784 200.386 429.378 201.928 429.326 206.285 C 429.274 210.934 423.235 213.733 419.892 215.82 C 417.511 217.328 412.704 217.061 410.75 216.726 C 408.726 216.378 402.442 213.701 391.389 207.103 C 390.518 208.968 389.631 209.393 388.1 211.127 C 394.401 216.585 405.04 224.278 419.737 222.083 C 425.126 219.89 434.931 211.745 434.898 205.615 C 434.867 201.371 432.598 194.702 428.126 191.563 C 425.351 189.63 425.212 189.273 426.862 187.085 C 429.185 184.036 429.135 175.012 426.713 170.89 C 423.013 164.558 411.733 159.138 404.658 160.306 C 400.525 160.98 400.386 160.902 399.55 156.49 C 397.523 145.417 379.742 139.454 369.695 146.487 C 365.386 149.475 364.777 149.388 362.96 145.556 C 361.032 141.485 351.784 137.743 343.601 137.731 C 338.148 137.719 337.233 138.115 331.579 143.311 C 331.527 143.299 331.475 143.287 331.424 143.275"
            fill="#03aa39"
            stroke-width="1"/>
    </g>
    <g id="eis">
        <path
            id="path_4"
            d="M 1034.43 266.73 C 1012.52 273.728 995.193 296.541 995.193 318.39 C 995.193 331.326 1004.56 352.922 1013.21 359.939 C 1027.92 371.865 1062.06 375.243 1080.9 366.634 C 1091.77 361.663 1103.27 350.6 1101.77 346.557 C 1100.6 343.427 1078.36 337.59 1078.36 340.412 C 1078.36 341.614 1074.44 344.742 1069.64 347.362 C 1052.83 356.547 1034.81 351.975 1027.11 336.566 L 1022.27 326.902 L 1066.41 326.244 L 1110.55 325.585 L 1110.55 318.2 C 1110.55 314.138 1108.72 305.161 1106.48 298.25 C 1097.71 271.225 1065.07 256.944 1034.43 266.73 Z M 1199.97 267.857 C 1186.84 273.197 1180.36 281.053 1178.43 293.966 C 1175.83 311.296 1188.82 323.058 1215.18 327.26 C 1241.62 331.477 1250.34 337.669 1243.01 347.037 C 1239.76 351.196 1236.27 352.143 1224.18 352.143 C 1211.19 352.143 1208.49 351.278 1202.58 345.251 C 1196.32 338.852 1195.09 338.53 1185.39 340.737 C 1173.68 343.4 1173.01 344.859 1179.45 353.677 C 1188.16 365.581 1202.42 371.375 1223 371.375 C 1233.27 371.375 1245.06 370.233 1249.21 368.836 C 1259.89 365.247 1269.14 355.59 1271.75 345.311 C 1276.44 326.859 1259.14 311.666 1227.8 306.721 C 1210.41 303.976 1204.45 300.866 1204.45 294.529 C 1204.45 282.363 1226.93 278.312 1238.23 288.44 C 1245.5 294.952 1251.13 295.793 1262.2 292.022 L 1269.33 289.594 L 1263.86 281.805 C 1252.12 265.103 1222.59 258.655 1199.97 267.857 Z M 1131.44 283.021 C 1130.81 284.68 1130.5 295.772 1130.75 307.671 C 1131.01 319.57 1131.39 338.229 1131.62 349.138 L 1132.02 368.971 L 1158.96 368.971 L 1158.24 325.099 L 1157.5 281.228 L 1145.05 280.617 C 1136.95 280.218 1132.2 281.057 1131.44 283.021 Z M 1036.78 289.12 C 1031.51 293.166 1022.02 305.048 1022.02 307.587 C 1022.02 308.294 1035.9 308.873 1052.87 308.873 C 1070.64 308.873 1083.73 307.902 1083.73 306.582 C 1083.73 300.786 1076.63 291.368 1069.92 288.259 C 1059.94 283.632 1043.35 284.062 1036.78 289.12 Z"
            fill="#03aa39"
            fill-opacity="0"
            stroke-width="1"
            fill-rule="evenodd"/>
        <path
            id="path_5"
            d="M 1139.1 -260 C 1134.831 -260 1130.733 -258.476 1127.714 -255.767 C 1124.696 -253.057 1122.998 -249.378 1122.998 -245.546 C 1122.998 -241.714 1124.696 -238.035 1127.714 -235.3"
            fill="#099c41"
            stroke-width="1"/>
    </g>
    <g id="ick">
        <path
            id="path_6"
            d="M 780.569 295.651 L 780.569 368.971 L 810.08 368.971 L 810.08 353.879 C 810.08 339.008 811.744 335.814 822.638 329.78 C 824.326 328.847 830.51 334.027 837.166 341.951 C 843.543 349.54 850.923 357.845 853.566 360.41 C 856.208 362.973 858.371 365.947 858.371 367.021 C 858.371 368.093 866.827 368.971 877.161 368.971 L 895.951 368.971 L 871.795 342.145 C 858.51 327.393 847.639 314.267 847.639 312.979 C 847.639 311.693 849.753 308.887 852.334 306.748 C 863.886 297.171 890.194 268.478 888.673 267.112 C 887.745 266.283 880.957 265.603 873.59 265.603 L 860.192 265.603 L 835.226 289.041 L 810.263 312.479 L 810.171 267.406 L 810.08 222.332 L 780.569 222.332 L 780.569 295.651 Z M 699.777 264.244 C 698.87 265.074 695.321 266.237 691.889 266.831 C 675.68 269.627 656.189 291.673 652.187 311.734 C 649.576 324.813 657.067 346.564 667.406 355.932 C 683.28 370.312 714.484 375.783 735.587 367.882 C 751.92 361.766 769.1 339.225 757.728 338.83 C 756.274 338.78 751.617 337.915 747.38 336.907 C 741.234 335.448 738.903 336.071 735.842 339.987 C 728.051 349.951 711.549 354.155 700.085 349.095 C 685.896 342.831 681.274 335.148 681.4 318.046 C 681.51 303.428 685.276 295.981 695.643 289.887 C 706.025 283.786 725.83 286.651 733.599 295.38 C 739.05 301.505 739.646 301.62 749.704 298.5 C 755.448 296.719 760.51 294.267 760.958 293.053 C 762.839 287.933 750.737 275.509 738.849 270.35 C 726.339 264.925 703.018 261.278 699.777 264.244 Z M 602.801 282.365 C 601.81 283.114 601 302.914 601 326.365 L 601 369 L 628 369 L 628 281 L 616.301 281 C 609.864 281 603.789 281.614 602.801 282.365 Z"
            fill="#03aa39"
            fill-opacity="0"
            stroke-width="1"
            fill-rule="evenodd"/>
        <path
            id="path_7"
            d="M 614 239 C 609.758 239 605.686 240.529 602.686 243.247 C 599.687 245.965 598 249.656 598 253.5 C 598 257.344 599.687 261.035 602.686 263.753 C 605.686 266.471 609.758 268 614 268 C 618.242 268 622.314 266.471 625.314 263.753 C 628.313 261.035 630 257.344 630 253.5 C 630 249.656 628.313 245.965 625.314 243.247 C 622.314 240.529 618.242 239 614 239 Z"
            fill="#099c41"
            fill-opacity="0"
            stroke-width="1"/>
    </g>
    <path
        id="r2"
        d="M 657.015 267.761 C 652.988 270.076 647.432 274.305 644.671 277.156 C 638.804 283.218 636.172 281.819 636.172 272.641 C 636.172 266.297 635.761 266.107 624.77 267.365 C 618.5 268.081 613.279 268.79 613.172 268.939 C 613.065 269.086 613.505 291.654 614.151 319.09 L 615.326 368.971 L 641.537 368.971 L 641.548 338.321 C 641.556 312.171 642.326 306.541 646.79 299.981 C 652.282 291.909 668.98 285.755 677.468 288.673 C 681.111 289.928 681.779 288.069 681.779 276.677 L 683 263.374 L 673.06 263.374 C 668.263 263.47 661.044 265.444 657.015 267.761 Z"
        fill="#03aa39"
        stroke-width="1"
        fill-rule="evenodd"/>
    <path
        id="r1"
        d="M 548.507 265.997 C 545.556 267.456 539.82 271.413 535.764 274.788 L 528.386 280.925 L 528.386 273.264 C 528.386 266.401 527.571 265.603 520.558 265.603 C 503.678 265.603 504.241 263.766 504.241 318.746 L 504.241 368.971 L 531.069 368.971 L 531.109 338.321 C 531.133 318.77 532.349 305.587 534.463 301.918 C 539.021 294.002 554.758 286.716 563.933 288.271 C 571.252 289.512 571.311 289.418 571.311 276.36 L 571.311 263.199 L 562.592 263.271 C 557.798 263.312 551.458 264.538 548.507 265.997 Z"
        fill="#03aa39"
        stroke-width="1"
        fill-rule="evenodd"/>
</svg>
