<svg
    xmlns="http://www.w3.org/2000/svg"
    viewBox="0 0 1580 390"
    id="logo_rickreis"
    width="1580px"
    height="390px">
    <g id="cachos">
        <path
            id="path"
            d="M 394.747 361.985 C 321.323 372.76 277.473 295.052 266 255.463 L 282.571 255.463 C 289.76 287.551 333.067 360.756 402 345.231 C 405.528 347.541 410.971 351.076 415.211 353.762 C 416.526 354.595 417.726 355.346 418.716 355.953 L 421.5 357.5 C 421.5 357.511 421.49 357.516 421.469 357.513 C 413.726 360.801 404.005 360.627 394.747 361.985 Z M 498 185.673 L 498 235.873 C 497.211 240.571 497.929 247.662 496.5 253.5 C 485.793 253 483.256 255.602 480.707 260.5 C 486.501 232.854 485.913 202.037 482.703 182 L 498 185.673 Z"
            fill="#057e2c"
            fill-opacity="0"
            stroke-width="1"/>
        <path
            id="path_1"
            d="M 458.743 169.86 C 462.064 166.062 463.974 165.128 465.851 161.042 C 458.728 159.872 453.967 160.04 451.604 162.648 C 450.819 164.64 453.508 165.331 458.743 169.86 Z"
            fill="#03aa39"
            fill-opacity="0"
            stroke-width="1"/>
        <path
            id="path_2"
            d="M 219.507 238.467 C 219.602 238.49 219.697 238.512 219.792 238.534 C 219.888 238.556 219.983 238.579 220.078 238.601 C 220.173 238.623 220.268 238.646 220.363 238.668 C 220.458 238.69 220.554 238.712 220.649 238.735 C 220.744 238.757 220.839 238.78 220.934 238.802 C 221.029 238.824 221.125 238.846 221.22 238.868 C 221.315 238.891 221.41 238.913 221.505 238.935 C 221.6 238.957 221.696 238.98 221.791 239.002 C 221.886 239.024 221.981 239.047 222.076 239.069 C 222.124 239.08 222.171 239.091 222.219 239.102 C 222.266 239.113 222.314 239.125 222.362 239.136 C 222.386 239.142 222.41 239.147 222.433 239.153 C 222.457 239.158 222.481 239.163 222.505 239.169 C 222.528 239.174 222.552 239.18 222.576 239.185 C 222.6 239.191 222.623 239.196 222.647 239.202 C 222.742 239.225 222.837 239.247 222.933 239.269 C 223.028 239.292 223.123 239.314 223.218 239.336 C 223.313 239.358 223.408 239.381 223.504 239.403 C 223.599 239.425 223.694 239.448 223.789 239.47 C 223.884 239.492 223.979 239.514 224.074 239.537 C 224.17 239.559 224.265 239.581 224.36 239.603 C 224.455 239.626 224.55 239.648 224.645 239.67 C 224.741 239.693 224.836 239.715 224.931 239.737 C 225.026 239.759 225.121 239.782 225.216 239.804 C 225.311 239.826 225.407 239.849 225.502 239.871 C 225.597 239.893 225.692 239.915 225.787 239.938 C 225.882 239.96 225.978 239.982 226.073 240.005 C 226.168 240.027 226.263 240.049 226.358 240.071 C 226.453 240.094 226.549 240.116 226.644 240.138 C 226.739 240.16 226.834 240.183 226.929 240.205 C 227.024 240.227 227.119 240.25 227.215 240.272 C 227.31 240.294 227.405 240.316 227.5 240.339 C 227.595 240.361 227.69 240.383 227.786 240.405 C 227.881 240.428 227.976 240.45 228.071 240.472 C 228.166 240.495 228.261 240.517 228.357 240.539 C 228.452 240.561 228.547 240.584 228.642 240.606 C 228.642 240.606 225.295 246.451 225.295 247.729 C 225.295 249.007 230.267 254.187 229.098 259.229 C 227.928 264.271 218.364 271 218.364 271 C 218.364 271 222.475 261.514 221.364 257.821 C 221.346 257.761 221.327 257.702 221.308 257.643 C 221.289 257.584 221.269 257.525 221.248 257.467 C 221.228 257.408 221.206 257.35 221.184 257.292 C 221.162 257.234 221.14 257.176 221.117 257.119 C 221.094 257.061 221.07 257.004 221.046 256.947 C 221.021 256.89 220.996 256.833 220.971 256.777 C 220.946 256.72 220.92 256.664 220.893 256.608 C 220.867 256.552 220.84 256.496 220.812 256.441 C 220.785 256.385 220.757 256.33 220.728 256.275 C 220.7 256.22 220.671 256.166 220.642 256.111 C 220.612 256.057 220.583 256.003 220.552 255.949 C 220.522 255.895 220.492 255.841 220.461 255.787 C 220.43 255.734 220.398 255.681 220.367 255.628 C 220.335 255.575 220.303 255.522 220.271 255.47 C 220.238 255.417 220.206 255.365 220.173 255.313 C 220.14 255.261 220.107 255.209 220.073 255.158 C 220.039 255.107 220.006 255.055 219.972 255.004 C 219.938 254.953 219.903 254.903 219.869 254.852 C 219.834 254.802 219.8 254.751 219.765 254.702 C 219.73 254.652 219.695 254.602 219.66 254.552 C 219.624 254.503 219.589 254.454 219.553 254.405 C 219.518 254.356 219.482 254.307 219.447 254.258 C 219.411 254.21 219.375 254.162 219.339 254.114 C 219.303 254.066 219.267 254.018 219.231 253.97 C 219.195 253.923 219.159 253.876 219.123 253.828 C 219.087 253.781 219.051 253.735 219.014 253.688 C 218.978 253.642 218.942 253.595 218.906 253.549 C 218.87 253.503 218.834 253.457 218.798 253.412 C 218.762 253.366 218.726 253.321 218.69 253.276 C 218.654 253.231 218.619 253.186 218.583 253.141 C 218.547 253.097 218.512 253.052 218.476 253.008 C 218.441 252.964 218.406 252.92 218.371 252.876 C 218.336 252.833 218.301 252.789 218.266 252.746 C 218.231 252.703 218.197 252.66 218.163 252.617 C 218.128 252.575 218.094 252.532 218.061 252.49 C 218.027 252.448 217.993 252.406 217.96 252.364 C 217.927 252.322 217.894 252.281 217.861 252.239 C 217.829 252.198 217.796 252.157 217.764 252.116 C 217.732 252.075 217.7 252.035 217.669 251.994 C 217.638 251.954 217.607 251.914 217.576 251.874 C 217.546 251.834 217.516 251.795 217.486 251.755 C 217.456 251.716 217.427 251.677 217.398 251.638 C 217.369 251.599 217.341 251.56 217.313 251.522 C 217.285 251.483 217.257 251.445 217.23 251.407 C 217.203 251.369 217.177 251.331 217.151 251.294 C 217.125 251.256 217.1 251.219 217.075 251.182 C 217.05 251.145 217.026 251.108 217.002 251.071 C 216.978 251.035 216.955 250.998 216.933 250.962 C 216.91 250.926 216.888 250.89 216.867 250.854 C 216.846 250.819 216.825 250.783 216.805 250.748 C 216.785 250.713 216.766 250.678 216.747 250.643 C 216.729 250.608 216.711 250.574 216.693 250.539 C 216.676 250.505 216.66 250.471 216.644 250.437 C 216.628 250.403 216.613 250.37 216.599 250.336 C 216.585 250.303 216.572 250.27 216.559 250.237 C 216.546 250.204 216.535 250.171 216.524 250.139 C 216.513 250.106 216.503 250.074 216.493 250.042 C 216.484 250.01 216.476 249.978 216.468 249.946 C 216.461 249.915 216.454 249.883 216.448 249.852 C 216.442 249.821 216.438 249.79 216.434 249.76 C 216.43 249.729 216.427 249.698 216.425 249.668 C 216.423 249.638 216.422 249.608 216.422 249.578 C 216.422 247.729 218.365 238.2 218.365 238.2 C 218.365 238.2 218.365 238.2 218.365 238.2 C 218.46 238.222 218.555 238.245 218.65 238.267 C 218.745 238.289 218.841 238.312 218.936 238.334 C 219.031 238.356 219.126 238.378 219.221 238.4 C 219.317 238.423 219.412 238.445 219.507 238.467"
            fill="#03aa39"
            stroke-width="1"/>
    </g>
    <g id="eis">
        <path
            id="path_5"
            d="M 1011.43 258.73 C 989.519 265.728 972.193 288.541 972.193 310.39 C 972.193 323.326 981.559 344.922 990.211 351.939 C 1004.92 363.865 1039.06 367.243 1057.9 358.634 C 1068.77 353.663 1080.27 342.6 1078.77 338.557 C 1077.6 335.427 1055.36 329.59 1055.36 332.412 C 1055.36 333.614 1051.44 336.742 1046.64 339.362 C 1029.83 348.547 1011.81 343.975 1004.11 328.566 L 999.274 318.902 L 1043.41 318.244 L 1087.55 317.585 L 1087.55 310.2 C 1087.55 306.138 1085.72 297.161 1083.48 290.25 C 1074.71 263.225 1042.07 248.944 1011.43 258.73 Z M 1176.97 259.857 C 1163.84 265.197 1157.36 273.053 1155.43 285.966 C 1152.83 303.296 1165.82 315.058 1192.18 319.26 C 1218.62 323.477 1227.34 329.669 1220.01 339.037 C 1216.76 343.196 1213.27 344.143 1201.18 344.143 C 1188.19 344.143 1185.49 343.278 1179.58 337.251 C 1173.32 330.852 1172.09 330.53 1162.39 332.737 C 1150.68 335.4 1150.01 336.859 1156.45 345.677 C 1165.16 357.581 1179.42 363.375 1200 363.375 C 1210.27 363.375 1222.06 362.233 1226.21 360.836 C 1236.89 357.247 1246.14 347.59 1248.75 337.311 C 1253.44 318.859 1236.14 303.666 1204.8 298.721 C 1187.41 295.976 1181.45 292.866 1181.45 286.529 C 1181.45 274.363 1203.93 270.312 1215.23 280.44 C 1222.5 286.952 1228.13 287.793 1239.2 284.022 L 1246.33 281.594 L 1240.86 273.805 C 1229.12 257.103 1199.59 250.655 1176.97 259.857 Z M 1108.44 275.021 C 1107.81 276.68 1107.5 287.772 1107.75 299.671 C 1108.01 311.57 1108.39 330.229 1108.62 341.138 L 1109.02 360.971 L 1135.96 360.971 L 1135.24 317.099 L 1134.5 273.228 L 1122.05 272.617 C 1113.95 272.218 1109.2 273.057 1108.44 275.021 Z M 1013.78 281.12 C 1008.51 285.166 999.021 297.048 999.021 299.587 C 999.021 300.294 1012.9 300.873 1029.87 300.873 C 1047.64 300.873 1060.73 299.902 1060.73 298.582 C 1060.73 292.786 1053.63 283.368 1046.92 280.259 C 1036.94 275.632 1020.35 276.062 1013.78 281.12 Z"
            fill="#03aa39"
            fill-opacity="0"
            stroke-width="1"
            fill-rule="evenodd"/>
        <path
            id="path_6"
            d="M 1122.58 230.844 C 1119.18 230.844 1115.866 231.81 1113.115 233.604 C 1110.365 235.398 1108.317 237.929 1107.266 240.831 C 1106.215 243.734 1106.215 246.862 1107.266 249.765 C 1108.317 252.667 1110.365 255.198 1113.115 256.992 C 1115.866 258.786 1119.18 259.752 1122.58 259.752 C 1126.849 259.752 1130.947 258.228 1133.966 255.519 C 1136.984 252.809 1138.682 249.13 1138.682 245.298 C 1138.682 241.466 1136.984 237.787 1133.966 235.077 C 1130.947 232.368 1126.849 230.844 1122.58 230.844 Z"
            fill="#099c41"
            fill-opacity="0"
            stroke-width="1"/>
    </g>
    <g id="ick">
        <path
            id="path_7"
            d="M 757.569 287.651 L 757.569 360.971 L 787.08 360.971 L 787.08 345.879 C 787.08 331.008 788.744 327.814 799.638 321.78 C 801.326 320.847 807.51 326.027 814.166 333.951 C 820.543 341.54 827.923 349.845 830.566 352.41 C 833.208 354.973 835.371 357.947 835.371 359.021 C 835.371 360.093 843.827 360.971 854.161 360.971 L 872.951 360.971 L 848.795 334.145 C 835.51 319.393 824.639 306.267 824.639 304.979 C 824.639 303.693 826.753 300.887 829.334 298.748 C 840.886 289.171 867.194 260.478 865.673 259.112 C 864.745 258.283 857.957 257.603 850.59 257.603 L 837.192 257.603 L 812.226 281.041 L 787.263 304.479 L 787.171 259.406 L 787.08 214.332 L 757.569 214.332 L 757.569 287.651 Z M 676.777 256.244 C 675.87 257.074 672.321 258.237 668.889 258.831 C 652.68 261.627 633.189 283.673 629.187 303.734 C 626.576 316.813 634.067 338.564 644.406 347.932 C 660.28 362.312 691.484 367.783 712.587 359.882 C 728.92 353.766 746.1 331.225 734.728 330.83 C 733.274 330.78 728.617 329.915 724.381 328.907 C 718.234 327.448 715.903 328.071 712.842 331.987 C 705.051 341.951 688.549 346.155 677.085 341.095 C 662.896 334.831 658.274 327.148 658.4 310.046 C 658.51 295.428 662.276 287.981 672.643 281.887 C 683.025 275.786 702.83 278.651 710.599 287.38 C 716.05 293.505 716.646 293.62 726.704 290.5 C 732.448 288.719 737.51 286.267 737.958 285.053 C 739.839 279.933 727.737 267.509 715.849 262.35 C 703.339 256.925 680.018 253.278 676.777 256.244 Z M 579.611 259.206 C 578.627 260.086 577.822 283.344 577.822 310.89 L 577.822 360.971 L 604.65 360.971 L 604.65 257.603 L 593.025 257.603 C 586.63 257.603 580.593 258.324 579.611 259.206 Z"
            fill="#03aa39"
            fill-opacity="0"
            stroke-width="1"
            fill-rule="evenodd"/>
        <path
            id="path_8"
            d="M 594 217 C 589.758 217 585.686 218.529 582.686 221.247 C 579.687 223.965 578 227.656 578 231.5 C 578 235.344 579.687 239.035 582.686 241.753 C 585.686 244.471 589.758 246 594 246 C 598.242 246 602.314 244.471 605.314 241.753 C 608.313 239.035 610 235.344 610 231.5 C 610 227.656 608.313 223.965 605.314 221.247 C 602.314 218.529 598.242 217 594 217 Z"
            fill="#099c41"
            fill-opacity="0"
            stroke-width="1"/>
    </g>
    <g
        id="barra"
        transform="translate(-600 0)">
        <path
            id="path_3"
            d="M 1330.35 271.134 C 1328.34 280.711 1327.91 280.161 1348.06 293.661 C 1363.06 303.712 1372.17 310.832 1372.17 312.505 C 1372.16 313.38 1367.03 317.068 1360.76 320.703 C 1337.93 333.941 1331.93 340.561 1331.93 352.523 C 1331.93 358.492 1332.53 363.375 1333.25 363.375 C 1333.98 363.375 1337.3 361.312 1340.63 358.793 C 1343.96 356.273 1354.53 348.72 1364.12 342.009 C 1397.53 318.631 1399 317.342 1399 311.457 C 1399 305.722 1396.27 303.64 1346.16 271.214 L 1332.22 262.192 L 1330.35 271.134 Z"
            fill="#03aa39"
            stroke-width="1"
            fill-rule="evenodd"/>
        <path
            id="path_4"
            d="M 1303.52 241.977 L 1259.25 379 L 1278.03 379 L 1320.96 241.977 L 1303.52 241.977 Z"
            fill="#03aa39"
            stroke-width="1"/>
    </g>
    <path
        id="r"
        d="M 634.015 259.761 C 629.988 262.076 624.432 266.305 621.671 269.156 C 615.804 275.218 613.172 273.819 613.172 264.641 C 613.172 258.297 612.761 258.107 601.77 259.365 C 595.5 260.081 590.279 260.79 590.172 260.939 C 590.065 261.086 590.505 283.654 591.151 311.09 L 592.326 360.971 L 618.537 360.971 L 618.548 330.321 C 618.556 304.171 619.326 298.541 623.79 291.981 C 629.282 283.909 645.98 277.755 654.468 280.673 C 658.111 281.928 658.779 280.069 658.779 268.677 L 660 255.374 L 650.06 255.374 C 645.263 255.47 638.044 257.444 634.015 259.761"
        fill="#03aa39"
        stroke-width="1"
        fill-rule="evenodd"/>
    <path
        id="r_1"
        d="M 525.507 257.997 C 522.556 259.456 516.82 263.413 512.764 266.788 L 505.386 272.925 L 505.386 265.264 C 505.386 258.401 504.571 257.603 497.558 257.603 C 480.678 257.603 481.241 255.766 481.241 310.746 L 481.241 360.971 L 508.069 360.971 L 508.109 330.321 C 508.133 310.77 509.349 297.587 511.463 293.918 C 516.021 286.002 531.758 278.716 540.933 280.271 C 548.252 281.512 548.311 281.418 548.311 268.36 L 548.311 255.199 L 539.592 255.271 C 534.798 255.312 528.458 256.538 525.507 257.997 Z M 396.733 274.714 C 381.978 285.389 367.794 295.14 365.21 296.38 C 355.734 300.938 359.745 309.015 378.259 322.657 C 388.016 329.847 399.687 338.578 404.188 342.057 C 408.693 345.538 415.8 350.196 419.982 352.41 L 427.585 356.434 L 427.585 345.901 C 427.585 335.708 426.973 334.939 408.87 322.325 C 398.576 315.155 390.125 308.075 390.09 306.594 C 390.055 305.113 398.477 297.596 408.806 289.887 C 426.719 276.517 427.585 275.392 427.585 265.533 C 427.585 259.85 426.678 255.223 425.573 255.252 C 424.468 255.28 411.488 264.038 396.733 274.714 Z"
        fill="#03aa39"
        stroke-width="1"
        fill-rule="evenodd"/>
</svg>
