<svg
    xmlns="http://www.w3.org/2000/svg"
    viewBox="0 0 1580 390"
    id="vector"
    width="1580px"
    height="390px">
    <g id="cachos">
        <path
            id="path_1"
            d="M 611 193.673 L 624 199 L 624 237 C 620.8 233.8 614.46 234.667 611.689 235.5 C 613.077 219.974 612.906 205.571 611 193.673 Z M 392 263.463 L 408.571 263.463 C 414.847 291.476 447.15 351.208 501.5 355.5 L 501.5 369 C 438.848 366.413 402.502 299.703 392 263.463 Z"
            fill="#057e2c"
            stroke-width="1"/>
        <path
            id="path_2"
            d="M 584.743 177.86 C 588.064 174.062 589.974 173.128 591.851 169.042 C 584.728 167.872 579.967 168.04 577.604 170.648 C 576.819 172.64 579.508 173.331 584.743 177.86 Z"
            fill="#03aa39"
            stroke-width="1"/>
        <path
            id="path_3"
            d="M 464.267 30.284 C 452.784 40.957 450.297 42.246 445.307 40.099 C 430.987 33.935 422.941 32.981 410.037 35.919 C 388.22 40.88 373.347 56.729 370.578 77.956 C 369.993 82.444 367.608 84.302 360.424 85.867 C 345.231 89.172 335.141 94.903 328.479 104.009 C 319.806 115.866 318.516 128.171 324.404 142.849 C 326.032 146.905 327.659 150.962 329.287 155.018 C 326.526 157.623 323.766 160.228 321.005 162.833 C 315.435 168.09 311.717 174.137 309.731 180.424 C 307.745 186.711 307.491 193.237 308.849 199.453 C 310.208 205.669 313.178 211.575 317.64 216.621 C 322.102 221.666 328.056 225.851 335.382 228.626 C 341.606 230.984 344.38 233.946 345.765 239.708 C 349.274 254.309 354.535 260.223 369.733 266.668 C 380.062 271.045 402.361 270.336 407.373 269.208 C 403.542 263.845 408.075 267.047 414.64 261.99 C 429.793 250.309 434.246 228.429 424.564 213.248 C 422.887 210.62 421.211 207.993 419.534 205.365 C 421.979 204.46 424.423 203.554 426.868 202.649 C 430.901 201.156 437.956 196.175 442.547 191.584 C 445.329 188.8 448.111 186.017 450.893 183.233 C 453.556 184.997 456.219 186.76 458.882 188.524 C 468.557 194.932 484.597 198.469 495.741 196.651 C 500.256 195.913 508.611 192.05 514.304 188.067 C 519.997 184.081 525.429 181.829 526.376 183.062 C 531.492 189.721 549.843 194.687 560.292 194.687 C 569.124 194.687 578.083 185.476 584.743 177.86 C 579.508 173.331 576.819 172.64 577.604 170.648 C 579.967 168.04 584.728 167.872 591.851 169.042 C 594.832 162.553 596.452 156.348 593.827 152.619 C 590.063 147.275 583.182 147.768 582.224 153.821 C 580.279 166.086 556.413 187.596 540.657 178.987 C 531.946 174.228 531.793 173.855 533.488 161.569 C 535.53 146.785 532.646 138.753 521.561 128.359 C 515.5 122.678 510.422 120.483 501.182 119.548 C 487.269 118.144 475.784 122.277 475.784 128.69 C 475.784 132.116 477.724 132.602 487.484 131.616 C 505.775 129.767 521.392 142.068 521.392 158.326 C 521.392 166.487 509.775 178.158 498.26 181.562 C 492.437 183.285 487.119 183.766 481.663 182.905 C 476.207 182.043 470.612 179.839 464.235 176.192 C 455.588 171.242 454.536 169.528 454.434 160.201 C 454.314 149.006 447.354 137.765 437.669 133.121 C 427.985 128.476 417.656 128.123 413.017 132.277 C 407.598 137.135 409.717 140.599 418.112 140.599 C 426.437 140.599 436.908 149.347 440.519 159.321 C 448.13 180.331 418.525 200.642 395.705 190.067 C 387.552 186.288 387.252 186.324 387.252 191.074 C 387.252 193.887 393.578 201.486 402.007 208.803 C 415.544 220.551 416.762 222.491 416.762 232.316 C 416.762 258.48 376.95 268.757 362.208 246.395 C 356.292 237.424 356.568 232.604 363.106 230.746 C 366.535 229.77 368.472 227.109 368.472 223.373 C 368.472 216.996 365.931 215.955 361.046 220.332 C 356.418 224.479 339.018 219.166 330.366 210.967 C 323.779 204.724 321.389 196.137 322.475 182.615 C 322.69 179.942 326.508 173.795 330.958 168.956 C 338.406 160.857 339.568 160.398 345.553 163.179 C 354.419 167.302 374.817 164.797 375.965 159.446 C 376.665 156.177 374.597 155.484 364.547 155.619 C 353.99 155.763 351.192 154.703 344.555 148.039 C 334.886 138.337 333.199 128.69 339.103 116.87 C 348.158 98.754 369.009 92.209 385.054 102.447 C 392.513 107.204 393.387 107.286 397.508 103.594 C 401.629 99.901 401.377 99.221 393.924 93.896 C 387.179 89.076 385.883 86.418 385.741 77.098 C 385.516 62.506 394.415 52.881 411.856 48.849 C 421.86 46.537 426.53 46.585 435.024 49.097 C 445.417 52.172 445.691 52.544 446.861 65.189 C 448.084 78.41 456.259 90.117 464.264 90.117 C 471.073 90.117 471.156 82.913 464.42 76.874 C 458.357 71.441 457.404 67.364 459.266 54.845 C 460.138 48.994 473.635 37.445 482.754 34.75 C 495.079 31.104 508.482 33.496 518.631 41.147 C 525.601 46.402 526.757 48.917 526.757 58.823 C 526.757 67.136 527.946 70.78 531.001 71.831 C 537.266 73.985 537.488 73.826 537.488 67.196 C 537.488 55.299 549.593 45.453 565.658 44.282 C 577.754 43.397 583.085 44.746 590.938 50.667 C 598.01 55.999 599.193 58.516 599.193 68.246 C 599.193 77.67 597.854 80.752 591.319 86.362 C 585.148 91.658 581.913 92.776 576.365 91.528 C 570.117 90.122 569.384 90.584 570.154 95.435 C 571.976 106.945 601.197 100.819 607.751 87.555 C 611.713 79.528 620.368 77.482 635.861 80.906 C 650.421 84.124 657.801 91.466 659.754 104.678 C 661.122 113.928 660.353 116.404 654.018 123.171 C 648.908 128.63 644.398 130.984 639.046 130.984 C 634.107 130.984 631.386 132.234 631.386 134.505 C 631.386 139.739 641.337 143.539 650.378 141.76 C 657.026 140.45 659.628 141.448 666.316 147.864 C 672.9 154.179 674.311 157.578 674.311 167.134 C 674.311 177.326 661.216 183.475 654.018 188.067 C 648.838 191.372 638.354 190.793 634.109 190.067 C 629.71 189.313 615.996 183.466 591.851 169.042 C 589.974 173.128 588.064 174.062 584.743 177.86 C 598.55 189.804 621.846 206.634 654.018 201.842 C 665.86 197.058 687.36 179.26 687.344 165.866 C 687.333 156.599 682.427 142.027 672.704 135.174 C 666.746 130.974 666.555 130.219 670.276 125.46 C 675.47 118.818 675.475 99.11 670.29 90.122 C 662.311 76.3 637.755 64.472 622.394 67.054 C 613.468 68.554 613.28 68.41 611.563 58.787 C 607.244 34.597 568.469 21.584 546.61 36.991 C 537.298 43.553 536.08 43.388 532.219 35.034 C 528.115 26.157 508.004 18 490.22 18 C 478.408 18 476.519 18.894 464.267 30.284 C 464.267 30.284 464.267 30.284 464.267 30.284"
            fill="#03aa39"
            stroke-width="1"/>
    </g>
    <g id="eis">
        <path
            id="path_4"
            d="M 1034.43 266.73 C 1012.52 273.728 995.193 296.541 995.193 318.39 C 995.193 331.326 1004.56 352.922 1013.21 359.939 C 1027.92 371.865 1062.06 375.243 1080.9 366.634 C 1091.77 361.663 1103.27 350.6 1101.77 346.557 C 1100.6 343.427 1078.36 337.59 1078.36 340.412 C 1078.36 341.614 1074.44 344.742 1069.64 347.362 C 1052.83 356.547 1034.81 351.975 1027.11 336.566 L 1022.27 326.902 L 1066.41 326.244 L 1110.55 325.585 L 1110.55 318.2 C 1110.55 314.138 1108.72 305.161 1106.48 298.25 C 1097.71 271.225 1065.07 256.944 1034.43 266.73 Z M 1199.97 267.857 C 1186.84 273.197 1180.36 281.053 1178.43 293.966 C 1175.83 311.296 1188.82 323.058 1215.18 327.26 C 1241.62 331.477 1250.34 337.669 1243.01 347.037 C 1239.76 351.196 1236.27 352.143 1224.18 352.143 C 1211.19 352.143 1208.49 351.278 1202.58 345.251 C 1196.32 338.852 1195.09 338.53 1185.39 340.737 C 1173.68 343.4 1173.01 344.859 1179.45 353.677 C 1188.16 365.581 1202.42 371.375 1223 371.375 C 1233.27 371.375 1245.06 370.233 1249.21 368.836 C 1259.89 365.247 1269.14 355.59 1271.75 345.311 C 1276.44 326.859 1259.14 311.666 1227.8 306.721 C 1210.41 303.976 1204.45 300.866 1204.45 294.529 C 1204.45 282.363 1226.93 278.312 1238.23 288.44 C 1245.5 294.952 1251.13 295.793 1262.2 292.022 L 1269.33 289.594 L 1263.86 281.805 C 1252.12 265.103 1222.59 258.655 1199.97 267.857 Z M 1131.44 283.021 C 1130.81 284.68 1130.5 295.772 1130.75 307.671 C 1131.01 319.57 1131.39 338.229 1131.62 349.138 L 1132.02 368.971 L 1158.96 368.971 L 1158.24 325.099 L 1157.5 281.228 L 1145.05 280.617 C 1136.95 280.218 1132.2 281.057 1131.44 283.021 Z M 1036.78 289.12 C 1031.51 293.166 1022.02 305.048 1022.02 307.587 C 1022.02 308.294 1035.9 308.873 1052.87 308.873 C 1070.64 308.873 1083.73 307.902 1083.73 306.582 C 1083.73 300.786 1076.63 291.368 1069.92 288.259 C 1059.94 283.632 1043.35 284.062 1036.78 289.12 Z"
            fill="#03aa39"
            stroke-width="1"
            fill-rule="evenodd"/>
        <path
            id="path_5"
            d="M 1144.051 235.068 C 1148.272 235.068 1152.323 236.578 1155.306 239.26 C 1158.289 241.944 1159.964 245.588 1159.958 249.383 C 1159.953 253.179 1158.266 256.823 1155.272 259.508 C 1152.277 262.192 1148.214 263.703 1143.982 263.705 C 1139.75 263.708 1135.687 262.201 1132.693 259.522 C 1129.699 256.841 1128.013 253.202 1128.009 249.411 C 1128.004 245.62 1129.681 241.981 1132.665 239.301 C 1135.624 236.646 1139.665 235.173 1143.892 235.211 C 1143.892 235.249 1143.909 235.285 1143.938 235.312"
            fill="#099c41"
            stroke-width="1"/>
    </g>
    <g id="ick">
        <path
            id="path_6"
            d="M 780.569 295.651 L 780.569 368.971 L 810.08 368.971 L 810.08 353.879 C 810.08 339.008 811.744 335.814 822.638 329.78 C 824.326 328.847 830.51 334.027 837.166 341.951 C 843.543 349.54 850.923 357.845 853.566 360.41 C 856.208 362.973 858.371 365.947 858.371 367.021 C 858.371 368.093 866.827 368.971 877.161 368.971 L 895.951 368.971 L 871.795 342.145 C 858.51 327.393 847.639 314.267 847.639 312.979 C 847.639 311.693 849.753 308.887 852.334 306.748 C 863.886 297.171 890.194 268.478 888.673 267.112 C 887.745 266.283 880.957 265.603 873.59 265.603 L 860.192 265.603 L 835.226 289.041 L 810.263 312.479 L 810.171 267.406 L 810.08 222.332 L 780.569 222.332 L 780.569 295.651 Z M 699.777 264.244 C 698.87 265.074 695.321 266.237 691.889 266.831 C 675.68 269.627 656.189 291.673 652.187 311.734 C 649.576 324.813 657.067 346.564 667.406 355.932 C 683.28 370.312 714.484 375.783 735.587 367.882 C 751.92 361.766 769.1 339.225 757.728 338.83 C 756.274 338.78 751.617 337.915 747.38 336.907 C 741.234 335.448 738.903 336.071 735.842 339.987 C 728.051 349.951 711.549 354.155 700.085 349.095 C 685.896 342.831 681.274 335.148 681.4 318.046 C 681.51 303.428 685.276 295.981 695.643 289.887 C 706.025 283.786 725.83 286.651 733.599 295.38 C 739.05 301.505 739.646 301.62 749.704 298.5 C 755.448 296.719 760.51 294.267 760.958 293.053 C 762.839 287.933 750.737 275.509 738.849 270.35 C 726.339 264.925 703.018 261.278 699.777 264.244 Z M 602.801 282.365 C 601.81 283.114 601 302.914 601 326.365 L 601 369 L 628 369 L 628 281 L 616.301 281 C 609.864 281 603.789 281.614 602.801 282.365 Z"
            fill="#03aa39"
            stroke-width="1"
            fill-rule="evenodd"/>
        <path
            id="path_7"
            d="M 614 239 C 609.758 239 605.686 240.529 602.686 243.247 C 599.687 245.965 598 249.656 598 253.5 C 598 257.344 599.687 261.035 602.686 263.753 C 605.686 266.471 609.758 268 614 268 C 618.242 268 622.314 266.471 625.314 263.753 C 628.313 261.035 630 257.344 630 253.5 C 630 249.656 628.313 245.965 625.314 243.247 C 622.314 240.529 618.242 239 614 239 Z"
            fill="#099c41"
            fill-opacity="0.900002048483089"
            stroke-width="1"/>
    </g>
    <path
        id="r2"
        d="M 957.015 267.761 C 952.988 270.076 947.432 274.305 944.671 277.156 C 938.804 283.218 936.172 281.819 936.172 272.641 C 936.172 266.297 935.761 266.107 924.77 267.365 C 918.5 268.081 913.279 268.79 913.172 268.939 C 913.065 269.086 913.505 291.654 914.151 319.09 L 915.326 368.971 L 941.537 368.971 L 941.548 338.321 C 941.556 312.171 942.326 306.541 946.79 299.981 C 952.282 291.909 968.98 285.755 977.468 288.673 C 981.111 289.928 981.779 288.069 981.779 276.677 L 983 263.374 L 973.06 263.374 C 968.263 263.47 961.044 265.444 957.015 267.761 Z"
        fill="#03aa39"
        stroke-width="1"
        fill-rule="evenodd"/>
    <path
        id="r1"
        d="M 548.507 265.997 C 545.556 267.456 539.82 271.413 535.764 274.788 L 528.386 280.925 L 528.386 273.264 C 528.386 266.401 527.571 265.603 520.558 265.603 C 503.678 265.603 504.241 263.766 504.241 318.746 L 504.241 368.971 L 531.069 368.971 L 531.109 338.321 C 531.133 318.77 532.349 305.587 534.463 301.918 C 539.021 294.002 554.758 286.716 563.933 288.271 C 571.252 289.512 571.311 289.418 571.311 276.36 L 571.311 263.199 L 562.592 263.271 C 557.798 263.312 551.458 264.538 548.507 265.997 Z"
        fill="#03aa39"
        stroke-width="1"
        fill-rule="evenodd"/>
</svg>
