<svg
    xmlns="http://www.w3.org/2000/svg"
    viewBox="0 0 1580 390"
    id="logo_rickreis"
    width="1580px"
    height="390px">
    <g id="cachos">
        <path
            id="path"
            d="M 394.747 361.985 C 321.323 372.76 277.473 295.052 266 255.463 L 282.571 255.463 C 289.76 287.551 333.067 360.756 402 345.231 C 405.528 347.541 410.971 351.076 415.211 353.762 C 416.526 354.595 417.726 355.346 418.716 355.953 L 421.5 357.5 C 421.5 357.511 421.49 357.516 421.469 357.513 C 413.726 360.801 404.005 360.627 394.747 361.985 Z M 498 185.673 L 498 235.873 C 497.211 240.571 497.929 247.662 496.5 253.5 C 485.793 253 483.256 255.602 480.707 260.5 C 486.501 232.854 485.913 202.037 482.703 182 L 498 185.673 Z"
            fill="#057e2c"
            stroke-width="1"/>
        <path
            id="path_1"
            d="M 458.743 169.86 C 462.064 166.062 463.974 165.128 465.851 161.042 C 458.728 159.872 453.967 160.04 451.604 162.648 C 450.819 164.64 453.508 165.331 458.743 169.86 Z"
            fill="#03aa39"
            stroke-width="1"/>
        <path
            id="path_2"
            d="M 338.267 22.284 C 338.267 22.284 338.267 22.284 338.267 22.284 C 350.519 10.894 352.408 10 364.22 10 C 382.004 10 402.115 18.157 406.219 27.034 C 410.08 35.388 411.298 35.553 420.61 28.991 C 442.469 13.584 481.244 26.597 485.563 50.787 C 487.28 60.41 487.468 60.554 496.394 59.054 C 511.755 56.472 536.311 68.3 544.29 82.122 C 549.475 91.11 549.47 110.818 544.276 117.46 C 540.555 122.219 540.746 122.974 546.704 127.174 C 556.427 134.027 561.333 148.599 561.344 157.866 C 561.36 171.26 539.86 189.058 528.018 193.842 C 495.846 198.634 472.55 181.804 458.743 169.86 C 462.064 166.062 463.974 165.128 465.851 161.042 C 489.996 175.466 503.71 181.313 508.109 182.067 C 512.354 182.793 522.838 183.372 528.018 180.067 C 535.216 175.475 548.311 169.326 548.311 159.134 C 548.311 149.578 546.9 146.179 540.316 139.864 C 533.628 133.448 531.026 132.45 524.378 133.76 C 515.337 135.539 505.386 131.739 505.386 126.505 C 505.386 124.234 508.107 122.984 513.046 122.984 C 518.398 122.984 522.908 120.63 528.018 115.171 C 534.353 108.404 535.122 105.928 533.754 96.678 C 531.801 83.466 524.421 76.124 509.861 72.906 C 494.368 69.482 485.713 71.528 481.751 79.555 C 475.197 92.82 445.976 98.945 444.154 87.435 C 443.384 82.584 444.117 82.122 450.365 83.528 C 455.913 84.776 459.148 83.658 465.319 78.362 C 471.854 72.752 473.193 69.67 473.193 60.246 C 473.193 50.516 472.01 47.999 464.938 42.667 C 457.085 36.746 451.754 35.397 439.658 36.282 C 423.593 37.453 411.488 47.299 411.488 59.196 C 411.488 65.826 411.266 65.985 405.001 63.831 C 401.946 62.78 400.757 59.136 400.757 50.823 C 400.757 40.917 399.601 38.402 392.631 33.147 C 382.482 25.496 369.079 23.104 356.754 26.75 C 347.635 29.445 334.138 40.994 333.266 46.845 C 331.404 59.364 332.357 63.441 338.42 68.874 C 345.156 74.913 345.073 82.117 338.264 82.117 C 330.259 82.117 322.084 70.41 320.861 57.189 C 319.691 44.544 319.417 44.172 309.024 41.097 C 300.53 38.585 295.86 38.537 285.856 40.849 C 268.415 44.881 259.516 54.506 259.741 69.098 C 259.883 78.418 261.179 81.076 267.924 85.896 C 275.377 91.221 275.629 91.901 271.508 95.594 C 267.387 99.286 266.513 99.204 259.054 94.447 C 243.009 84.209 222.158 90.754 213.103 108.87 C 207.199 120.69 208.886 130.337 218.555 140.039 C 225.192 146.703 227.99 147.763 238.547 147.619 C 248.597 147.484 250.665 148.177 249.965 151.446 C 248.817 156.797 228.419 159.302 219.553 155.179 C 213.568 152.398 212.406 152.857 204.958 160.956 C 200.508 165.795 196.69 171.942 196.475 174.615 C 196.258 177.319 196.18 179.826 196.246 182.157 C 196.313 184.487 196.524 186.641 196.886 188.638 C 197.248 190.636 197.761 192.478 198.43 194.184 C 199.099 195.891 199.924 197.462 200.912 198.919 C 201.899 200.376 203.049 201.718 204.366 202.967 C 213.018 211.166 230.418 216.479 235.046 212.332 C 239.931 207.955 242.472 208.996 242.472 215.373 C 242.472 219.109 240.535 221.77 237.106 222.746 C 230.568 224.604 230.292 229.424 236.208 238.395 C 250.95 260.757 290.762 250.48 290.762 224.316 C 290.762 214.491 289.544 212.551 276.007 200.803 C 267.578 193.486 261.252 185.887 261.252 183.074 C 261.252 178.324 261.552 178.288 269.705 182.067 C 292.525 192.642 322.13 172.331 314.519 151.321 C 310.908 141.347 300.437 132.599 292.112 132.599 C 283.717 132.599 281.598 129.135 287.017 124.277 C 291.656 120.123 301.985 120.476 311.669 125.121 C 321.354 129.765 328.314 141.006 328.434 152.201 C 328.536 161.528 329.588 163.242 338.235 168.192 C 350.989 175.487 360.614 177.007 372.26 173.562 C 383.775 170.158 395.392 158.487 395.392 150.326 C 395.392 134.068 379.775 121.767 361.484 123.616 C 351.724 124.602 349.784 124.116 349.784 120.69 C 349.784 114.277 361.269 110.144 375.182 111.548 C 384.422 112.483 389.5 114.678 395.561 120.359 C 406.646 130.753 409.53 138.785 407.488 153.569 C 405.793 165.855 405.946 166.228 414.657 170.987 C 430.413 179.596 454.279 158.086 456.224 145.821 C 457.182 139.768 464.063 139.275 467.827 144.619 C 470.452 148.348 468.832 154.553 465.851 161.042 C 458.728 159.872 453.967 160.04 451.604 162.648 C 450.819 164.64 453.508 165.331 458.743 169.86 C 452.083 177.476 443.124 186.687 434.292 186.687 C 423.843 186.687 405.492 181.721 400.376 175.062 C 399.429 173.829 393.997 176.081 388.304 180.067 C 382.611 184.05 374.256 187.913 369.741 188.651 C 358.597 190.469 342.557 186.932 332.882 180.524 C 330.219 178.76 327.556 176.997 324.893 175.233 C 322.111 178.017 319.329 180.8 316.547 183.584 C 311.956 188.175 304.901 193.156 300.868 194.649 C 298.423 195.554 295.979 196.46 293.534 197.365 C 295.211 199.993 296.887 202.62 298.564 205.248 C 308.246 220.429 303.793 242.309 288.64 253.99 C 282.075 259.047 277.542 255.845 281.373 261.208 C 276.361 262.336 254.062 263.045 243.733 258.668 C 228.535 252.223 223.274 246.309 219.765 231.708 C 218.38 225.946 215.606 222.984 209.382 220.626 C 180.078 209.527 172.725 175.862 195.005 154.833 C 197.766 152.228 200.526 149.623 203.287 147.018 C 201.659 142.962 200.032 138.905 198.404 134.849 C 192.516 120.171 193.806 107.866 202.479 96.01 C 209.141 86.903 219.231 81.172 234.424 77.867 C 241.608 76.302 243.993 74.444 244.578 69.956 C 247.347 48.729 262.22 32.88 284.037 27.919 C 296.941 24.981 304.987 25.936 319.307 32.099 C 324.297 34.246 326.784 32.957 338.267 22.284"
            fill="#03aa39"
            stroke-width="1"/>
    </g>
    <g id="eis">
        <path
            id="path_5"
            d="M 1011.43 258.73 C 989.519 265.728 972.193 288.541 972.193 310.39 C 972.193 323.326 981.559 344.922 990.211 351.939 C 1004.92 363.865 1039.06 367.243 1057.9 358.634 C 1068.77 353.663 1080.27 342.6 1078.77 338.557 C 1077.6 335.427 1055.36 329.59 1055.36 332.412 C 1055.36 333.614 1051.44 336.742 1046.64 339.362 C 1029.83 348.547 1011.81 343.975 1004.11 328.566 L 999.274 318.902 L 1043.41 318.244 L 1087.55 317.585 L 1087.55 310.2 C 1087.55 306.138 1085.72 297.161 1083.48 290.25 C 1074.71 263.225 1042.07 248.944 1011.43 258.73 Z M 1176.97 259.857 C 1163.84 265.197 1157.36 273.053 1155.43 285.966 C 1152.83 303.296 1165.82 315.058 1192.18 319.26 C 1218.62 323.477 1227.34 329.669 1220.01 339.037 C 1216.76 343.196 1213.27 344.143 1201.18 344.143 C 1188.19 344.143 1185.49 343.278 1179.58 337.251 C 1173.32 330.852 1172.09 330.53 1162.39 332.737 C 1150.68 335.4 1150.01 336.859 1156.45 345.677 C 1165.16 357.581 1179.42 363.375 1200 363.375 C 1210.27 363.375 1222.06 362.233 1226.21 360.836 C 1236.89 357.247 1246.14 347.59 1248.75 337.311 C 1253.44 318.859 1236.14 303.666 1204.8 298.721 C 1187.41 295.976 1181.45 292.866 1181.45 286.529 C 1181.45 274.363 1203.93 270.312 1215.23 280.44 C 1222.5 286.952 1228.13 287.793 1239.2 284.022 L 1246.33 281.594 L 1240.86 273.805 C 1229.12 257.103 1199.59 250.655 1176.97 259.857 Z M 1108.44 275.021 C 1107.81 276.68 1107.5 287.772 1107.75 299.671 C 1108.01 311.57 1108.39 330.229 1108.62 341.138 L 1109.02 360.971 L 1135.96 360.971 L 1135.24 317.099 L 1134.5 273.228 L 1122.05 272.617 C 1113.95 272.218 1109.2 273.057 1108.44 275.021 Z M 1013.78 281.12 C 1008.51 285.166 999.021 297.048 999.021 299.587 C 999.021 300.294 1012.9 300.873 1029.87 300.873 C 1047.64 300.873 1060.73 299.902 1060.73 298.582 C 1060.73 292.786 1053.63 283.368 1046.92 280.259 C 1036.94 275.632 1020.35 276.062 1013.78 281.12 Z"
            fill="#03aa39"
            fill-opacity="0.2138222222222219"
            stroke-width="1"
            fill-rule="evenodd"/>
        <path
            id="path_6"
            d="M 1122.58 230.844 C 1119.18 230.844 1115.866 231.81 1113.115 233.604 C 1110.365 235.398 1108.317 237.929 1107.266 240.831 C 1106.215 243.734 1106.215 246.862 1107.266 249.765 C 1108.317 252.667 1110.365 255.198 1113.115 256.992 C 1115.866 258.786 1119.18 259.752 1122.58 259.752 C 1126.849 259.752 1130.947 258.228 1133.966 255.519 C 1136.984 252.809 1138.682 249.13 1138.682 245.298 C 1138.682 241.466 1136.984 237.787 1133.966 235.077 C 1130.947 232.368 1126.849 230.844 1122.58 230.844 Z"
            fill="#099c41"
            fill-opacity="0"
            stroke-width="1"/>
    </g>
    <g id="ick">
        <path
            id="path_7"
            d="M 757.569 287.651 L 757.569 360.971 L 787.08 360.971 L 787.08 345.879 C 787.08 331.008 788.744 327.814 799.638 321.78 C 801.326 320.847 807.51 326.027 814.166 333.951 C 820.543 341.54 827.923 349.845 830.566 352.41 C 833.208 354.973 835.371 357.947 835.371 359.021 C 835.371 360.093 843.827 360.971 854.161 360.971 L 872.951 360.971 L 848.795 334.145 C 835.51 319.393 824.639 306.267 824.639 304.979 C 824.639 303.693 826.753 300.887 829.334 298.748 C 840.886 289.171 867.194 260.478 865.673 259.112 C 864.745 258.283 857.957 257.603 850.59 257.603 L 837.192 257.603 L 812.226 281.041 L 787.263 304.479 L 787.171 259.406 L 787.08 214.332 L 757.569 214.332 L 757.569 287.651 Z M 676.777 256.244 C 675.87 257.074 672.321 258.237 668.889 258.831 C 652.68 261.627 633.189 283.673 629.187 303.734 C 626.576 316.813 634.067 338.564 644.406 347.932 C 660.28 362.312 691.484 367.783 712.587 359.882 C 728.92 353.766 746.1 331.225 734.728 330.83 C 733.274 330.78 728.617 329.915 724.381 328.907 C 718.234 327.448 715.903 328.071 712.842 331.987 C 705.051 341.951 688.549 346.155 677.085 341.095 C 662.896 334.831 658.274 327.148 658.4 310.046 C 658.51 295.428 662.276 287.981 672.643 281.887 C 683.025 275.786 702.83 278.651 710.599 287.38 C 716.05 293.505 716.646 293.62 726.704 290.5 C 732.448 288.719 737.51 286.267 737.958 285.053 C 739.839 279.933 727.737 267.509 715.849 262.35 C 703.339 256.925 680.018 253.278 676.777 256.244 Z M 579.611 259.206 C 578.627 260.086 577.822 283.344 577.822 310.89 L 577.822 360.971 L 604.65 360.971 L 604.65 257.603 L 593.025 257.603 C 586.63 257.603 580.593 258.324 579.611 259.206 Z"
            fill="#03aa39"
            fill-opacity="0.5555555555555554"
            stroke-width="1"
            fill-rule="evenodd"/>
        <path
            id="path_8"
            d="M 594 217 C 589.758 217 585.686 218.529 582.686 221.247 C 579.687 223.965 578 227.656 578 231.5 C 578 235.344 579.687 239.035 582.686 241.753 C 585.686 244.471 589.758 246 594 246 C 598.242 246 602.314 244.471 605.314 241.753 C 608.313 239.035 610 235.344 610 231.5 C 610 227.656 608.313 223.965 605.314 221.247 C 602.314 218.529 598.242 217 594 217 Z"
            fill="#099c41"
            fill-opacity="0"
            stroke-width="1"/>
    </g>
    <g
        id="barra"
        transform="translate(-165.00463617053384 0)">
        <path
            id="path_3"
            d="M 1330.35 271.134 C 1328.34 280.711 1327.91 280.161 1348.06 293.661 C 1363.06 303.712 1372.17 310.832 1372.17 312.505 C 1372.16 313.38 1367.03 317.068 1360.76 320.703 C 1337.93 333.941 1331.93 340.561 1331.93 352.523 C 1331.93 358.492 1332.53 363.375 1333.25 363.375 C 1333.98 363.375 1337.3 361.312 1340.63 358.793 C 1343.96 356.273 1354.53 348.72 1364.12 342.009 C 1397.53 318.631 1399 317.342 1399 311.457 C 1399 305.722 1396.27 303.64 1346.16 271.214 L 1332.22 262.192 L 1330.35 271.134 Z"
            fill="#03aa39"
            stroke-width="1"
            fill-rule="evenodd"/>
        <path
            id="path_4"
            d="M 1303.52 241.977 L 1259.25 379 L 1278.03 379 L 1320.96 241.977 L 1303.52 241.977 Z"
            fill="#03aa39"
            stroke-width="1"/>
    </g>
    <path
        id="r"
        d="M 808.621 267.501 C 804.904 269.017 803.086 268.061 799.058 262.708 C 797.909 258.82 796.596 258.83 788.862 259.731 C 784.12 260.29 780.324 260.817 780.236 260.939 C 780.129 261.086 780.569 283.654 781.215 311.09 L 782.39 360.971 L 808.601 360.971 L 808.612 330.321 C 808.62 304.171 809.39 298.541 813.854 291.981 C 819.346 283.909 836.044 277.755 844.532 280.673 C 848.175 281.928 848.843 280.069 848.843 268.677 L 850.064 255.374 L 840.124 255.374 C 835.327 255.47 828.108 257.444 824.079 259.761 C 822.604 260.609 820.568 262.159 819.556 263.204 C 814.855 266.892 810.37 269.059 808.621 267.501"
        fill="#03aa39"
        stroke-width="1"
        fill-rule="evenodd"/>
    <path
        id="r_1"
        d="M 525.507 257.997 C 522.556 259.456 516.82 263.413 512.764 266.788 L 505.386 272.925 L 505.386 265.264 C 505.386 258.401 504.571 257.603 497.558 257.603 C 480.678 257.603 481.241 255.766 481.241 310.746 L 481.241 360.971 L 508.069 360.971 L 508.109 330.321 C 508.133 310.77 509.349 297.587 511.463 293.918 C 516.021 286.002 531.758 278.716 540.933 280.271 C 548.252 281.512 548.311 281.418 548.311 268.36 L 548.311 255.199 L 539.592 255.271 C 534.798 255.312 528.458 256.538 525.507 257.997 Z M 396.733 274.714 C 381.978 285.389 367.794 295.14 365.21 296.38 C 355.734 300.938 359.745 309.015 378.259 322.657 C 388.016 329.847 399.687 338.578 404.188 342.057 C 408.693 345.538 415.8 350.196 419.982 352.41 L 427.585 356.434 L 427.585 345.901 C 427.585 335.708 426.973 334.939 408.87 322.325 C 398.576 315.155 390.125 308.075 390.09 306.594 C 390.055 305.113 398.477 297.596 408.806 289.887 C 426.719 276.517 427.585 275.392 427.585 265.533 C 427.585 259.85 426.678 255.223 425.573 255.252 C 424.468 255.28 411.488 264.038 396.733 274.714 Z"
        fill="#03aa39"
        stroke-width="1"
        fill-rule="evenodd"/>
</svg>
