<svg
    xmlns="http://www.w3.org/2000/svg"
    viewBox="0 0 1580 390"
    id="vector"
    width="1580px"
    height="390px">
    <g id="cachos">
        <path
            id="path_1"
            d="M 611 193.673 L 624 199 L 624 237 C 620.8 233.8 614.46 234.667 611.689 235.5 C 613.077 219.974 612.906 205.571 611 193.673 Z M 392 263.463 L 408.571 263.463 C 414.847 291.476 447.15 351.208 501.5 355.5 L 501.5 369 C 438.848 366.413 402.502 299.703 392 263.463 Z"
            fill="#057e2c"
            fill-opacity="0.9207757834293515"
            stroke-width="1"/>
        <path
            id="path_2"
            d="M 584.743 177.86 C 588.064 174.062 589.974 173.128 591.851 169.042 C 584.728 167.872 579.967 168.04 577.604 170.648 C 576.819 172.64 579.508 173.331 584.743 177.86 Z"
            fill="#03aa39"
            fill-opacity="0"
            stroke-width="1"/>
        <path
            id="path_3"
            d="M 444.876 46.777 C 434.295 56.603 431.998 57.788 427.396 55.809 C 414.202 50.132 406.786 49.252 394.897 51.955 C 374.801 56.521 361.099 71.113 358.542 90.657 C 357.995 94.787 355.792 96.496 349.169 97.935 C 335.18 100.979 325.89 106.256 319.755 114.64 C 311.769 125.558 310.428 137.643 315.849 151.305 C 317.348 155.042 318.847 158.779 320.346 162.517 C 317.804 164.918 315.262 167.319 312.72 169.72 C 307.592 174.563 304.169 180.133 302.341 185.924 C 300.513 191.715 300.28 197.727 301.531 203.453 C 302.782 209.18 305.517 214.62 309.627 219.268 C 313.736 223.917 319.219 227.773 325.966 230.33 C 331.697 232.504 334.252 235.234 335.529 240.542 C 338.761 253.989 343.606 259.437 357.601 265.374 C 367.113 269.407 387.646 268.757 392.263 267.721 C 388.736 262.785 392.912 265.736 398.958 261.083 C 412.912 250.33 417.013 230.186 408.1 216.211 C 406.558 213.794 405.015 211.377 403.473 208.96 C 405.726 208.13 407.978 207.299 410.231 206.468 C 413.946 205.096 420.444 200.513 424.673 196.288 C 427.236 193.728 429.8 191.168 432.363 188.607 C 434.817 190.234 437.271 191.861 439.725 193.488 C 448.636 199.391 463.407 202.651 473.67 200.98 C 477.829 200.303 485.524 196.75 490.769 193.085 C 496.013 189.418 501.017 187.347 501.891 188.486 C 506.604 194.62 523.503 199.196 533.126 199.199 C 541.261 199.202 549.513 190.724 555.647 183.714 C 550.829 179.547 548.356 178.914 549.081 177.083 C 551.259 174.685 555.646 174.533 562.207 175.614 C 564.954 169.642 566.448 163.932 564.034 160.502 C 560.57 155.584 554.237 156.041 553.358 161.618 C 551.569 172.915 529.597 192.724 515.092 184.8 C 507.073 180.422 506.935 180.081 508.499 168.772 C 510.381 155.163 507.729 147.77 497.525 138.203 C 491.946 132.976 487.273 130.958 478.768 130.101 C 465.96 128.811 455.388 132.62 455.391 138.529 C 455.393 141.687 457.183 142.138 466.172 141.233 C 483.017 139.534 497.399 150.864 497.402 165.838 C 497.405 173.356 486.711 184.106 476.111 187.243 C 470.752 188.833 465.859 189.28 460.838 188.49 C 455.817 187.701 450.668 185.675 444.799 182.321 C 436.84 177.766 435.874 176.192 435.783 167.607 C 435.675 157.303 429.27 146.956 420.355 142.684 C 411.441 138.411 401.933 138.089 397.664 141.918 C 392.678 146.395 394.632 149.588 402.364 149.592 C 410.033 149.596 419.677 157.655 423.005 166.842 C 430.016 186.192 402.759 204.897 381.749 195.164 C 374.245 191.688 373.972 191.725 373.975 196.103 C 373.977 198.697 379.805 205.698 387.569 212.439 C 400.036 223.26 401.161 225.051 401.163 234.101 C 401.166 258.197 364.511 267.663 350.939 247.077 C 345.495 238.821 345.752 234.387 351.774 232.68 C 354.934 231.785 356.721 229.339 356.723 225.903 C 356.726 220.036 354.389 219.081 349.893 223.116 C 345.634 226.938 329.615 222.05 321.651 214.505 C 315.589 208.761 313.391 200.859 314.393 188.412 C 314.593 185.955 318.111 180.299 322.211 175.848 C 329.072 168.395 330.144 167.977 335.657 170.541 C 343.823 174.342 362.607 172.04 363.666 167.117 C 364.313 164.112 362.411 163.478 353.16 163.607 C 343.441 163.743 340.867 162.772 334.758 156.64 C 325.857 147.711 324.306 138.833 329.744 127.954 C 338.084 111.278 357.285 105.256 372.061 114.687 C 378.931 119.072 379.737 119.152 383.534 115.757 C 387.33 112.361 387.1 111.739 380.239 106.841 C 374.03 102.407 372.838 99.965 372.709 91.388 C 372.504 77.956 380.699 69.098 396.76 65.391 C 405.973 63.266 410.274 63.315 418.097 65.633 C 427.755 68.757 427.681 69.851 428.759 81.494 C 429.885 93.668 438.17 103.914 445.633 103.515 C 451.995 103.115 451.678 96.072 445.476 90.41 C 439.893 85.306 439.281 81.089 440.995 69.562 C 441.79 64.173 454.211 53.537 462.6 51.053 C 473.941 47.695 486.274 49.895 495.612 56.938 C 502.022 61.775 503.079 64.089 503.071 73.209 C 503.064 80.861 504.151 84.215 506.956 85.181 C 512.718 87.162 512.914 87.014 512.907 80.908 C 512.899 69.952 524.038 60.884 538.822 59.804 C 549.953 58.987 554.854 60.228 562.077 65.678 C 568.581 70.586 569.663 72.901 569.655 81.859 C 569.648 90.534 568.407 93.37 562.383 98.534 C 556.693 103.409 553.707 104.437 548.591 103.286 C 542.83 101.989 542.148 102.413 542.849 106.878 C 544.519 117.474 571.418 111.832 577.445 99.617 C 581.086 92.224 589.047 90.338 603.305 93.489 C 616.704 96.451 623.492 103.209 625.283 115.373 C 626.535 123.888 625.819 126.166 619.979 132.395 C 615.266 137.42 611.106 139.586 606.17 139.584 C 601.615 139.582 599.102 140.731 599.094 142.821 C 599.087 147.638 608.242 151.135 616.559 149.496 C 622.673 148.288 625.061 149.205 631.212 155.111 C 637.267 160.924 638.558 164.052 638.551 172.849 C 638.543 182.232 626.478 187.892 619.843 192.118 C 615.071 195.161 605.416 194.627 601.506 193.958 C 597.453 193.264 584.824 187.879 562.59 174.598 C 560.86 178.36 559.099 179.219 556.039 182.716 C 568.751 193.713 590.199 209.209 619.82 204.797 C 630.72 200.391 650.513 184.002 650.495 171.668 C 650.481 163.134 645.96 149.716 637.003 143.405 C 631.51 139.536 631.326 138.839 634.745 134.455 C 639.52 128.338 639.517 110.189 634.735 101.912 C 627.381 89.183 604.763 78.29 590.611 80.666 C 582.385 82.045 582.204 81.911 580.616 73.049 C 576.631 50.773 540.921 38.789 520.786 52.974 C 512.204 59.014 511.075 58.861 507.512 51.167 C 503.726 42.991 485.201 35.479 468.818 35.477 C 457.934 35.475 456.188 36.297 444.899 46.782 C 444.891 46.781 444.884 46.779 444.876 46.777"
            fill="#03aa39"
            stroke-width="1"/>
    </g>
    <g id="eis">
        <path
            id="path_4"
            d="M 1034.43 266.73 C 1012.52 273.728 995.193 296.541 995.193 318.39 C 995.193 331.326 1004.56 352.922 1013.21 359.939 C 1027.92 371.865 1062.06 375.243 1080.9 366.634 C 1091.77 361.663 1103.27 350.6 1101.77 346.557 C 1100.6 343.427 1078.36 337.59 1078.36 340.412 C 1078.36 341.614 1074.44 344.742 1069.64 347.362 C 1052.83 356.547 1034.81 351.975 1027.11 336.566 L 1022.27 326.902 L 1066.41 326.244 L 1110.55 325.585 L 1110.55 318.2 C 1110.55 314.138 1108.72 305.161 1106.48 298.25 C 1097.71 271.225 1065.07 256.944 1034.43 266.73 Z M 1199.97 267.857 C 1186.84 273.197 1180.36 281.053 1178.43 293.966 C 1175.83 311.296 1188.82 323.058 1215.18 327.26 C 1241.62 331.477 1250.34 337.669 1243.01 347.037 C 1239.76 351.196 1236.27 352.143 1224.18 352.143 C 1211.19 352.143 1208.49 351.278 1202.58 345.251 C 1196.32 338.852 1195.09 338.53 1185.39 340.737 C 1173.68 343.4 1173.01 344.859 1179.45 353.677 C 1188.16 365.581 1202.42 371.375 1223 371.375 C 1233.27 371.375 1245.06 370.233 1249.21 368.836 C 1259.89 365.247 1269.14 355.59 1271.75 345.311 C 1276.44 326.859 1259.14 311.666 1227.8 306.721 C 1210.41 303.976 1204.45 300.866 1204.45 294.529 C 1204.45 282.363 1226.93 278.312 1238.23 288.44 C 1245.5 294.952 1251.13 295.793 1262.2 292.022 L 1269.33 289.594 L 1263.86 281.805 C 1252.12 265.103 1222.59 258.655 1199.97 267.857 Z M 1131.44 283.021 C 1130.81 284.68 1130.5 295.772 1130.75 307.671 C 1131.01 319.57 1131.39 338.229 1131.62 349.138 L 1132.02 368.971 L 1158.96 368.971 L 1158.24 325.099 L 1157.5 281.228 L 1145.05 280.617 C 1136.95 280.218 1132.2 281.057 1131.44 283.021 Z M 1036.78 289.12 C 1031.51 293.166 1022.02 305.048 1022.02 307.587 C 1022.02 308.294 1035.9 308.873 1052.87 308.873 C 1070.64 308.873 1083.73 307.902 1083.73 306.582 C 1083.73 300.786 1076.63 291.368 1069.92 288.259 C 1059.94 283.632 1043.35 284.062 1036.78 289.12 Z"
            fill="#03aa39"
            fill-opacity="0"
            stroke-width="1"
            fill-rule="evenodd"/>
        <path
            id="path_5"
            d="M 1139.1 -260 C 1134.831 -260 1130.733 -258.476 1127.714 -255.767 C 1124.696 -253.057 1122.998 -249.378 1122.998 -245.546 C 1122.998 -241.714 1124.696 -238.035 1127.714 -235.3"
            fill="#099c41"
            stroke-width="1"/>
    </g>
    <g id="ick">
        <path
            id="path_6"
            d="M 780.569 295.651 L 780.569 368.971 L 810.08 368.971 L 810.08 353.879 C 810.08 339.008 811.744 335.814 822.638 329.78 C 824.326 328.847 830.51 334.027 837.166 341.951 C 843.543 349.54 850.923 357.845 853.566 360.41 C 856.208 362.973 858.371 365.947 858.371 367.021 C 858.371 368.093 866.827 368.971 877.161 368.971 L 895.951 368.971 L 871.795 342.145 C 858.51 327.393 847.639 314.267 847.639 312.979 C 847.639 311.693 849.753 308.887 852.334 306.748 C 863.886 297.171 890.194 268.478 888.673 267.112 C 887.745 266.283 880.957 265.603 873.59 265.603 L 860.192 265.603 L 835.226 289.041 L 810.263 312.479 L 810.171 267.406 L 810.08 222.332 L 780.569 222.332 L 780.569 295.651 Z M 699.777 264.244 C 698.87 265.074 695.321 266.237 691.889 266.831 C 675.68 269.627 656.189 291.673 652.187 311.734 C 649.576 324.813 657.067 346.564 667.406 355.932 C 683.28 370.312 714.484 375.783 735.587 367.882 C 751.92 361.766 769.1 339.225 757.728 338.83 C 756.274 338.78 751.617 337.915 747.38 336.907 C 741.234 335.448 738.903 336.071 735.842 339.987 C 728.051 349.951 711.549 354.155 700.085 349.095 C 685.896 342.831 681.274 335.148 681.4 318.046 C 681.51 303.428 685.276 295.981 695.643 289.887 C 706.025 283.786 725.83 286.651 733.599 295.38 C 739.05 301.505 739.646 301.62 749.704 298.5 C 755.448 296.719 760.51 294.267 760.958 293.053 C 762.839 287.933 750.737 275.509 738.849 270.35 C 726.339 264.925 703.018 261.278 699.777 264.244 Z M 602.801 282.365 C 601.81 283.114 601 302.914 601 326.365 L 601 369 L 628 369 L 628 281 L 616.301 281 C 609.864 281 603.789 281.614 602.801 282.365 Z"
            fill="#03aa39"
            fill-opacity="0"
            stroke-width="1"
            fill-rule="evenodd"/>
        <path
            id="path_7"
            d="M 614 239 C 609.758 239 605.686 240.529 602.686 243.247 C 599.687 245.965 598 249.656 598 253.5 C 598 257.344 599.687 261.035 602.686 263.753 C 605.686 266.471 609.758 268 614 268 C 618.242 268 622.314 266.471 625.314 263.753 C 628.313 261.035 630 257.344 630 253.5 C 630 249.656 628.313 245.965 625.314 243.247 C 622.314 240.529 618.242 239 614 239 Z"
            fill="#099c41"
            fill-opacity="0"
            stroke-width="1"/>
    </g>
    <path
        id="r2"
        d="M 657.015 267.761 C 652.988 270.076 647.432 274.305 644.671 277.156 C 638.804 283.218 636.172 281.819 636.172 272.641 C 636.172 266.297 635.761 266.107 624.77 267.365 C 618.5 268.081 613.279 268.79 613.172 268.939 C 613.065 269.086 613.505 291.654 614.151 319.09 L 615.326 368.971 L 641.537 368.971 L 641.548 338.321 C 641.556 312.171 642.326 306.541 646.79 299.981 C 652.282 291.909 668.98 285.755 677.468 288.673 C 681.111 289.928 681.779 288.069 681.779 276.677 L 683 263.374 L 673.06 263.374 C 668.263 263.47 661.044 265.444 657.015 267.761 Z"
        fill="#03aa39"
        stroke-width="1"
        fill-rule="evenodd"/>
    <path
        id="r1"
        d="M 548.507 265.997 C 545.556 267.456 539.82 271.413 535.764 274.788 L 528.386 280.925 L 528.386 273.264 C 528.386 266.401 527.571 265.603 520.558 265.603 C 503.678 265.603 504.241 263.766 504.241 318.746 L 504.241 368.971 L 531.069 368.971 L 531.109 338.321 C 531.133 318.77 532.349 305.587 534.463 301.918 C 539.021 294.002 554.758 286.716 563.933 288.271 C 571.252 289.512 571.311 289.418 571.311 276.36 L 571.311 263.199 L 562.592 263.271 C 557.798 263.312 551.458 264.538 548.507 265.997 Z"
        fill="#03aa39"
        stroke-width="1"
        fill-rule="evenodd"/>
</svg>
