<svg
    xmlns="http://www.w3.org/2000/svg"
    viewBox="0 0 1580 390"
    id="vector"
    width="1580px"
    height="390px">
    <g id="cachos">
        <path
            id="path_1"
            d="M 611 193.673 L 624 199 L 624 237 C 620.8 233.8 614.46 234.667 611.689 235.5 C 613.077 219.974 612.906 205.571 611 193.673 Z M 392 263.463 L 408.571 263.463 C 414.847 291.476 447.15 351.208 501.5 355.5 L 501.5 369 C 438.848 366.413 402.502 299.703 392 263.463 Z"
            fill="#057e2c"
            fill-opacity="0.08510548160555147"
            stroke-width="1"/>
        <path
            id="path_2"
            d="M 584.743 177.86 C 588.064 174.062 589.974 173.128 591.851 169.042 C 584.728 167.872 579.967 168.04 577.604 170.648 C 576.819 172.64 579.508 173.331 584.743 177.86 Z"
            fill="#03aa39"
            fill-opacity="0"
            stroke-width="1"/>
        <path
            id="path_3"
            d="M 240.337 220.749 C 239.273 221.638 238.975 221.727 238.462 221.523 C 237.157 220.979 236.385 220.877 235.2 221.107 C 233.256 221.509 231.902 222.837 231.58 224.624 C 231.443 224.985 231.153 225.123 230.455 225.236 C 229.162 225.517 228.303 226.005 227.736 226.78 C 226.998 227.789 225.111 237.554 225.612 240.495 C 225.75 240.867 225.89 241.24 226.03 241.613 C 225.797 241.862 225.565 242.112 225.334 242.362 C 224.863 242.837 224.55 243.38 224.387 243.943 C 224.223 244.507 224.208 245.091 224.33 245.649 C 224.453 246.207 224.713 246.739 225.101 247.198 C 225.49 247.656 226.006 248.042 226.639 248.308 C 227.179 248.538 227.425 248.82 227.555 249.341 C 227.866 250.614 228.325 251.147 229.632 251.726 C 230.523 252.13 232.435 252.099 232.876 252.035 C 232.565 251.609 232.965 251.913 233.539 251.514 C 234.845 250.551 235.241 248.72 234.433 247.46 C 234.308 247.269 234.183 247.077 234.058 246.886 C 234.285 246.841 234.512 246.797 234.739 246.751 C 235.102 246.657 235.722 246.266 236.134 245.909 C 236.391 245.705 236.649 245.502 236.907 245.298 C 237.156 245.482 237.405 245.666 237.654 245.849 C 238.5 246.429 239.888 246.764 240.861 246.644 C 241.269 246.615 242.003 246.321 242.513 246.016 C 243.022 245.712 243.51 245.555 243.616 245.696 C 244.077 246.297 245.664 246.755 246.58 246.791 C 247.358 246.827 248.147 246.079 248.742 245.466 C 248.324 245.117 248.122 245.094 248.216 244.961 C 248.446 244.776 248.879 244.798 249.514 244.934 C 249.796 244.42 249.963 243.928 249.769 243.648 C 249.478 243.231 248.923 243.31 248.87 243.863 C 248.735 244.945 246.734 246.813 245.423 246.119 C 244.712 245.753 244.73 245.759 244.906 244.752 C 245.11 243.532 244.895 242.888 243.984 242.042 C 243.499 241.598 243.098 241.45 242.344 241.41 C 241.192 241.33 240.246 241.722 240.278 242.307 C 240.31 242.639 240.507 242.721 241.37 242.677 C 242.96 242.56 244.321 243.648 244.354 245.072 C 244.387 245.807 243.43 246.842 242.483 247.173 C 242.02 247.361 241.601 247.443 241.169 247.411 C 240.738 247.379 240.295 247.234 239.785 246.965 C 239.082 246.586 239.025 246.483 239.05 245.732 C 239.073 244.822 238.514 243.907 237.722 243.555 C 236.931 243.204 236.085 243.217 235.723 243.613 C 235.295 244.071 235.508 244.409 236.256 244.453 C 236.997 244.497 237.921 245.286 238.261 246.178 C 238.941 248.011 236.455 249.785 234.545 248.929 C 233.884 248.653 233.89 248.701 233.923 249.15 C 233.955 249.435 234.525 250.127 235.275 250.796 C 236.459 251.84 236.594 252.052 236.626 252.934 C 236.657 255.207 233.301 256.128 232.077 254.271 C 231.605 253.555 231.658 253.192 232.246 253.08 C 232.569 253.044 232.764 252.865 232.794 252.595 C 232.824 252.1 232.637 252.059 232.252 252.48 C 231.887 252.88 230.436 252.476 229.729 251.827 C 229.196 251.344 229.022 250.662 229.143 249.56 C 229.19 249.382 229.542 248.908 229.948 248.545 C 230.61 247.906 230.736 247.916 231.273 248.202 C 232.054 248.603 233.816 248.439 233.94 248.034 C 234.026 247.806 233.875 247.798 233.045 247.86 C 232.172 247.923 231.958 247.884 231.417 247.368 C 230.619 246.594 230.499 245.824 231.025 244.87 C 231.818 243.38 233.616 242.875 235.004 243.798 C 235.661 244.255 235.757 244.314 236.129 244.053 C 236.501 243.791 236.499 243.786 235.885 243.386 C 235.331 243.029 235.241 242.856 235.247 242.117 C 235.247 240.928 236.023 240.163 237.525 239.873 C 238.393 239.731 238.808 239.789 239.548 240.057 C 241.449 243.698 237.711 252.408 237.81 253.484 C 237.914 254.61 247.36 249.45 249.112 244.837 C 250.761 240.224 246.219 234.871 245.646 233.188 C 245.13 231.557 248.111 225.862 248.269 224.797 C 248.257 224.279 249.318 223.275 250.008 223.025 C 250.969 222.695 252.022 222.878 252.799 223.508 C 253.306 223.935 253.317 224.129 253.23 224.951 C 253.142 225.639 253.157 225.929 253.33 225.998 C 253.776 226.16 253.708 226.127 253.621 225.542 C 253.533 224.51 254.476 223.651 255.757 223.531 C 256.699 223.435 257.066 223.529 257.647 224.013 C 258.162 224.447 258.175 224.641 258.088 225.448 C 258.001 226.23 257.801 226.472 257.157 226.929 C 256.545 227.359 256.182 227.434 255.623 227.307 C 255.004 227.167 254.855 227.186 254.834 227.579 C 254.902 228.538 257.301 227.996 257.772 226.847 C 258.022 226.144 258.672 225.948 259.903 226.22 C 261.056 226.473 261.597 227.078 261.675 228.181 C 261.705 228.949 261.552 229.139 260.926 229.694 C 260.404 230.138 259.934 230.319 259.39 230.299 C 258.883 230.278 258.565 230.364 258.478 230.537 C 258.391 230.962 259.151 231.265 259.833 231.093 C 260.311 230.961 260.446 231.025 260.928 231.551 C 261.401 232.069 261.435 232.338 261.348 233.13 C 261.26 233.977 260.059 234.48 259.359 234.85 C 258.896 235.126 257.983 235.072 257.6 235.005 C 257.203 234.936 256.014 234.433 253.938 233.201 C 253.757 233.543 253.572 233.618 253.268 233.937 C 254.422 234.948 256.382 236.375 259.098 235.962 C 260.062 235.545 261.848 234.019 261.804 232.869 C 261.759 232.07 261.298 230.82 260.427 230.227 C 259.833 229.849 259.73 229.764 259.96 229.339 C 260.315 228.754 260.227 227.055 259.699 226.27 C 258.933 225.074 256.756 224.047 255.362 224.246 C 254.516 224.353 254.412 224.321 254.179 223.482 C 253.724 221.403 250.337 220.274 248.39 221.565 C 247.511 222.103 247.319 222.069 246.904 221.338 C 246.467 220.562 244.669 219.847 243.069 219.827 C 241.976 219.807 241.729 219.862 240.598 220.811 C 240.511 220.791 240.424 220.771 240.337 220.749"
            fill="#03aa39"
            stroke-width="1"/>
    </g>
    <g id="eis">
        <path
            id="path_4"
            d="M 1034.43 266.73 C 1012.52 273.728 995.193 296.541 995.193 318.39 C 995.193 331.326 1004.56 352.922 1013.21 359.939 C 1027.92 371.865 1062.06 375.243 1080.9 366.634 C 1091.77 361.663 1103.27 350.6 1101.77 346.557 C 1100.6 343.427 1078.36 337.59 1078.36 340.412 C 1078.36 341.614 1074.44 344.742 1069.64 347.362 C 1052.83 356.547 1034.81 351.975 1027.11 336.566 L 1022.27 326.902 L 1066.41 326.244 L 1110.55 325.585 L 1110.55 318.2 C 1110.55 314.138 1108.72 305.161 1106.48 298.25 C 1097.71 271.225 1065.07 256.944 1034.43 266.73 Z M 1199.97 267.857 C 1186.84 273.197 1180.36 281.053 1178.43 293.966 C 1175.83 311.296 1188.82 323.058 1215.18 327.26 C 1241.62 331.477 1250.34 337.669 1243.01 347.037 C 1239.76 351.196 1236.27 352.143 1224.18 352.143 C 1211.19 352.143 1208.49 351.278 1202.58 345.251 C 1196.32 338.852 1195.09 338.53 1185.39 340.737 C 1173.68 343.4 1173.01 344.859 1179.45 353.677 C 1188.16 365.581 1202.42 371.375 1223 371.375 C 1233.27 371.375 1245.06 370.233 1249.21 368.836 C 1259.89 365.247 1269.14 355.59 1271.75 345.311 C 1276.44 326.859 1259.14 311.666 1227.8 306.721 C 1210.41 303.976 1204.45 300.866 1204.45 294.529 C 1204.45 282.363 1226.93 278.312 1238.23 288.44 C 1245.5 294.952 1251.13 295.793 1262.2 292.022 L 1269.33 289.594 L 1263.86 281.805 C 1252.12 265.103 1222.59 258.655 1199.97 267.857 Z M 1131.44 283.021 C 1130.81 284.68 1130.5 295.772 1130.75 307.671 C 1131.01 319.57 1131.39 338.229 1131.62 349.138 L 1132.02 368.971 L 1158.96 368.971 L 1158.24 325.099 L 1157.5 281.228 L 1145.05 280.617 C 1136.95 280.218 1132.2 281.057 1131.44 283.021 Z M 1036.78 289.12 C 1031.51 293.166 1022.02 305.048 1022.02 307.587 C 1022.02 308.294 1035.9 308.873 1052.87 308.873 C 1070.64 308.873 1083.73 307.902 1083.73 306.582 C 1083.73 300.786 1076.63 291.368 1069.92 288.259 C 1059.94 283.632 1043.35 284.062 1036.78 289.12 Z"
            fill="#03aa39"
            fill-opacity="0"
            stroke-width="1"
            fill-rule="evenodd"/>
        <path
            id="path_5"
            d="M 1139.1 -260 C 1134.831 -260 1130.733 -258.476 1127.714 -255.767 C 1124.696 -253.057 1122.998 -249.378 1122.998 -245.546 C 1122.998 -241.714 1124.696 -238.035 1127.714 -235.3"
            fill="#099c41"
            stroke-width="1"/>
    </g>
    <g id="ick">
        <path
            id="path_6"
            d="M 780.569 295.651 L 780.569 368.971 L 810.08 368.971 L 810.08 353.879 C 810.08 339.008 811.744 335.814 822.638 329.78 C 824.326 328.847 830.51 334.027 837.166 341.951 C 843.543 349.54 850.923 357.845 853.566 360.41 C 856.208 362.973 858.371 365.947 858.371 367.021 C 858.371 368.093 866.827 368.971 877.161 368.971 L 895.951 368.971 L 871.795 342.145 C 858.51 327.393 847.639 314.267 847.639 312.979 C 847.639 311.693 849.753 308.887 852.334 306.748 C 863.886 297.171 890.194 268.478 888.673 267.112 C 887.745 266.283 880.957 265.603 873.59 265.603 L 860.192 265.603 L 835.226 289.041 L 810.263 312.479 L 810.171 267.406 L 810.08 222.332 L 780.569 222.332 L 780.569 295.651 Z M 699.777 264.244 C 698.87 265.074 695.321 266.237 691.889 266.831 C 675.68 269.627 656.189 291.673 652.187 311.734 C 649.576 324.813 657.067 346.564 667.406 355.932 C 683.28 370.312 714.484 375.783 735.587 367.882 C 751.92 361.766 769.1 339.225 757.728 338.83 C 756.274 338.78 751.617 337.915 747.38 336.907 C 741.234 335.448 738.903 336.071 735.842 339.987 C 728.051 349.951 711.549 354.155 700.085 349.095 C 685.896 342.831 681.274 335.148 681.4 318.046 C 681.51 303.428 685.276 295.981 695.643 289.887 C 706.025 283.786 725.83 286.651 733.599 295.38 C 739.05 301.505 739.646 301.62 749.704 298.5 C 755.448 296.719 760.51 294.267 760.958 293.053 C 762.839 287.933 750.737 275.509 738.849 270.35 C 726.339 264.925 703.018 261.278 699.777 264.244 Z M 602.801 282.365 C 601.81 283.114 601 302.914 601 326.365 L 601 369 L 628 369 L 628 281 L 616.301 281 C 609.864 281 603.789 281.614 602.801 282.365 Z"
            fill="#03aa39"
            fill-opacity="0"
            stroke-width="1"
            fill-rule="evenodd"/>
        <path
            id="path_7"
            d="M 614 239 C 609.758 239 605.686 240.529 602.686 243.247 C 599.687 245.965 598 249.656 598 253.5 C 598 257.344 599.687 261.035 602.686 263.753 C 605.686 266.471 609.758 268 614 268 C 618.242 268 622.314 266.471 625.314 263.753 C 628.313 261.035 630 257.344 630 253.5 C 630 249.656 628.313 245.965 625.314 243.247 C 622.314 240.529 618.242 239 614 239 Z"
            fill="#099c41"
            fill-opacity="0"
            stroke-width="1"/>
    </g>
    <path
        id="r2"
        d="M 657.015 267.761 C 652.988 270.076 647.432 274.305 644.671 277.156 C 638.804 283.218 636.172 281.819 636.172 272.641 C 636.172 266.297 635.761 266.107 624.77 267.365 C 618.5 268.081 613.279 268.79 613.172 268.939 C 613.065 269.086 613.505 291.654 614.151 319.09 L 615.326 368.971 L 641.537 368.971 L 641.548 338.321 C 641.556 312.171 642.326 306.541 646.79 299.981 C 652.282 291.909 668.98 285.755 677.468 288.673 C 681.111 289.928 681.779 288.069 681.779 276.677 L 683 263.374 L 673.06 263.374 C 668.263 263.47 661.044 265.444 657.015 267.761 Z"
        fill="#03aa39"
        fill-opacity="0.9355350286417266"
        stroke-width="1"
        fill-rule="evenodd"/>
    <path
        id="r1"
        d="M 548.507 265.997 C 545.556 267.456 539.82 271.413 535.764 274.788 L 528.386 280.925 L 528.386 273.264 C 528.386 266.401 527.571 265.603 520.558 265.603 C 503.678 265.603 504.241 263.766 504.241 318.746 L 504.241 368.971 L 531.069 368.971 L 531.109 338.321 C 531.133 318.77 532.349 305.587 534.463 301.918 C 539.021 294.002 554.758 286.716 563.933 288.271 C 571.252 289.512 571.311 289.418 571.311 276.36 L 571.311 263.199 L 562.592 263.271 C 557.798 263.312 551.458 264.538 548.507 265.997 Z"
        fill="#03aa39"
        fill-opacity="0.9355350286417266"
        stroke-width="1"
        fill-rule="evenodd"/>
</svg>
