<svg
    xmlns="http://www.w3.org/2000/svg"
    viewBox="0 0 1580 390"
    id="vector"
    width="1580px"
    height="390px">
    <g id="cachos">
        <path
            id="path_1"
            d="M 611 193.673 L 624 199 L 624 237 C 620.8 233.8 614.46 234.667 611.689 235.5 C 613.077 219.974 612.906 205.571 611 193.673 Z M 392 263.463 L 408.571 263.463 C 414.847 291.476 447.15 351.208 501.5 355.5 L 501.5 369 C 438.848 366.413 402.502 299.703 392 263.463 Z"
            fill="#057e2c"
            fill-opacity="0.9833586356589219"
            stroke-width="1"/>
        <path
            id="path_2"
            d="M 584.743 177.86 C 588.064 174.062 589.974 173.128 591.851 169.042 C 584.728 167.872 579.967 168.04 577.604 170.648 C 576.819 172.64 579.508 173.331 584.743 177.86 Z"
            fill="#03aa39"
            fill-opacity="0.21880437753743517"
            stroke-width="1"/>
        <path
            id="path_3"
            d="M 460.194 33.748 C 448.9 44.243 446.453 45.511 441.545 43.399 C 427.461 37.337 419.548 36.399 406.857 39.287 C 385.401 44.166 370.774 59.75 368.05 80.624 C 367.473 85.037 365.126 86.863 358.06 88.402 C 343.12 91.652 333.198 97.288 326.647 106.242 C 318.118 117.902 316.817 130.161 322.607 144.625 C 324.208 148.614 325.808 152.604 327.409 156.593 C 324.694 159.155 321.979 161.717 319.265 164.28 C 313.788 169.45 310.132 175.397 308.179 181.579 C 306.226 187.762 305.977 194.18 307.312 200.294 C 308.648 206.407 311.569 212.215 315.957 217.177 C 320.345 222.139 326.2 226.255 333.404 228.984 C 339.525 231.303 342.253 234.217 343.615 239.883 C 347.066 254.242 352.239 260.058 367.185 266.396 C 377.342 270.701 399.27 270.004 404.199 268.896 C 400.432 263.622 404.89 266.772 411.346 261.799 C 426.247 250.313 430.626 228.798 421.106 213.87 C 419.457 211.287 417.809 208.704 416.16 206.12 C 418.565 205.231 420.969 204.341 423.373 203.451 C 427.34 201.984 434.277 197.086 438.792 192.572 C 441.529 189.835 444.265 187.099 447.001 184.362 C 449.62 186.097 452.239 187.832 454.858 189.567 C 464.372 195.869 480.146 199.347 491.105 197.56 C 495.545 196.835 503.762 193.037 509.36 189.121 C 514.959 185.202 520.301 182.988 521.233 184.201 C 526.264 190.75 544.31 195.634 554.586 195.635 C 563.271 195.635 572.082 186.578 578.631 179.09 C 573.484 174.637 570.84 173.958 571.613 172 C 573.937 169.436 578.619 169.271 585.624 170.422 C 588.556 164.042 590.15 157.941 587.569 154.275 C 583.868 149.02 577.102 149.506 576.161 155.459 C 574.248 167.52 550.78 188.673 535.287 180.208 C 526.721 175.529 526.572 175.163 528.239 163.082 C 530.247 148.545 527.412 140.647 516.512 130.427 C 510.552 124.841 505.56 122.683 496.474 121.765 C 482.793 120.385 471.5 124.45 471.5 130.757 C 471.501 134.126 473.409 134.605 483.007 133.636 C 500.995 131.819 516.352 143.916 516.353 159.904 C 516.353 167.93 504.93 179.407 493.608 182.755 C 487.882 184.45 482.653 184.924 477.289 184.078 C 471.924 183.232 466.423 181.065 460.152 177.479 C 451.65 172.612 450.616 170.928 450.516 161.757 C 450.399 150.749 443.555 139.696 434.032 135.13 C 424.51 130.563 414.353 130.216 409.792 134.302 C 404.464 139.08 406.548 142.487 414.804 142.488 C 422.991 142.489 433.289 151.092 436.84 160.901 C 444.325 181.562 415.213 201.536 392.774 191.138 C 384.757 187.422 384.462 187.459 384.463 192.13 C 384.464 194.897 390.685 202.371 398.974 209.567 C 412.287 221.12 413.485 223.029 413.485 232.691 C 413.486 258.42 374.337 268.527 359.841 246.538 C 354.024 237.717 354.296 232.978 360.726 231.152 C 364.098 230.193 366.004 227.577 366.004 223.905 C 366.005 217.635 363.506 216.612 358.703 220.917 C 354.153 224.996 337.043 219.772 328.535 211.71 C 322.059 205.572 319.709 197.129 320.777 183.833 C 320.989 181.205 324.744 175.161 329.121 170.404 C 336.445 162.44 337.588 161.99 343.474 164.726 C 352.193 168.781 372.252 166.318 373.382 161.057 C 374.07 157.844 372.037 157.163 362.155 157.297 C 351.774 157.439 349.023 156.398 342.497 149.846 C 332.989 140.306 331.331 130.821 337.137 119.198 C 346.042 101.385 366.546 94.95 382.325 105.018 C 389.66 109.697 390.52 109.778 394.573 106.149 C 398.625 102.518 398.378 101.851 391.049 96.615 C 384.417 91.876 383.143 89.264 383.004 80.1 C 382.783 65.751 391.534 56.288 408.685 52.324 C 418.523 50.051 423.115 50.099 431.468 52.57 C 441.707 55.656 441.908 56.179 443.058 68.614 C 444.261 81.615 452.459 93.015 460.351 92.931 C 467.066 92.847 467.065 85.677 460.441 79.717 C 454.479 74.353 453.597 70.247 455.428 57.936 C 456.284 52.182 469.555 40.825 478.52 38.175 C 490.639 34.589 503.817 36.941 513.796 44.464 C 520.648 49.631 521.783 52.104 521.782 61.845 C 521.78 70.019 522.948 73.602 525.95 74.635 C 532.109 76.753 532.326 76.596 532.325 70.076 C 532.323 58.377 544.225 48.694 560.021 47.542 C 571.914 46.672 577.155 47.998 584.876 53.82 C 591.828 59.063 592.99 61.538 592.989 71.105 C 592.987 80.372 591.669 83.403 585.241 88.919 C 579.171 94.126 575.988 95.225 570.531 93.998 C 564.385 92.615 563.663 93.069 564.419 97.839 C 566.209 109.157 594.942 103.132 601.385 90.089 C 605.28 82.195 613.789 80.183 629.023 83.549 C 643.339 86.713 650.594 93.933 652.513 106.924 C 653.857 116.02 653.099 118.455 646.868 125.109 C 641.841 130.476 637.405 132.791 632.14 132.79 C 627.282 132.79 624.605 134.019 624.603 136.252 C 624.601 141.398 634.385 145.135 643.274 143.385 C 649.81 142.096 652.367 143.077 658.942 149.386 C 665.415 155.596 666.801 158.938 666.799 168.334 C 666.798 178.356 653.919 184.403 646.839 188.918 C 641.745 192.168 631.435 191.598 627.261 190.884 C 622.934 190.143 609.448 184.393 585.705 170.209 C 583.858 174.227 581.98 175.145 578.714 178.88 C 592.291 190.625 615.198 207.175 646.835 202.463 C 658.479 197.758 679.62 180.256 679.604 167.085 C 679.592 157.972 674.767 143.642 665.205 136.903 C 659.345 132.772 659.155 132.03 662.813 127.349 C 667.919 120.818 667.922 101.437 662.822 92.598 C 654.974 79.006 630.825 67.375 615.718 69.913 C 606.939 71.388 606.752 71.246 605.062 61.783 C 600.814 37.995 562.682 25.198 541.186 40.348 C 532.027 46.801 530.828 46.638 527.029 38.423 C 522.992 29.693 503.214 21.671 485.724 21.671 C 474.107 21.671 472.248 22.549 460.199 33.75 C 460.197 33.749 460.195 33.749 460.194 33.748"
            fill="#03aa39"
            stroke-width="1"/>
    </g>
    <g id="eis">
        <path
            id="path_4"
            d="M 1034.43 266.73 C 1012.52 273.728 995.193 296.541 995.193 318.39 C 995.193 331.326 1004.56 352.922 1013.21 359.939 C 1027.92 371.865 1062.06 375.243 1080.9 366.634 C 1091.77 361.663 1103.27 350.6 1101.77 346.557 C 1100.6 343.427 1078.36 337.59 1078.36 340.412 C 1078.36 341.614 1074.44 344.742 1069.64 347.362 C 1052.83 356.547 1034.81 351.975 1027.11 336.566 L 1022.27 326.902 L 1066.41 326.244 L 1110.55 325.585 L 1110.55 318.2 C 1110.55 314.138 1108.72 305.161 1106.48 298.25 C 1097.71 271.225 1065.07 256.944 1034.43 266.73 Z M 1199.97 267.857 C 1186.84 273.197 1180.36 281.053 1178.43 293.966 C 1175.83 311.296 1188.82 323.058 1215.18 327.26 C 1241.62 331.477 1250.34 337.669 1243.01 347.037 C 1239.76 351.196 1236.27 352.143 1224.18 352.143 C 1211.19 352.143 1208.49 351.278 1202.58 345.251 C 1196.32 338.852 1195.09 338.53 1185.39 340.737 C 1173.68 343.4 1173.01 344.859 1179.45 353.677 C 1188.16 365.581 1202.42 371.375 1223 371.375 C 1233.27 371.375 1245.06 370.233 1249.21 368.836 C 1259.89 365.247 1269.14 355.59 1271.75 345.311 C 1276.44 326.859 1259.14 311.666 1227.8 306.721 C 1210.41 303.976 1204.45 300.866 1204.45 294.529 C 1204.45 282.363 1226.93 278.312 1238.23 288.44 C 1245.5 294.952 1251.13 295.793 1262.2 292.022 L 1269.33 289.594 L 1263.86 281.805 C 1252.12 265.103 1222.59 258.655 1199.97 267.857 Z M 1131.44 283.021 C 1130.81 284.68 1130.5 295.772 1130.75 307.671 C 1131.01 319.57 1131.39 338.229 1131.62 349.138 L 1132.02 368.971 L 1158.96 368.971 L 1158.24 325.099 L 1157.5 281.228 L 1145.05 280.617 C 1136.95 280.218 1132.2 281.057 1131.44 283.021 Z M 1036.78 289.12 C 1031.51 293.166 1022.02 305.048 1022.02 307.587 C 1022.02 308.294 1035.9 308.873 1052.87 308.873 C 1070.64 308.873 1083.73 307.902 1083.73 306.582 C 1083.73 300.786 1076.63 291.368 1069.92 288.259 C 1059.94 283.632 1043.35 284.062 1036.78 289.12 Z"
            fill="#03aa39"
            fill-opacity="0"
            stroke-width="1"
            fill-rule="evenodd"/>
        <path
            id="path_5"
            d="M 1139.1 -260 C 1134.831 -260 1130.733 -258.476 1127.714 -255.767 C 1124.696 -253.057 1122.998 -249.378 1122.998 -245.546 C 1122.998 -241.714 1124.696 -238.035 1127.714 -235.3"
            fill="#099c41"
            stroke-width="1"/>
    </g>
    <g id="ick">
        <path
            id="path_6"
            d="M 780.569 295.651 L 780.569 368.971 L 810.08 368.971 L 810.08 353.879 C 810.08 339.008 811.744 335.814 822.638 329.78 C 824.326 328.847 830.51 334.027 837.166 341.951 C 843.543 349.54 850.923 357.845 853.566 360.41 C 856.208 362.973 858.371 365.947 858.371 367.021 C 858.371 368.093 866.827 368.971 877.161 368.971 L 895.951 368.971 L 871.795 342.145 C 858.51 327.393 847.639 314.267 847.639 312.979 C 847.639 311.693 849.753 308.887 852.334 306.748 C 863.886 297.171 890.194 268.478 888.673 267.112 C 887.745 266.283 880.957 265.603 873.59 265.603 L 860.192 265.603 L 835.226 289.041 L 810.263 312.479 L 810.171 267.406 L 810.08 222.332 L 780.569 222.332 L 780.569 295.651 Z M 699.777 264.244 C 698.87 265.074 695.321 266.237 691.889 266.831 C 675.68 269.627 656.189 291.673 652.187 311.734 C 649.576 324.813 657.067 346.564 667.406 355.932 C 683.28 370.312 714.484 375.783 735.587 367.882 C 751.92 361.766 769.1 339.225 757.728 338.83 C 756.274 338.78 751.617 337.915 747.38 336.907 C 741.234 335.448 738.903 336.071 735.842 339.987 C 728.051 349.951 711.549 354.155 700.085 349.095 C 685.896 342.831 681.274 335.148 681.4 318.046 C 681.51 303.428 685.276 295.981 695.643 289.887 C 706.025 283.786 725.83 286.651 733.599 295.38 C 739.05 301.505 739.646 301.62 749.704 298.5 C 755.448 296.719 760.51 294.267 760.958 293.053 C 762.839 287.933 750.737 275.509 738.849 270.35 C 726.339 264.925 703.018 261.278 699.777 264.244 Z M 602.801 282.365 C 601.81 283.114 601 302.914 601 326.365 L 601 369 L 628 369 L 628 281 L 616.301 281 C 609.864 281 603.789 281.614 602.801 282.365 Z"
            fill="#03aa39"
            fill-opacity="0"
            stroke-width="1"
            fill-rule="evenodd"/>
        <path
            id="path_7"
            d="M 614 239 C 609.758 239 605.686 240.529 602.686 243.247 C 599.687 245.965 598 249.656 598 253.5 C 598 257.344 599.687 261.035 602.686 263.753 C 605.686 266.471 609.758 268 614 268 C 618.242 268 622.314 266.471 625.314 263.753 C 628.313 261.035 630 257.344 630 253.5 C 630 249.656 628.313 245.965 625.314 243.247 C 622.314 240.529 618.242 239 614 239 Z"
            fill="#099c41"
            fill-opacity="0"
            stroke-width="1"/>
    </g>
    <path
        id="r2"
        d="M 657.015 267.761 C 652.988 270.076 647.432 274.305 644.671 277.156 C 638.804 283.218 636.172 281.819 636.172 272.641 C 636.172 266.297 635.761 266.107 624.77 267.365 C 618.5 268.081 613.279 268.79 613.172 268.939 C 613.065 269.086 613.505 291.654 614.151 319.09 L 615.326 368.971 L 641.537 368.971 L 641.548 338.321 C 641.556 312.171 642.326 306.541 646.79 299.981 C 652.282 291.909 668.98 285.755 677.468 288.673 C 681.111 289.928 681.779 288.069 681.779 276.677 L 683 263.374 L 673.06 263.374 C 668.263 263.47 661.044 265.444 657.015 267.761 Z"
        fill="#03aa39"
        stroke-width="1"
        fill-rule="evenodd"/>
    <path
        id="r1"
        d="M 548.507 265.997 C 545.556 267.456 539.82 271.413 535.764 274.788 L 528.386 280.925 L 528.386 273.264 C 528.386 266.401 527.571 265.603 520.558 265.603 C 503.678 265.603 504.241 263.766 504.241 318.746 L 504.241 368.971 L 531.069 368.971 L 531.109 338.321 C 531.133 318.77 532.349 305.587 534.463 301.918 C 539.021 294.002 554.758 286.716 563.933 288.271 C 571.252 289.512 571.311 289.418 571.311 276.36 L 571.311 263.199 L 562.592 263.271 C 557.798 263.312 551.458 264.538 548.507 265.997 Z"
        fill="#03aa39"
        stroke-width="1"
        fill-rule="evenodd"/>
</svg>
