<svg
    xmlns="http://www.w3.org/2000/svg"
    viewBox="0 0 1580 390"
    id="logo_rickreis"
    width="1580px"
    height="390px">
    <g id="cachos">
        <path
            id="path"
            d="M 394.747 361.985 C 321.323 372.76 277.473 295.052 266 255.463 L 282.571 255.463 C 289.76 287.551 333.067 360.756 402 345.231 C 405.528 347.541 410.971 351.076 415.211 353.762 C 416.526 354.595 417.726 355.346 418.716 355.953 L 421.5 357.5 C 421.5 357.511 421.49 357.516 421.469 357.513 C 413.726 360.801 404.005 360.627 394.747 361.985 Z M 498 185.673 L 498 235.873 C 497.211 240.571 497.929 247.662 496.5 253.5 C 485.793 253 483.256 255.602 480.707 260.5 C 486.501 232.854 485.913 202.037 482.703 182 L 498 185.673 Z"
            fill="#057e2c"
            fill-opacity="0"
            stroke-width="1"/>
        <path
            id="path_1"
            d="M 458.743 169.86 C 462.064 166.062 463.974 165.128 465.851 161.042 C 458.728 159.872 453.967 160.04 451.604 162.648 C 450.819 164.64 453.508 165.331 458.743 169.86 Z"
            fill="#03aa39"
            fill-opacity="0"
            stroke-width="1"/>
        <path
            id="path_2"
            d="M 311.613 70.804 C 311.634 70.809 311.655 70.814 311.677 70.819 C 321.2 61.99 322.687 61.302 331.869 61.307 C 345.683 61.312 361.301 67.643 364.506 74.533 C 367.521 81.017 368.488 81.15 375.731 76.066 C 392.705 64.122 422.799 74.219 426.17 92.985 C 427.523 100.453 427.69 100.57 434.634 99.411 C 446.569 97.414 465.635 106.592 471.845 117.317 C 475.887 124.293 475.905 139.583 471.898 144.739 C 469.033 148.435 469.203 149.025 473.845 152.288 C 481.396 157.605 485.212 168.909 485.231 176.099 C 485.254 186.489 468.59 200.295 459.417 204.008 C 434.471 207.725 416.409 194.674 405.706 185.412 C 408.287 182.468 409.774 181.744 411.235 178.577 C 429.966 189.765 440.607 194.301 444.024 194.887 C 447.322 195.451 455.458 195.901 459.481 193.339 C 465.085 189.783 475.262 185.019 475.284 177.119 C 475.305 169.713 474.232 167.082 469.147 162.189 C 463.981 157.218 461.985 156.449 456.85 157.47 C 449.86 158.855 442.163 155.913 442.185 151.859 C 442.206 150.102 444.338 149.138 448.19 149.143 C 452.362 149.148 455.881 147.327 459.865 143.098 C 464.8 137.855 465.418 135.94 464.378 128.771 C 462.885 118.529 457.183 112.84 445.912 110.349 C 433.917 107.699 427.226 109.291 424.175 115.521 C 419.113 125.814 396.472 130.569 395.08 121.648 C 394.504 117.89 395.094 117.537 399.961 118.632 C 404.285 119.605 406.816 118.743 411.623 114.641 C 416.713 110.295 417.772 107.91 417.794 100.606 C 417.815 93.065 416.919 91.117 411.456 86.987 C 405.386 82.4 401.273 81.359 391.913 82.05 C 379.475 82.963 370.108 90.605 370.13 99.836 C 370.151 104.983 370 105.112 365.163 103.446 C 362.815 102.636 361.914 99.815 361.936 93.373 C 361.957 85.695 361.082 83.749 355.697 79.679 C 347.848 73.75 337.474 71.9 327.937 74.733 C 320.886 76.828 310.439 85.79 309.784 90.332 C 308.34 100.042 308.328 104.516 313.03 109.016 C 318.255 113.986 319.306 120.736 313.763 121.868 C 307.292 122.999 298.805 115.43 297.857 105.176 C 296.949 95.369 297.659 92.952 289.35 89.738 C 282.758 87.777 279.132 87.726 271.369 89.506 C 257.838 92.62 250.932 100.071 251.102 111.375 C 251.207 118.59 252.208 120.639 257.434 124.364 C 263.209 128.481 263.4 128.995 260.198 131.846 C 256.997 134.697 256.314 134.62 250.524 130.918 C 238.074 122.965 221.897 128.029 214.869 142.066 C 210.284 151.22 211.587 158.69 219.08 166.202 C 224.221 171.357 226.385 172.167 234.567 172.043 C 242.355 171.926 243.952 172.451 243.403 174.974 C 242.506 179.111 226.68 181.042 219.797 177.832 C 215.149 175.663 214.241 176.007 208.458 182.276 C 205 186.017 202.032 190.772 201.858 192.833 C 201.683 194.919 201.615 196.851 201.66 198.647 C 201.704 200.442 201.861 202.1 202.135 203.638 C 202.408 205.175 202.799 206.592 203.31 207.904 C 203.821 209.216 204.454 210.423 205.212 211.541 C 205.97 212.66 206.854 213.689 207.869 214.646 C 214.571 220.993 228.058 225.103 231.64 221.875 C 235.42 218.469 237.384 219.265 237.376 224.2 C 237.368 227.086 235.858 229.139 233.19 229.884 C 228.112 231.314 227.89 235.042 232.47 241.988 C 243.895 259.32 274.764 251.339 274.756 231.036 C 274.748 223.405 273.795 221.89 263.289 212.768 C 256.743 207.082 251.829 201.178 251.821 198.986 C 251.813 195.291 252.037 195.253 258.352 198.173 C 276.043 206.364 298.995 190.601 293.084 174.296 C 290.275 166.55 282.146 159.755 275.682 159.745 C 269.163 159.735 267.511 157.038 271.706 153.26 C 275.296 150.028 283.298 150.292 290.801 153.884 C 298.304 157.476 303.694 166.184 303.779 174.856 C 303.85 182.08 304.658 183.399 311.356 187.228 C 321.24 192.876 328.697 194.045 337.721 191.363 C 346.644 188.713 355.646 179.652 355.638 173.313 C 355.63 160.694 343.511 151.144 329.317 152.569 C 321.74 153.324 320.228 152.938 320.22 150.271 C 320.213 145.288 329.112 142.073 339.895 143.153 C 347.054 143.868 350.985 145.561 355.678 149.958 C 364.268 158.01 366.497 164.23 364.907 175.687 C 363.585 185.206 363.696 185.486 370.445 189.168 C 382.658 195.836 401.161 179.145 402.662 169.623 C 403.398 164.92 408.728 164.529 411.641 168.664 C 413.67 171.548 412.407 176.351 410.089 181.375 C 404.558 180.459 400.859 180.581 399.02 182.595 C 398.405 184.131 400.484 184.658 404.538 188.162 C 399.367 194.06 392.413 201.196 385.557 201.187 C 377.447 201.179 363.21 197.319 359.236 192.146 C 358.496 191.182 354.278 192.92 349.857 196.003 C 345.437 199.084 338.952 202.072 335.445 202.636 C 326.797 204.038 314.352 201.287 306.844 196.309 C 304.774 194.933 302.704 193.557 300.634 192.181 C 298.472 194.333 296.31 196.484 294.148 198.635 C 290.583 202.187 285.108 206.043 281.976 207.193 C 280.076 207.887 278.176 208.582 276.277 209.276 C 277.574 211.307 278.871 213.337 280.168 215.367 C 287.674 227.134 284.217 244.096 272.462 253.148 C 267.368 257.062 263.85 254.572 266.818 258.724 C 262.929 259.591 245.632 260.134 237.619 256.732 C 225.83 251.726 221.748 247.132 219.025 235.801 C 217.949 231.326 215.796 229.021 210.968 227.185 C 188.239 218.571 182.536 192.454 199.814 176.138 C 201.955 174.111 204.095 172.084 206.236 170.057 C 204.973 166.904 203.71 163.751 202.448 160.599 C 197.881 148.8 199.318 137.118 206.044 127.923 C 211.211 120.86 219.037 116.415 230.82 113.852 C 236.413 112.643 238.284 111.207 238.759 107.732 C 240.928 91.274 252.484 78.987 269.426 75.144 C 279.455 72.871 285.716 73.616 296.844 78.401 C 300.735 80.071 302.686 79.076 311.613 70.804"
            fill="#03aa39"
            stroke-width="1"/>
    </g>
    <g id="eis">
        <path
            id="path_5"
            d="M 1011.43 258.73 C 989.519 265.728 972.193 288.541 972.193 310.39 C 972.193 323.326 981.559 344.922 990.211 351.939 C 1004.92 363.865 1039.06 367.243 1057.9 358.634 C 1068.77 353.663 1080.27 342.6 1078.77 338.557 C 1077.6 335.427 1055.36 329.59 1055.36 332.412 C 1055.36 333.614 1051.44 336.742 1046.64 339.362 C 1029.83 348.547 1011.81 343.975 1004.11 328.566 L 999.274 318.902 L 1043.41 318.244 L 1087.55 317.585 L 1087.55 310.2 C 1087.55 306.138 1085.72 297.161 1083.48 290.25 C 1074.71 263.225 1042.07 248.944 1011.43 258.73 Z M 1176.97 259.857 C 1163.84 265.197 1157.36 273.053 1155.43 285.966 C 1152.83 303.296 1165.82 315.058 1192.18 319.26 C 1218.62 323.477 1227.34 329.669 1220.01 339.037 C 1216.76 343.196 1213.27 344.143 1201.18 344.143 C 1188.19 344.143 1185.49 343.278 1179.58 337.251 C 1173.32 330.852 1172.09 330.53 1162.39 332.737 C 1150.68 335.4 1150.01 336.859 1156.45 345.677 C 1165.16 357.581 1179.42 363.375 1200 363.375 C 1210.27 363.375 1222.06 362.233 1226.21 360.836 C 1236.89 357.247 1246.14 347.59 1248.75 337.311 C 1253.44 318.859 1236.14 303.666 1204.8 298.721 C 1187.41 295.976 1181.45 292.866 1181.45 286.529 C 1181.45 274.363 1203.93 270.312 1215.23 280.44 C 1222.5 286.952 1228.13 287.793 1239.2 284.022 L 1246.33 281.594 L 1240.86 273.805 C 1229.12 257.103 1199.59 250.655 1176.97 259.857 Z M 1108.44 275.021 C 1107.81 276.68 1107.5 287.772 1107.75 299.671 C 1108.01 311.57 1108.39 330.229 1108.62 341.138 L 1109.02 360.971 L 1135.96 360.971 L 1135.24 317.099 L 1134.5 273.228 L 1122.05 272.617 C 1113.95 272.218 1109.2 273.057 1108.44 275.021 Z M 1013.78 281.12 C 1008.51 285.166 999.021 297.048 999.021 299.587 C 999.021 300.294 1012.9 300.873 1029.87 300.873 C 1047.64 300.873 1060.73 299.902 1060.73 298.582 C 1060.73 292.786 1053.63 283.368 1046.92 280.259 C 1036.94 275.632 1020.35 276.062 1013.78 281.12 Z"
            fill="#03aa39"
            fill-opacity="0"
            stroke-width="1"
            fill-rule="evenodd"/>
        <path
            id="path_6"
            d="M 1122.58 230.844 C 1119.18 230.844 1115.866 231.81 1113.115 233.604 C 1110.365 235.398 1108.317 237.929 1107.266 240.831 C 1106.215 243.734 1106.215 246.862 1107.266 249.765 C 1108.317 252.667 1110.365 255.198 1113.115 256.992 C 1115.866 258.786 1119.18 259.752 1122.58 259.752 C 1126.849 259.752 1130.947 258.228 1133.966 255.519 C 1136.984 252.809 1138.682 249.13 1138.682 245.298 C 1138.682 241.466 1136.984 237.787 1133.966 235.077 C 1130.947 232.368 1126.849 230.844 1122.58 230.844 Z"
            fill="#099c41"
            fill-opacity="0"
            stroke-width="1"/>
    </g>
    <g id="ick">
        <path
            id="path_7"
            d="M 757.569 287.651 L 757.569 360.971 L 787.08 360.971 L 787.08 345.879 C 787.08 331.008 788.744 327.814 799.638 321.78 C 801.326 320.847 807.51 326.027 814.166 333.951 C 820.543 341.54 827.923 349.845 830.566 352.41 C 833.208 354.973 835.371 357.947 835.371 359.021 C 835.371 360.093 843.827 360.971 854.161 360.971 L 872.951 360.971 L 848.795 334.145 C 835.51 319.393 824.639 306.267 824.639 304.979 C 824.639 303.693 826.753 300.887 829.334 298.748 C 840.886 289.171 867.194 260.478 865.673 259.112 C 864.745 258.283 857.957 257.603 850.59 257.603 L 837.192 257.603 L 812.226 281.041 L 787.263 304.479 L 787.171 259.406 L 787.08 214.332 L 757.569 214.332 L 757.569 287.651 Z M 676.777 256.244 C 675.87 257.074 672.321 258.237 668.889 258.831 C 652.68 261.627 633.189 283.673 629.187 303.734 C 626.576 316.813 634.067 338.564 644.406 347.932 C 660.28 362.312 691.484 367.783 712.587 359.882 C 728.92 353.766 746.1 331.225 734.728 330.83 C 733.274 330.78 728.617 329.915 724.381 328.907 C 718.234 327.448 715.903 328.071 712.842 331.987 C 705.051 341.951 688.549 346.155 677.085 341.095 C 662.896 334.831 658.274 327.148 658.4 310.046 C 658.51 295.428 662.276 287.981 672.643 281.887 C 683.025 275.786 702.83 278.651 710.599 287.38 C 716.05 293.505 716.646 293.62 726.704 290.5 C 732.448 288.719 737.51 286.267 737.958 285.053 C 739.839 279.933 727.737 267.509 715.849 262.35 C 703.339 256.925 680.018 253.278 676.777 256.244 Z M 579.611 259.206 C 578.627 260.086 577.822 283.344 577.822 310.89 L 577.822 360.971 L 604.65 360.971 L 604.65 257.603 L 593.025 257.603 C 586.63 257.603 580.593 258.324 579.611 259.206 Z"
            fill="#03aa39"
            fill-opacity="0"
            stroke-width="1"
            fill-rule="evenodd"/>
        <path
            id="path_8"
            d="M 594 217 C 589.758 217 585.686 218.529 582.686 221.247 C 579.687 223.965 578 227.656 578 231.5 C 578 235.344 579.687 239.035 582.686 241.753 C 585.686 244.471 589.758 246 594 246 C 598.242 246 602.314 244.471 605.314 241.753 C 608.313 239.035 610 235.344 610 231.5 C 610 227.656 608.313 223.965 605.314 221.247 C 602.314 218.529 598.242 217 594 217 Z"
            fill="#099c41"
            fill-opacity="0"
            stroke-width="1"/>
    </g>
    <g
        id="barra"
        transform="translate(-600 0)">
        <path
            id="path_3"
            d="M 1330.35 271.134 C 1328.34 280.711 1327.91 280.161 1348.06 293.661 C 1363.06 303.712 1372.17 310.832 1372.17 312.505 C 1372.16 313.38 1367.03 317.068 1360.76 320.703 C 1337.93 333.941 1331.93 340.561 1331.93 352.523 C 1331.93 358.492 1332.53 363.375 1333.25 363.375 C 1333.98 363.375 1337.3 361.312 1340.63 358.793 C 1343.96 356.273 1354.53 348.72 1364.12 342.009 C 1397.53 318.631 1399 317.342 1399 311.457 C 1399 305.722 1396.27 303.64 1346.16 271.214 L 1332.22 262.192 L 1330.35 271.134 Z"
            fill="#03aa39"
            stroke-width="1"
            fill-rule="evenodd"/>
        <path
            id="path_4"
            d="M 1303.52 241.977 L 1259.25 379 L 1278.03 379 L 1320.96 241.977 L 1303.52 241.977 Z"
            fill="#03aa39"
            stroke-width="1"/>
    </g>
    <path
        id="r"
        d="M 634.015 259.761 C 629.988 262.076 624.432 266.305 621.671 269.156 C 615.804 275.218 613.172 273.819 613.172 264.641 C 613.172 258.297 612.761 258.107 601.77 259.365 C 595.5 260.081 590.279 260.79 590.172 260.939 C 590.065 261.086 590.505 283.654 591.151 311.09 L 592.326 360.971 L 618.537 360.971 L 618.548 330.321 C 618.556 304.171 619.326 298.541 623.79 291.981 C 629.282 283.909 645.98 277.755 654.468 280.673 C 658.111 281.928 658.779 280.069 658.779 268.677 L 660 255.374 L 650.06 255.374 C 645.263 255.47 638.044 257.444 634.015 259.761"
        fill="#03aa39"
        stroke-width="1"
        fill-rule="evenodd"/>
    <path
        id="r_1"
        d="M 525.507 257.997 C 522.556 259.456 516.82 263.413 512.764 266.788 L 505.386 272.925 L 505.386 265.264 C 505.386 258.401 504.571 257.603 497.558 257.603 C 480.678 257.603 481.241 255.766 481.241 310.746 L 481.241 360.971 L 508.069 360.971 L 508.109 330.321 C 508.133 310.77 509.349 297.587 511.463 293.918 C 516.021 286.002 531.758 278.716 540.933 280.271 C 548.252 281.512 548.311 281.418 548.311 268.36 L 548.311 255.199 L 539.592 255.271 C 534.798 255.312 528.458 256.538 525.507 257.997 Z M 396.733 274.714 C 381.978 285.389 367.794 295.14 365.21 296.38 C 355.734 300.938 359.745 309.015 378.259 322.657 C 388.016 329.847 399.687 338.578 404.188 342.057 C 408.693 345.538 415.8 350.196 419.982 352.41 L 427.585 356.434 L 427.585 345.901 C 427.585 335.708 426.973 334.939 408.87 322.325 C 398.576 315.155 390.125 308.075 390.09 306.594 C 390.055 305.113 398.477 297.596 408.806 289.887 C 426.719 276.517 427.585 275.392 427.585 265.533 C 427.585 259.85 426.678 255.223 425.573 255.252 C 424.468 255.28 411.488 264.038 396.733 274.714 Z"
        fill="#03aa39"
        stroke-width="1"
        fill-rule="evenodd"/>
</svg>
