<svg
    xmlns="http://www.w3.org/2000/svg"
    viewBox="0 0 1580 390"
    id="logo_rickreis"
    width="1580px"
    height="390px">
    <g id="cachos">
        <path
            id="path"
            d="M 394.747 361.985 C 321.323 372.76 277.473 295.052 266 255.463 L 282.571 255.463 C 289.76 287.551 333.067 360.756 402 345.231 C 405.528 347.541 410.971 351.076 415.211 353.762 C 416.526 354.595 417.726 355.346 418.716 355.953 L 421.5 357.5 C 421.5 357.511 421.49 357.516 421.469 357.513 C 413.726 360.801 404.005 360.627 394.747 361.985 Z M 498 185.673 L 498 235.873 C 497.211 240.571 497.929 247.662 496.5 253.5 C 485.793 253 483.256 255.602 480.707 260.5 C 486.501 232.854 485.913 202.037 482.703 182 L 498 185.673 Z"
            fill="#057e2c"
            fill-opacity="0"
            stroke-width="1"/>
        <path
            id="path_1"
            d="M 458.743 169.86 C 462.064 166.062 463.974 165.128 465.851 161.042 C 458.728 159.872 453.967 160.04 451.604 162.648 C 450.819 164.64 453.508 165.331 458.743 169.86 Z"
            fill="#03aa39"
            fill-opacity="0"
            stroke-width="1"/>
        <path
            id="path_2"
            d="M 273.81 139.617 C 273.862 139.629 273.913 139.641 273.965 139.653 C 279.619 134.457 280.535 134.061 285.987 134.073 C 294.171 134.085 303.418 137.827 305.346 141.898 C 307.163 145.73 307.772 145.817 312.082 142.829 C 322.128 135.796 339.91 141.759 341.936 152.832 C 342.773 157.244 342.911 157.322 347.044 156.648 C 354.119 155.48 365.399 160.9 369.099 167.232 C 371.521 171.354 371.571 180.378 369.248 183.427 C 367.598 185.615 367.737 185.972 370.513 187.905 C 374.984 191.044 377.253 197.713 377.284 201.957 C 377.317 208.087 367.512 216.232 362.124 218.425 C 347.426 220.619 336.787 212.927 330.486 207.468 C 332.018 205.735 332.904 205.311 333.775 203.445 C 344.828 210.044 351.112 212.72 353.136 213.068 C 355.09 213.403 359.897 213.671 362.278 212.162 C 365.621 210.075 371.661 207.276 371.713 202.627 C 371.764 198.27 371.171 196.728 368.212 193.852 C 365.205 190.93 364.067 190.487 361.079 191.098 C 356.997 191.923 352.498 190.198 352.55 187.817 C 352.601 186.79 353.897 186.23 356.207 186.243 C 358.706 186.255 360.82 185.19 363.208 182.706 C 366.156 179.625 366.56 178.504 365.986 174.287 C 365.145 168.258 361.822 164.913 355.216 163.453 C 348.183 161.9 344.277 162.848 342.517 166.53 C 339.572 172.607 326.263 175.42 325.481 170.169 C 325.18 167.963 325.567 167.764 328.476 168.419 C 331.064 169.002 332.595 168.503 335.469 166.093 C 338.508 163.54 339.172 162.143 339.224 157.846 C 339.275 153.409 338.786 152.27 335.604 149.844 C 332.065 147.149 329.679 146.544 324.2 146.961 C 316.906 147.508 311.422 152.023 311.474 157.475 C 311.526 160.518 311.476 160.603 308.663 159.63 C 307.317 159.162 306.825 157.507 306.877 153.718 C 306.929 149.201 306.452 148.063 303.316 145.672 C 298.727 142.186 292.65 141.105 287.067 142.784 C 282.949 144.028 276.829 149.321 276.482 152.008 C 275.63 157.733 274.249 162.769 277.022 165.947 C 280.102 169.402 282.762 175.508 279.014 178.244 C 274.719 180.981 265.79 179.28 265.231 173.235 C 264.696 167.453 266.802 162.134 261.447 158.724 C 257.553 157.542 255.407 157.488 250.823 158.514 C 242.837 160.325 238.758 164.694 238.849 171.335 C 238.903 175.565 239.484 176.748 242.556 178.921 C 245.952 181.324 246.055 181.604 244.158 183.261 C 242.262 184.918 241.849 184.85 238.425 182.644 C 231.075 177.931 221.527 180.893 217.373 189.146 C 214.66 194.52 215.417 198.901 219.824 203.307 C 222.845 206.323 224.109 206.778 228.921 206.682 C 233.502 206.59 234.432 206.877 234.097 208.342 C 233.557 210.759 224.214 211.875 220.144 209.96 C 217.391 208.659 216.844 208.839 213.422 212.513 C 211.371 214.697 209.608 217.478 209.493 218.671 C 209.377 219.879 209.324 220.996 209.338 222.033 C 209.351 223.07 209.43 224.026 209.578 224.911 C 209.726 225.796 209.943 226.61 210.231 227.362 C 210.519 228.114 210.878 228.804 211.311 229.443 C 211.744 230.081 212.252 230.667 212.836 231.21 C 216.774 234.931 224.711 237.334 226.809 235.41 C 229.023 233.381 230.167 233.829 230.148 236.719 C 230.129 238.4 229.224 239.59 227.637 240.009 C 224.628 240.832 224.483 243.009 227.169 247.084 C 233.89 257.283 252.075 252.557 252.056 240.567 C 252.036 236.048 251.46 235.135 245.251 229.737 C 241.377 226.366 238.465 222.865 238.445 221.553 C 238.426 219.355 238.543 219.313 242.252 221.015 C 252.667 225.825 266.184 216.513 262.684 206.881 C 261.013 202.295 256.206 198.269 252.38 198.244 C 248.521 198.219 247.533 196.611 249.991 194.365 C 252.093 192.44 256.796 192.577 261.205 194.677 C 265.614 196.776 268.777 201.891 268.813 206.986 C 268.84 211.227 269.302 211.986 273.236 214.226 C 279.049 217.538 283.431 218.209 288.737 216.61 C 293.983 215.03 299.276 209.669 299.257 205.914 C 299.238 198.457 292.079 192.809 283.697 193.631 C 279.215 194.059 278.309 193.814 278.292 192.224 C 278.273 189.269 283.506 187.356 289.85 187.976 C 294.057 188.38 296.361 189.362 299.115 191.937 C 304.166 196.667 305.467 200.317 304.516 207.055 C 303.723 212.651 303.776 212.8 307.742 214.953 C 314.93 218.868 325.826 209.011 326.698 203.381 C 327.12 200.592 330.25 200.345 331.955 202.767 C 333.139 204.451 332.382 207.267 331.004 210.213 C 327.731 209.657 325.539 209.712 324.443 210.884 C 324.069 211.774 325.283 212.069 327.662 214.119 C 324.602 217.581 320.492 221.772 316.439 221.752 C 311.647 221.732 303.243 219.441 300.89 216.376 C 300.443 215.792 297.946 216.802 295.33 218.604 C 292.714 220.406 288.881 222.152 286.805 222.47 C 281.697 223.282 274.35 221.645 269.915 218.695 C 268.686 217.87 267.457 217.044 266.228 216.219 C 264.945 217.472 263.663 218.726 262.381 219.98 C 260.272 222.06 257.036 224.32 255.182 224.983 C 254.055 225.379 252.929 225.774 251.802 226.17 C 252.56 227.353 253.319 228.536 254.078 229.719 C 258.497 236.643 256.454 246.63 249.518 251.953 C 246.509 254.247 244.431 252.765 246.176 255.2 C 243.879 255.698 233.677 256.005 228.949 253.986 C 221.994 251.022 219.584 248.3 217.976 241.607 C 217.338 238.955 216.066 237.583 213.217 236.488 C 199.814 231.396 196.45 215.986 206.636 206.354 C 207.896 205.146 209.156 203.939 210.418 202.731 C 209.672 200.86 208.927 198.989 208.183 197.118 C 205.491 189.403 207.135 178.605 211.101 173.183 C 214.147 169.019 218.761 166.399 225.708 164.887 C 229.044 164.184 230.187 163.347 230.506 161.307 C 231.823 151.613 238.676 144.378 248.704 142.121 C 254.655 140.79 258.386 141.239 264.985 144.069 C 267.319 145.063 268.508 144.485 273.81 139.617"
            fill="#03aa39"
            stroke-width="1"/>
    </g>
    <g id="eis">
        <path
            id="path_5"
            d="M 1011.43 258.73 C 989.519 265.728 972.193 288.541 972.193 310.39 C 972.193 323.326 981.559 344.922 990.211 351.939 C 1004.92 363.865 1039.06 367.243 1057.9 358.634 C 1068.77 353.663 1080.27 342.6 1078.77 338.557 C 1077.6 335.427 1055.36 329.59 1055.36 332.412 C 1055.36 333.614 1051.44 336.742 1046.64 339.362 C 1029.83 348.547 1011.81 343.975 1004.11 328.566 L 999.274 318.902 L 1043.41 318.244 L 1087.55 317.585 L 1087.55 310.2 C 1087.55 306.138 1085.72 297.161 1083.48 290.25 C 1074.71 263.225 1042.07 248.944 1011.43 258.73 Z M 1176.97 259.857 C 1163.84 265.197 1157.36 273.053 1155.43 285.966 C 1152.83 303.296 1165.82 315.058 1192.18 319.26 C 1218.62 323.477 1227.34 329.669 1220.01 339.037 C 1216.76 343.196 1213.27 344.143 1201.18 344.143 C 1188.19 344.143 1185.49 343.278 1179.58 337.251 C 1173.32 330.852 1172.09 330.53 1162.39 332.737 C 1150.68 335.4 1150.01 336.859 1156.45 345.677 C 1165.16 357.581 1179.42 363.375 1200 363.375 C 1210.27 363.375 1222.06 362.233 1226.21 360.836 C 1236.89 357.247 1246.14 347.59 1248.75 337.311 C 1253.44 318.859 1236.14 303.666 1204.8 298.721 C 1187.41 295.976 1181.45 292.866 1181.45 286.529 C 1181.45 274.363 1203.93 270.312 1215.23 280.44 C 1222.5 286.952 1228.13 287.793 1239.2 284.022 L 1246.33 281.594 L 1240.86 273.805 C 1229.12 257.103 1199.59 250.655 1176.97 259.857 Z M 1108.44 275.021 C 1107.81 276.68 1107.5 287.772 1107.75 299.671 C 1108.01 311.57 1108.39 330.229 1108.62 341.138 L 1109.02 360.971 L 1135.96 360.971 L 1135.24 317.099 L 1134.5 273.228 L 1122.05 272.617 C 1113.95 272.218 1109.2 273.057 1108.44 275.021 Z M 1013.78 281.12 C 1008.51 285.166 999.021 297.048 999.021 299.587 C 999.021 300.294 1012.9 300.873 1029.87 300.873 C 1047.64 300.873 1060.73 299.902 1060.73 298.582 C 1060.73 292.786 1053.63 283.368 1046.92 280.259 C 1036.94 275.632 1020.35 276.062 1013.78 281.12 Z"
            fill="#03aa39"
            fill-opacity="0"
            stroke-width="1"
            fill-rule="evenodd"/>
        <path
            id="path_6"
            d="M 1122.58 230.844 C 1119.18 230.844 1115.866 231.81 1113.115 233.604 C 1110.365 235.398 1108.317 237.929 1107.266 240.831 C 1106.215 243.734 1106.215 246.862 1107.266 249.765 C 1108.317 252.667 1110.365 255.198 1113.115 256.992 C 1115.866 258.786 1119.18 259.752 1122.58 259.752 C 1126.849 259.752 1130.947 258.228 1133.966 255.519 C 1136.984 252.809 1138.682 249.13 1138.682 245.298 C 1138.682 241.466 1136.984 237.787 1133.966 235.077 C 1130.947 232.368 1126.849 230.844 1122.58 230.844 Z"
            fill="#099c41"
            fill-opacity="0"
            stroke-width="1"/>
    </g>
    <g id="ick">
        <path
            id="path_7"
            d="M 757.569 287.651 L 757.569 360.971 L 787.08 360.971 L 787.08 345.879 C 787.08 331.008 788.744 327.814 799.638 321.78 C 801.326 320.847 807.51 326.027 814.166 333.951 C 820.543 341.54 827.923 349.845 830.566 352.41 C 833.208 354.973 835.371 357.947 835.371 359.021 C 835.371 360.093 843.827 360.971 854.161 360.971 L 872.951 360.971 L 848.795 334.145 C 835.51 319.393 824.639 306.267 824.639 304.979 C 824.639 303.693 826.753 300.887 829.334 298.748 C 840.886 289.171 867.194 260.478 865.673 259.112 C 864.745 258.283 857.957 257.603 850.59 257.603 L 837.192 257.603 L 812.226 281.041 L 787.263 304.479 L 787.171 259.406 L 787.08 214.332 L 757.569 214.332 L 757.569 287.651 Z M 676.777 256.244 C 675.87 257.074 672.321 258.237 668.889 258.831 C 652.68 261.627 633.189 283.673 629.187 303.734 C 626.576 316.813 634.067 338.564 644.406 347.932 C 660.28 362.312 691.484 367.783 712.587 359.882 C 728.92 353.766 746.1 331.225 734.728 330.83 C 733.274 330.78 728.617 329.915 724.381 328.907 C 718.234 327.448 715.903 328.071 712.842 331.987 C 705.051 341.951 688.549 346.155 677.085 341.095 C 662.896 334.831 658.274 327.148 658.4 310.046 C 658.51 295.428 662.276 287.981 672.643 281.887 C 683.025 275.786 702.83 278.651 710.599 287.38 C 716.05 293.505 716.646 293.62 726.704 290.5 C 732.448 288.719 737.51 286.267 737.958 285.053 C 739.839 279.933 727.737 267.509 715.849 262.35 C 703.339 256.925 680.018 253.278 676.777 256.244 Z M 579.611 259.206 C 578.627 260.086 577.822 283.344 577.822 310.89 L 577.822 360.971 L 604.65 360.971 L 604.65 257.603 L 593.025 257.603 C 586.63 257.603 580.593 258.324 579.611 259.206 Z"
            fill="#03aa39"
            fill-opacity="0"
            stroke-width="1"
            fill-rule="evenodd"/>
        <path
            id="path_8"
            d="M 594 217 C 589.758 217 585.686 218.529 582.686 221.247 C 579.687 223.965 578 227.656 578 231.5 C 578 235.344 579.687 239.035 582.686 241.753 C 585.686 244.471 589.758 246 594 246 C 598.242 246 602.314 244.471 605.314 241.753 C 608.313 239.035 610 235.344 610 231.5 C 610 227.656 608.313 223.965 605.314 221.247 C 602.314 218.529 598.242 217 594 217 Z"
            fill="#099c41"
            fill-opacity="0"
            stroke-width="1"/>
    </g>
    <g
        id="barra"
        transform="translate(-600 0)">
        <path
            id="path_3"
            d="M 1330.35 271.134 C 1328.34 280.711 1327.91 280.161 1348.06 293.661 C 1363.06 303.712 1372.17 310.832 1372.17 312.505 C 1372.16 313.38 1367.03 317.068 1360.76 320.703 C 1337.93 333.941 1331.93 340.561 1331.93 352.523 C 1331.93 358.492 1332.53 363.375 1333.25 363.375 C 1333.98 363.375 1337.3 361.312 1340.63 358.793 C 1343.96 356.273 1354.53 348.72 1364.12 342.009 C 1397.53 318.631 1399 317.342 1399 311.457 C 1399 305.722 1396.27 303.64 1346.16 271.214 L 1332.22 262.192 L 1330.35 271.134 Z"
            fill="#03aa39"
            stroke-width="1"
            fill-rule="evenodd"/>
        <path
            id="path_4"
            d="M 1303.52 241.977 L 1259.25 379 L 1278.03 379 L 1320.96 241.977 L 1303.52 241.977 Z"
            fill="#03aa39"
            stroke-width="1"/>
    </g>
    <path
        id="r"
        d="M 634.015 259.761 C 629.988 262.076 624.432 266.305 621.671 269.156 C 615.804 275.218 613.172 273.819 613.172 264.641 C 613.172 258.297 612.761 258.107 601.77 259.365 C 595.5 260.081 590.279 260.79 590.172 260.939 C 590.065 261.086 590.505 283.654 591.151 311.09 L 592.326 360.971 L 618.537 360.971 L 618.548 330.321 C 618.556 304.171 619.326 298.541 623.79 291.981 C 629.282 283.909 645.98 277.755 654.468 280.673 C 658.111 281.928 658.779 280.069 658.779 268.677 L 660 255.374 L 650.06 255.374 C 645.263 255.47 638.044 257.444 634.015 259.761"
        fill="#03aa39"
        stroke-width="1"
        fill-rule="evenodd"/>
    <path
        id="r_1"
        d="M 525.507 257.997 C 522.556 259.456 516.82 263.413 512.764 266.788 L 505.386 272.925 L 505.386 265.264 C 505.386 258.401 504.571 257.603 497.558 257.603 C 480.678 257.603 481.241 255.766 481.241 310.746 L 481.241 360.971 L 508.069 360.971 L 508.109 330.321 C 508.133 310.77 509.349 297.587 511.463 293.918 C 516.021 286.002 531.758 278.716 540.933 280.271 C 548.252 281.512 548.311 281.418 548.311 268.36 L 548.311 255.199 L 539.592 255.271 C 534.798 255.312 528.458 256.538 525.507 257.997 Z M 396.733 274.714 C 381.978 285.389 367.794 295.14 365.21 296.38 C 355.734 300.938 359.745 309.015 378.259 322.657 C 388.016 329.847 399.687 338.578 404.188 342.057 C 408.693 345.538 415.8 350.196 419.982 352.41 L 427.585 356.434 L 427.585 345.901 C 427.585 335.708 426.973 334.939 408.87 322.325 C 398.576 315.155 390.125 308.075 390.09 306.594 C 390.055 305.113 398.477 297.596 408.806 289.887 C 426.719 276.517 427.585 275.392 427.585 265.533 C 427.585 259.85 426.678 255.223 425.573 255.252 C 424.468 255.28 411.488 264.038 396.733 274.714 Z"
        fill="#03aa39"
        stroke-width="1"
        fill-rule="evenodd"/>
</svg>
