<svg
    xmlns="http://www.w3.org/2000/svg"
    viewBox="0 0 1580 390"
    id="logo_rickreis"
    width="1580px"
    height="390px">
    <g id="cachos">
        <path
            id="path"
            d="M 394.747 361.985 C 321.323 372.76 277.473 295.052 266 255.463 L 282.571 255.463 C 289.76 287.551 333.067 360.756 402 345.231 C 405.528 347.541 410.971 351.076 415.211 353.762 C 416.526 354.595 417.726 355.346 418.716 355.953 L 421.5 357.5 C 421.5 357.511 421.49 357.516 421.469 357.513 C 413.726 360.801 404.005 360.627 394.747 361.985 Z M 498 185.673 L 498 235.873 C 497.211 240.571 497.929 247.662 496.5 253.5 C 485.793 253 483.256 255.602 480.707 260.5 C 486.501 232.854 485.913 202.037 482.703 182 L 498 185.673 Z"
            fill="#057e2c"
            fill-opacity="0"
            stroke-width="1"/>
        <path
            id="path_1"
            d="M 458.743 169.86 C 462.064 166.062 463.974 165.128 465.851 161.042 C 458.728 159.872 453.967 160.04 451.604 162.648 C 450.819 164.64 453.508 165.331 458.743 169.86 Z"
            fill="#03aa39"
            fill-opacity="0"
            stroke-width="1"/>
        <path
            id="path_2"
            d="M 229.614 220.069 C 229.701 220.09 229.788 220.11 229.875 220.13 C 231.005 219.181 231.253 219.126 232.345 219.146 C 233.946 219.166 235.744 219.881 236.18 220.657 C 236.596 221.388 236.787 221.422 237.667 220.885 C 239.614 219.594 243.001 220.722 243.455 222.801 C 243.688 223.64 243.792 223.672 244.639 223.565 C 246.033 223.366 248.21 224.393 248.976 225.589 C 249.504 226.374 249.591 228.073 249.236 228.658 C 249.006 229.083 249.11 229.169 249.704 229.546 C 250.575 230.139 251.036 231.39 251.08 232.188 C 251.125 233.339 249.339 234.864 248.375 235.281 C 245.659 235.694 243.698 234.267 242.545 233.255 C 242.849 232.937 243.033 232.863 243.215 232.52 C 245.291 233.753 246.48 234.255 246.876 234.324 C 247.259 234.391 248.173 234.446 248.636 234.169 C 249.335 233.8 250.537 233.296 250.624 232.449 C 250.711 231.657 250.678 231.388 250.205 230.87 C 249.723 230.344 249.588 230.281 249.11 230.412 C 248.428 230.584 247.668 230.281 247.754 229.856 C 247.841 229.683 248.16 229.597 248.667 229.618 C 249.21 229.638 249.681 229.458 250.203 229.013 C 250.829 228.458 250.981 228.268 250.952 227.501 C 250.873 226.397 250.332 225.793 249.18 225.539 C 247.948 225.267 247.299 225.463 247.049 226.166 C 246.578 227.315 244.179 227.857 244.11 226.898 C 244.132 226.505 244.281 226.486 244.9 226.627 C 245.459 226.753 245.822 226.678 246.434 226.248 C 247.077 225.791 247.278 225.549 247.365 224.767 C 247.452 223.96 247.439 223.766 246.924 223.332 C 246.343 222.848 245.976 222.755 245.033 222.85 C 243.753 222.97 242.81 223.829 242.898 224.861 C 242.985 225.446 243.053 225.479 242.606 225.317 C 242.433 225.248 242.419 224.958 242.507 224.271 C 242.594 223.449 242.582 223.255 242.076 222.828 C 241.299 222.197 240.245 222.014 239.284 222.344 C 238.595 222.594 237.533 223.598 237.546 224.116 C 237.388 225.181 234.407 230.876 234.923 232.507 C 235.496 234.191 240.038 239.543 238.389 244.156 C 236.637 248.769 227.191 253.929 227.087 252.804 C 226.987 251.727 230.725 243.017 228.824 239.377 C 228.085 239.108 227.67 239.05 226.801 239.193 C 225.3 239.482 224.524 240.247 224.524 241.436 C 224.518 242.175 224.608 242.348 225.162 242.705 C 225.776 243.105 225.777 243.11 225.406 243.372 C 225.034 243.633 224.937 243.574 224.281 243.117 C 222.892 242.194 221.095 242.699 220.301 244.189 C 219.776 245.143 219.896 245.913 220.694 246.687 C 221.235 247.203 221.449 247.242 222.321 247.18 C 223.152 247.117 223.302 247.126 223.216 247.353 C 223.093 247.759 221.33 247.922 220.549 247.521 C 220.013 247.235 219.887 247.225 219.225 247.865 C 218.819 248.227 218.466 248.701 218.42 248.879 C 218.373 249.06 218.337 249.225 218.314 249.375 C 218.291 249.525 218.279 249.66 218.281 249.782 C 218.281 249.904 218.296 250.013 218.323 250.111 C 218.349 250.208 218.389 250.294 218.442 250.372 C 218.495 250.449 218.563 250.516 218.644 250.575 C 219.349 251.226 220.798 251.633 221.161 251.233 C 221.544 250.815 221.73 250.857 221.697 251.355 C 221.665 251.627 221.469 251.808 221.145 251.845 C 220.555 251.958 220.5 252.324 220.97 253.042 C 222.193 254.901 225.548 253.981 225.516 251.71 C 225.483 250.83 225.347 250.621 224.162 249.577 C 223.411 248.91 222.84 248.22 222.807 247.936 C 222.774 247.489 222.767 247.443 223.428 247.721 C 225.337 248.578 227.824 246.807 227.142 244.976 C 226.802 244.085 225.878 243.298 225.136 243.255 C 224.389 243.213 224.176 242.877 224.604 242.422 C 224.966 242.026 225.812 242.015 226.603 242.369 C 227.394 242.723 227.955 243.639 227.932 244.55 C 227.908 245.304 227.965 245.409 228.668 245.79 C 229.722 246.37 230.509 246.459 231.468 246.126 C 232.416 245.797 233.372 244.763 233.34 244.029 C 233.308 242.607 231.948 241.52 230.36 241.638 C 229.498 241.684 229.302 241.603 229.271 241.273 C 229.24 240.689 230.187 240.299 231.34 240.38 C 232.097 240.421 232.499 240.57 232.984 241.015 C 233.898 241.862 234.114 242.508 233.911 243.729 C 233.737 244.737 233.721 244.732 234.434 245.1 C 235.746 245.796 237.749 243.929 237.886 242.848 C 237.94 242.297 238.499 242.219 238.791 242.637 C 238.987 242.919 238.823 243.411 238.543 243.928 C 237.91 243.793 237.479 243.771 237.252 243.958 C 237.16 244.092 237.363 244.116 237.784 244.467 C 237.193 245.08 236.406 245.829 235.631 245.796 C 234.718 245.761 233.133 245.304 232.675 244.704 C 232.571 244.565 232.087 244.723 231.581 245.028 C 231.074 245.334 230.342 245.629 229.938 245.659 C 228.968 245.781 227.583 245.447 226.741 244.869 C 226.495 244.686 226.249 244.503 226.004 244.321 C 225.749 244.526 225.495 244.731 225.241 244.936 C 224.833 245.295 224.216 245.687 223.857 245.782 C 223.633 245.828 223.41 245.874 223.188 245.92 C 223.316 246.113 223.445 246.306 223.575 246.499 C 224.386 247.761 223.995 249.592 222.693 250.556 C 222.123 250.957 221.727 250.654 222.043 251.081 C 221.606 251.147 219.699 251.178 218.811 250.776 C 217.51 250.198 217.055 249.666 216.749 248.394 C 216.624 247.875 216.382 247.594 215.847 247.365 C 213.347 246.392 212.718 243.498 214.61 241.681 C 214.842 241.431 215.074 241.181 215.307 240.932 C 215.167 240.559 215.027 240.187 214.889 239.814 C 214.387 236.873 216.275 227.108 217.013 226.099 C 217.58 225.324 218.439 224.836 219.732 224.555 C 220.43 224.442 220.72 224.304 220.857 223.943 C 221.179 222.157 222.532 220.828 224.476 220.427 C 225.662 220.197 226.433 220.298 227.739 220.843 C 228.251 221.046 228.55 220.957 229.614 220.069"
            fill="#03aa39"
            stroke-width="1"/>
    </g>
    <g id="eis">
        <path
            id="path_5"
            d="M 1011.43 258.73 C 989.519 265.728 972.193 288.541 972.193 310.39 C 972.193 323.326 981.559 344.922 990.211 351.939 C 1004.92 363.865 1039.06 367.243 1057.9 358.634 C 1068.77 353.663 1080.27 342.6 1078.77 338.557 C 1077.6 335.427 1055.36 329.59 1055.36 332.412 C 1055.36 333.614 1051.44 336.742 1046.64 339.362 C 1029.83 348.547 1011.81 343.975 1004.11 328.566 L 999.274 318.902 L 1043.41 318.244 L 1087.55 317.585 L 1087.55 310.2 C 1087.55 306.138 1085.72 297.161 1083.48 290.25 C 1074.71 263.225 1042.07 248.944 1011.43 258.73 Z M 1176.97 259.857 C 1163.84 265.197 1157.36 273.053 1155.43 285.966 C 1152.83 303.296 1165.82 315.058 1192.18 319.26 C 1218.62 323.477 1227.34 329.669 1220.01 339.037 C 1216.76 343.196 1213.27 344.143 1201.18 344.143 C 1188.19 344.143 1185.49 343.278 1179.58 337.251 C 1173.32 330.852 1172.09 330.53 1162.39 332.737 C 1150.68 335.4 1150.01 336.859 1156.45 345.677 C 1165.16 357.581 1179.42 363.375 1200 363.375 C 1210.27 363.375 1222.06 362.233 1226.21 360.836 C 1236.89 357.247 1246.14 347.59 1248.75 337.311 C 1253.44 318.859 1236.14 303.666 1204.8 298.721 C 1187.41 295.976 1181.45 292.866 1181.45 286.529 C 1181.45 274.363 1203.93 270.312 1215.23 280.44 C 1222.5 286.952 1228.13 287.793 1239.2 284.022 L 1246.33 281.594 L 1240.86 273.805 C 1229.12 257.103 1199.59 250.655 1176.97 259.857 Z M 1108.44 275.021 C 1107.81 276.68 1107.5 287.772 1107.75 299.671 C 1108.01 311.57 1108.39 330.229 1108.62 341.138 L 1109.02 360.971 L 1135.96 360.971 L 1135.24 317.099 L 1134.5 273.228 L 1122.05 272.617 C 1113.95 272.218 1109.2 273.057 1108.44 275.021 Z M 1013.78 281.12 C 1008.51 285.166 999.021 297.048 999.021 299.587 C 999.021 300.294 1012.9 300.873 1029.87 300.873 C 1047.64 300.873 1060.73 299.902 1060.73 298.582 C 1060.73 292.786 1053.63 283.368 1046.92 280.259 C 1036.94 275.632 1020.35 276.062 1013.78 281.12 Z"
            fill="#03aa39"
            fill-opacity="0"
            stroke-width="1"
            fill-rule="evenodd"/>
        <path
            id="path_6"
            d="M 1122.58 230.844 C 1119.18 230.844 1115.866 231.81 1113.115 233.604 C 1110.365 235.398 1108.317 237.929 1107.266 240.831 C 1106.215 243.734 1106.215 246.862 1107.266 249.765 C 1108.317 252.667 1110.365 255.198 1113.115 256.992 C 1115.866 258.786 1119.18 259.752 1122.58 259.752 C 1126.849 259.752 1130.947 258.228 1133.966 255.519 C 1136.984 252.809 1138.682 249.13 1138.682 245.298 C 1138.682 241.466 1136.984 237.787 1133.966 235.077 C 1130.947 232.368 1126.849 230.844 1122.58 230.844 Z"
            fill="#099c41"
            fill-opacity="0"
            stroke-width="1"/>
    </g>
    <g id="ick">
        <path
            id="path_7"
            d="M 757.569 287.651 L 757.569 360.971 L 787.08 360.971 L 787.08 345.879 C 787.08 331.008 788.744 327.814 799.638 321.78 C 801.326 320.847 807.51 326.027 814.166 333.951 C 820.543 341.54 827.923 349.845 830.566 352.41 C 833.208 354.973 835.371 357.947 835.371 359.021 C 835.371 360.093 843.827 360.971 854.161 360.971 L 872.951 360.971 L 848.795 334.145 C 835.51 319.393 824.639 306.267 824.639 304.979 C 824.639 303.693 826.753 300.887 829.334 298.748 C 840.886 289.171 867.194 260.478 865.673 259.112 C 864.745 258.283 857.957 257.603 850.59 257.603 L 837.192 257.603 L 812.226 281.041 L 787.263 304.479 L 787.171 259.406 L 787.08 214.332 L 757.569 214.332 L 757.569 287.651 Z M 676.777 256.244 C 675.87 257.074 672.321 258.237 668.889 258.831 C 652.68 261.627 633.189 283.673 629.187 303.734 C 626.576 316.813 634.067 338.564 644.406 347.932 C 660.28 362.312 691.484 367.783 712.587 359.882 C 728.92 353.766 746.1 331.225 734.728 330.83 C 733.274 330.78 728.617 329.915 724.381 328.907 C 718.234 327.448 715.903 328.071 712.842 331.987 C 705.051 341.951 688.549 346.155 677.085 341.095 C 662.896 334.831 658.274 327.148 658.4 310.046 C 658.51 295.428 662.276 287.981 672.643 281.887 C 683.025 275.786 702.83 278.651 710.599 287.38 C 716.05 293.505 716.646 293.62 726.704 290.5 C 732.448 288.719 737.51 286.267 737.958 285.053 C 739.839 279.933 727.737 267.509 715.849 262.35 C 703.339 256.925 680.018 253.278 676.777 256.244 Z M 579.611 259.206 C 578.627 260.086 577.822 283.344 577.822 310.89 L 577.822 360.971 L 604.65 360.971 L 604.65 257.603 L 593.025 257.603 C 586.63 257.603 580.593 258.324 579.611 259.206 Z"
            fill="#03aa39"
            fill-opacity="0"
            stroke-width="1"
            fill-rule="evenodd"/>
        <path
            id="path_8"
            d="M 594 217 C 589.758 217 585.686 218.529 582.686 221.247 C 579.687 223.965 578 227.656 578 231.5 C 578 235.344 579.687 239.035 582.686 241.753 C 585.686 244.471 589.758 246 594 246 C 598.242 246 602.314 244.471 605.314 241.753 C 608.313 239.035 610 235.344 610 231.5 C 610 227.656 608.313 223.965 605.314 221.247 C 602.314 218.529 598.242 217 594 217 Z"
            fill="#099c41"
            fill-opacity="0"
            stroke-width="1"/>
    </g>
    <g
        id="barra"
        transform="translate(-600 0)">
        <path
            id="path_3"
            d="M 1330.35 271.134 C 1328.34 280.711 1327.91 280.161 1348.06 293.661 C 1363.06 303.712 1372.17 310.832 1372.17 312.505 C 1372.16 313.38 1367.03 317.068 1360.76 320.703 C 1337.93 333.941 1331.93 340.561 1331.93 352.523 C 1331.93 358.492 1332.53 363.375 1333.25 363.375 C 1333.98 363.375 1337.3 361.312 1340.63 358.793 C 1343.96 356.273 1354.53 348.72 1364.12 342.009 C 1397.53 318.631 1399 317.342 1399 311.457 C 1399 305.722 1396.27 303.64 1346.16 271.214 L 1332.22 262.192 L 1330.35 271.134 Z"
            fill="#03aa39"
            stroke-width="1"
            fill-rule="evenodd"/>
        <path
            id="path_4"
            d="M 1303.52 241.977 L 1259.25 379 L 1278.03 379 L 1320.96 241.977 L 1303.52 241.977 Z"
            fill="#03aa39"
            stroke-width="1"/>
    </g>
    <path
        id="r"
        d="M 634.015 259.761 C 629.988 262.076 624.432 266.305 621.671 269.156 C 615.804 275.218 613.172 273.819 613.172 264.641 C 613.172 258.297 612.761 258.107 601.77 259.365 C 595.5 260.081 590.279 260.79 590.172 260.939 C 590.065 261.086 590.505 283.654 591.151 311.09 L 592.326 360.971 L 618.537 360.971 L 618.548 330.321 C 618.556 304.171 619.326 298.541 623.79 291.981 C 629.282 283.909 645.98 277.755 654.468 280.673 C 658.111 281.928 658.779 280.069 658.779 268.677 L 660 255.374 L 650.06 255.374 C 645.263 255.47 638.044 257.444 634.015 259.761"
        fill="#03aa39"
        stroke-width="1"
        fill-rule="evenodd"/>
    <path
        id="r_1"
        d="M 525.507 257.997 C 522.556 259.456 516.82 263.413 512.764 266.788 L 505.386 272.925 L 505.386 265.264 C 505.386 258.401 504.571 257.603 497.558 257.603 C 480.678 257.603 481.241 255.766 481.241 310.746 L 481.241 360.971 L 508.069 360.971 L 508.109 330.321 C 508.133 310.77 509.349 297.587 511.463 293.918 C 516.021 286.002 531.758 278.716 540.933 280.271 C 548.252 281.512 548.311 281.418 548.311 268.36 L 548.311 255.199 L 539.592 255.271 C 534.798 255.312 528.458 256.538 525.507 257.997 Z M 396.733 274.714 C 381.978 285.389 367.794 295.14 365.21 296.38 C 355.734 300.938 359.745 309.015 378.259 322.657 C 388.016 329.847 399.687 338.578 404.188 342.057 C 408.693 345.538 415.8 350.196 419.982 352.41 L 427.585 356.434 L 427.585 345.901 C 427.585 335.708 426.973 334.939 408.87 322.325 C 398.576 315.155 390.125 308.075 390.09 306.594 C 390.055 305.113 398.477 297.596 408.806 289.887 C 426.719 276.517 427.585 275.392 427.585 265.533 C 427.585 259.85 426.678 255.223 425.573 255.252 C 424.468 255.28 411.488 264.038 396.733 274.714 Z"
        fill="#03aa39"
        stroke-width="1"
        fill-rule="evenodd"/>
</svg>
