<svg
    xmlns="http://www.w3.org/2000/svg"
    viewBox="0 0 1580 390"
    id="vector"
    width="1580px"
    height="390px">
    <g id="cachos">
        <path
            id="path_1"
            d="M 611 193.673 L 624 199 L 624 237 C 620.8 233.8 614.46 234.667 611.689 235.5 C 613.077 219.974 612.906 205.571 611 193.673 Z M 392 263.463 L 408.571 263.463 C 414.847 291.476 447.15 351.208 501.5 355.5 L 501.5 369 C 438.848 366.413 402.502 299.703 392 263.463 Z"
            fill="#057e2c"
            fill-opacity="0.7755613111161977"
            stroke-width="1"/>
        <path
            id="path_2"
            d="M 584.743 177.86 C 588.064 174.062 589.974 173.128 591.851 169.042 C 584.728 167.872 579.967 168.04 577.604 170.648 C 576.819 172.64 579.508 173.331 584.743 177.86 Z"
            fill="#03aa39"
            fill-opacity="0"
            stroke-width="1"/>
        <path
            id="path_3"
            d="M 409.333 77.008 C 400.406 85.281 398.456 86.276 394.565 84.605 C 383.437 79.82 377.176 79.075 367.147 81.349 C 350.205 85.191 338.648 97.478 336.479 113.936 C 336.004 117.412 334.133 118.848 328.54 120.056 C 316.757 122.62 308.932 127.064 303.765 134.127 C 297.039 143.322 295.602 155.004 300.169 166.803 C 301.431 169.956 302.694 173.108 303.956 176.261 C 301.816 178.288 299.675 180.315 297.535 182.343 C 293.216 186.427 290.334 191.124 288.795 196.006 C 287.256 200.889 287.061 205.958 288.116 210.786 C 289.171 215.614 291.476 220.201 294.939 224.122 C 298.401 228.042 303.021 231.295 308.706 233.454 C 313.535 235.29 315.689 237.595 316.766 242.071 C 319.491 253.402 323.574 257.997 335.364 263.002 C 343.378 266.405 360.675 265.862 364.566 264.995 C 361.598 260.843 365.118 263.334 370.213 259.42 C 381.969 250.368 385.427 233.407 377.922 221.641 C 376.626 219.611 375.33 217.581 374.034 215.551 C 375.934 214.856 377.835 214.162 379.736 213.468 C 382.868 212.318 388.345 208.463 391.91 204.911 C 394.073 202.76 396.236 200.609 398.399 198.458 C 400.47 199.835 402.54 201.211 404.611 202.587 C 412.12 207.565 424.566 210.316 433.215 208.915 C 436.722 208.351 443.208 205.363 447.629 202.283 C 452.05 199.2 456.27 197.462 457.01 198.427 C 460.984 203.6 475.223 207.46 483.333 207.469 C 490.19 207.478 497.144 200.343 502.316 194.445 C 498.263 190.941 496.184 190.414 496.8 188.878 C 498.639 186.865 502.339 186.743 507.87 187.66 C 510.189 182.636 511.453 177.833 509.424 174.95 C 506.512 170.815 501.183 171.206 500.447 175.91 C 498.946 185.431 480.444 202.123 468.231 195.456 C 461.483 191.774 461.372 191.494 462.694 181.975 C 464.285 170.519 462.056 164.299 453.467 156.247 C 448.774 151.851 444.843 150.158 437.685 149.443 C 426.902 148.364 418.003 151.579 418.011 156.562 C 418.018 159.229 419.531 159.616 427.108 158.861 C 441.302 157.437 453.422 166.987 453.43 179.606 C 453.438 185.946 444.436 195.007 435.514 197.657 C 431.006 199.003 426.89 199.387 422.666 198.729 C 418.442 198.071 414.111 196.372 409.174 193.554 C 402.475 189.725 401.668 188.406 401.597 181.183 C 401.512 172.511 396.122 163.803 388.619 160.212 C 381.116 156.621 373.114 156.357 369.524 159.59 C 365.329 163.368 366.981 166.065 373.5 166.076 C 379.964 166.087 388.093 172.882 390.902 180.629 C 396.813 196.934 373.86 212.697 356.17 204.507 C 349.855 201.587 349.63 201.626 349.638 205.321 C 349.646 207.514 354.56 213.419 361.105 219.105 C 371.611 228.227 372.564 229.743 372.572 237.374 C 372.579 257.677 341.71 265.659 330.285 248.327 C 325.704 241.381 325.926 237.655 331.004 236.225 C 333.671 235.479 335.181 233.427 335.188 230.542 C 335.195 225.607 333.232 224.812 329.451 228.218 C 325.869 231.446 312.381 227.338 305.678 220.991 C 300.576 216.161 298.73 209.513 299.579 199.038 C 299.753 196.977 302.721 192.221 306.179 188.481 C 311.962 182.211 312.87 181.868 317.518 184.037 C 324.401 187.247 340.227 185.316 341.124 181.178 C 341.673 178.655 340.076 178.13 332.287 178.247 C 324.106 178.371 321.942 177.562 316.8 172.406 C 309.308 164.894 308.005 157.425 312.59 148.271 C 319.618 134.233 335.795 129.17 348.244 137.123 C 354.035 140.825 354.718 140.901 357.919 138.051 C 361.12 135.2 360.93 134.685 355.154 130.568 C 349.928 126.843 348.928 124.795 348.822 117.58 C 348.653 106.276 355.559 98.824 369.09 95.71 C 376.853 93.931 380.479 93.981 387.07 95.943 C 395.38 99.156 394.67 101.574 395.577 111.381 C 396.526 121.635 405.013 129.204 411.484 128.072 C 417.027 126.941 415.975 120.191 410.751 115.22 C 406.049 110.72 406.061 106.246 407.505 96.537 C 408.16 91.994 418.606 83.032 425.657 80.937 C 435.195 78.104 445.568 79.955 453.418 85.883 C 458.802 89.954 459.678 91.899 459.656 99.577 C 459.635 106.019 460.536 108.841 462.884 109.651 C 467.721 111.316 467.872 111.188 467.851 106.041 C 467.829 96.809 477.196 89.168 489.634 88.255 C 498.994 87.563 503.107 88.604 509.176 93.192 C 514.64 97.322 515.536 99.269 515.514 106.81 C 515.493 114.114 514.433 116.499 509.344 120.845 C 504.536 124.948 502.006 125.81 497.682 124.837 C 492.815 123.741 492.225 124.095 492.801 127.852 C 494.193 136.774 516.834 132.018 521.895 121.726 C 524.947 115.495 531.638 113.903 543.632 116.554 C 554.903 119.045 560.606 124.734 562.099 134.975 C 563.138 142.144 562.521 144.06 557.586 149.303 C 553.602 153.532 550.083 155.352 545.91 155.347 C 542.058 155.342 539.927 156.307 539.905 158.063 C 539.884 162.118 547.58 165.06 554.571 163.675 C 559.705 162.654 561.702 163.423 566.868 168.394 C 571.953 173.287 573.026 175.918 573.004 183.324 C 572.983 191.223 562.805 195.987 557.202 199.544 C 553.179 202.106 545.043 201.655 541.745 201.091 C 538.328 200.505 527.687 195.969 508.955 184.781 C 507.494 187.949 506.008 188.672 503.427 191.617 C 514.13 200.878 532.192 213.93 557.138 210.212 C 566.311 206.499 582.975 192.693 582.952 182.303 C 582.933 175.113 579.117 163.809 571.566 158.492 C 566.924 155.23 566.754 154.639 569.619 150.943 C 573.626 145.787 573.608 130.497 569.565 123.521 C 563.356 112.797 544.29 103.618 532.355 105.616 C 525.411 106.774 525.244 106.657 523.891 99.189 C 520.52 80.424 490.426 70.326 473.452 82.27 C 466.208 87.354 465.242 87.221 462.226 80.737 C 459.022 73.848 443.404 67.516 429.59 67.511 C 420.407 67.506 418.921 68.195 409.397 77.023 C 409.376 77.018 409.355 77.013 409.333 77.008"
            fill="#03aa39"
            stroke-width="1"/>
    </g>
    <g id="eis">
        <path
            id="path_4"
            d="M 1034.43 266.73 C 1012.52 273.728 995.193 296.541 995.193 318.39 C 995.193 331.326 1004.56 352.922 1013.21 359.939 C 1027.92 371.865 1062.06 375.243 1080.9 366.634 C 1091.77 361.663 1103.27 350.6 1101.77 346.557 C 1100.6 343.427 1078.36 337.59 1078.36 340.412 C 1078.36 341.614 1074.44 344.742 1069.64 347.362 C 1052.83 356.547 1034.81 351.975 1027.11 336.566 L 1022.27 326.902 L 1066.41 326.244 L 1110.55 325.585 L 1110.55 318.2 C 1110.55 314.138 1108.72 305.161 1106.48 298.25 C 1097.71 271.225 1065.07 256.944 1034.43 266.73 Z M 1199.97 267.857 C 1186.84 273.197 1180.36 281.053 1178.43 293.966 C 1175.83 311.296 1188.82 323.058 1215.18 327.26 C 1241.62 331.477 1250.34 337.669 1243.01 347.037 C 1239.76 351.196 1236.27 352.143 1224.18 352.143 C 1211.19 352.143 1208.49 351.278 1202.58 345.251 C 1196.32 338.852 1195.09 338.53 1185.39 340.737 C 1173.68 343.4 1173.01 344.859 1179.45 353.677 C 1188.16 365.581 1202.42 371.375 1223 371.375 C 1233.27 371.375 1245.06 370.233 1249.21 368.836 C 1259.89 365.247 1269.14 355.59 1271.75 345.311 C 1276.44 326.859 1259.14 311.666 1227.8 306.721 C 1210.41 303.976 1204.45 300.866 1204.45 294.529 C 1204.45 282.363 1226.93 278.312 1238.23 288.44 C 1245.5 294.952 1251.13 295.793 1262.2 292.022 L 1269.33 289.594 L 1263.86 281.805 C 1252.12 265.103 1222.59 258.655 1199.97 267.857 Z M 1131.44 283.021 C 1130.81 284.68 1130.5 295.772 1130.75 307.671 C 1131.01 319.57 1131.39 338.229 1131.62 349.138 L 1132.02 368.971 L 1158.96 368.971 L 1158.24 325.099 L 1157.5 281.228 L 1145.05 280.617 C 1136.95 280.218 1132.2 281.057 1131.44 283.021 Z M 1036.78 289.12 C 1031.51 293.166 1022.02 305.048 1022.02 307.587 C 1022.02 308.294 1035.9 308.873 1052.87 308.873 C 1070.64 308.873 1083.73 307.902 1083.73 306.582 C 1083.73 300.786 1076.63 291.368 1069.92 288.259 C 1059.94 283.632 1043.35 284.062 1036.78 289.12 Z"
            fill="#03aa39"
            fill-opacity="0"
            stroke-width="1"
            fill-rule="evenodd"/>
        <path
            id="path_5"
            d="M 1139.1 -260 C 1134.831 -260 1130.733 -258.476 1127.714 -255.767 C 1124.696 -253.057 1122.998 -249.378 1122.998 -245.546 C 1122.998 -241.714 1124.696 -238.035 1127.714 -235.3"
            fill="#099c41"
            stroke-width="1"/>
    </g>
    <g id="ick">
        <path
            id="path_6"
            d="M 780.569 295.651 L 780.569 368.971 L 810.08 368.971 L 810.08 353.879 C 810.08 339.008 811.744 335.814 822.638 329.78 C 824.326 328.847 830.51 334.027 837.166 341.951 C 843.543 349.54 850.923 357.845 853.566 360.41 C 856.208 362.973 858.371 365.947 858.371 367.021 C 858.371 368.093 866.827 368.971 877.161 368.971 L 895.951 368.971 L 871.795 342.145 C 858.51 327.393 847.639 314.267 847.639 312.979 C 847.639 311.693 849.753 308.887 852.334 306.748 C 863.886 297.171 890.194 268.478 888.673 267.112 C 887.745 266.283 880.957 265.603 873.59 265.603 L 860.192 265.603 L 835.226 289.041 L 810.263 312.479 L 810.171 267.406 L 810.08 222.332 L 780.569 222.332 L 780.569 295.651 Z M 699.777 264.244 C 698.87 265.074 695.321 266.237 691.889 266.831 C 675.68 269.627 656.189 291.673 652.187 311.734 C 649.576 324.813 657.067 346.564 667.406 355.932 C 683.28 370.312 714.484 375.783 735.587 367.882 C 751.92 361.766 769.1 339.225 757.728 338.83 C 756.274 338.78 751.617 337.915 747.38 336.907 C 741.234 335.448 738.903 336.071 735.842 339.987 C 728.051 349.951 711.549 354.155 700.085 349.095 C 685.896 342.831 681.274 335.148 681.4 318.046 C 681.51 303.428 685.276 295.981 695.643 289.887 C 706.025 283.786 725.83 286.651 733.599 295.38 C 739.05 301.505 739.646 301.62 749.704 298.5 C 755.448 296.719 760.51 294.267 760.958 293.053 C 762.839 287.933 750.737 275.509 738.849 270.35 C 726.339 264.925 703.018 261.278 699.777 264.244 Z M 602.801 282.365 C 601.81 283.114 601 302.914 601 326.365 L 601 369 L 628 369 L 628 281 L 616.301 281 C 609.864 281 603.789 281.614 602.801 282.365 Z"
            fill="#03aa39"
            fill-opacity="0"
            stroke-width="1"
            fill-rule="evenodd"/>
        <path
            id="path_7"
            d="M 614 239 C 609.758 239 605.686 240.529 602.686 243.247 C 599.687 245.965 598 249.656 598 253.5 C 598 257.344 599.687 261.035 602.686 263.753 C 605.686 266.471 609.758 268 614 268 C 618.242 268 622.314 266.471 625.314 263.753 C 628.313 261.035 630 257.344 630 253.5 C 630 249.656 628.313 245.965 625.314 243.247 C 622.314 240.529 618.242 239 614 239 Z"
            fill="#099c41"
            fill-opacity="0"
            stroke-width="1"/>
    </g>
    <path
        id="r2"
        d="M 657.015 267.761 C 652.988 270.076 647.432 274.305 644.671 277.156 C 638.804 283.218 636.172 281.819 636.172 272.641 C 636.172 266.297 635.761 266.107 624.77 267.365 C 618.5 268.081 613.279 268.79 613.172 268.939 C 613.065 269.086 613.505 291.654 614.151 319.09 L 615.326 368.971 L 641.537 368.971 L 641.548 338.321 C 641.556 312.171 642.326 306.541 646.79 299.981 C 652.282 291.909 668.98 285.755 677.468 288.673 C 681.111 289.928 681.779 288.069 681.779 276.677 L 683 263.374 L 673.06 263.374 C 668.263 263.47 661.044 265.444 657.015 267.761 Z"
        fill="#03aa39"
        stroke-width="1"
        fill-rule="evenodd"/>
    <path
        id="r1"
        d="M 548.507 265.997 C 545.556 267.456 539.82 271.413 535.764 274.788 L 528.386 280.925 L 528.386 273.264 C 528.386 266.401 527.571 265.603 520.558 265.603 C 503.678 265.603 504.241 263.766 504.241 318.746 L 504.241 368.971 L 531.069 368.971 L 531.109 338.321 C 531.133 318.77 532.349 305.587 534.463 301.918 C 539.021 294.002 554.758 286.716 563.933 288.271 C 571.252 289.512 571.311 289.418 571.311 276.36 L 571.311 263.199 L 562.592 263.271 C 557.798 263.312 551.458 264.538 548.507 265.997 Z"
        fill="#03aa39"
        stroke-width="1"
        fill-rule="evenodd"/>
</svg>
