<svg
    xmlns="http://www.w3.org/2000/svg"
    viewBox="0 0 1580 390"
    id="logo_rickreis"
    width="1580px"
    height="390px">
    <g id="cachos">
        <path
            id="path"
            d="M 394.747 361.985 C 321.323 372.76 277.473 295.052 266 255.463 L 282.571 255.463 C 289.76 287.551 333.067 360.756 402 345.231 C 405.528 347.541 410.971 351.076 415.211 353.762 C 416.526 354.595 417.726 355.346 418.716 355.953 L 421.5 357.5 C 421.5 357.511 421.49 357.516 421.469 357.513 C 413.726 360.801 404.005 360.627 394.747 361.985 Z M 498 185.673 L 498 235.873 C 497.211 240.571 497.929 247.662 496.5 253.5 C 485.793 253 483.256 255.602 480.707 260.5 C 486.501 232.854 485.913 202.037 482.703 182 L 498 185.673 Z"
            fill="#057e2c"
            fill-opacity="0.6456916099773247"
            stroke-width="1"/>
        <path
            id="path_1"
            d="M 458.743 169.86 C 462.064 166.062 463.974 165.128 465.851 161.042 C 458.728 159.872 453.967 160.04 451.604 162.648 C 450.819 164.64 453.508 165.331 458.743 169.86 Z"
            fill="#03aa39"
            fill-opacity="0.6456916099773247"
            stroke-width="1"/>
        <path
            id="path_2"
            d="M 336.291 25.882 C 336.292 25.882 336.294 25.882 336.295 25.883 C 348.345 14.683 350.204 13.804 361.821 13.804 C 379.311 13.805 399.089 21.826 403.126 30.556 C 406.924 38.771 408.124 38.934 417.282 32.481 C 438.779 17.331 476.911 30.128 481.159 53.916 C 482.849 63.379 483.036 63.521 491.815 62.046 C 506.922 59.508 531.071 71.139 538.918 84.732 C 544.019 93.57 544.015 112.951 538.909 119.483 C 535.252 124.163 535.441 124.906 541.302 129.036 C 550.864 135.775 555.689 150.105 555.7 159.218 C 555.717 172.389 534.576 189.891 522.931 194.596 C 491.295 199.308 468.387 182.758 454.81 171.013 C 458.077 167.278 459.955 166.36 461.801 162.342 C 485.545 176.526 499.031 182.276 503.357 183.018 C 507.532 183.732 517.842 184.301 522.936 181.051 C 530.016 176.536 542.895 170.49 542.896 160.468 C 542.898 151.071 541.512 147.729 535.039 141.519 C 528.464 135.21 525.907 134.229 519.371 135.518 C 510.482 137.268 500.698 133.531 500.7 128.385 C 500.701 126.152 503.379 124.923 508.237 124.924 C 513.502 124.924 517.938 122.61 522.965 117.242 C 529.196 110.588 529.954 108.153 528.61 99.058 C 526.691 86.066 519.435 78.846 505.119 75.682 C 489.886 72.316 481.376 74.328 477.482 82.222 C 471.039 95.266 442.305 101.29 440.515 89.972 C 439.76 85.202 440.482 84.748 446.628 86.131 C 452.085 87.358 455.268 86.259 461.338 81.052 C 467.765 75.536 469.084 72.505 469.085 63.239 C 469.087 53.671 467.925 51.196 460.972 45.953 C 453.252 40.131 448.011 38.805 436.118 39.676 C 420.322 40.827 408.42 50.51 408.421 62.209 C 408.423 68.729 408.206 68.886 402.047 66.768 C 399.045 65.735 397.877 62.152 397.879 53.978 C 397.88 44.237 396.745 41.764 389.892 36.597 C 379.914 29.074 366.736 26.722 354.617 30.308 C 345.652 32.958 332.381 44.315 331.525 50.069 C 329.694 62.38 330.575 66.487 336.537 71.85 C 343.161 77.81 343.162 84.98 336.447 85.064 C 328.556 85.148 320.358 73.748 319.155 60.747 C 318.005 48.313 317.804 47.789 307.565 44.704 C 299.212 42.232 294.62 42.184 284.782 44.457 C 267.631 48.421 258.88 57.885 259.1 72.233 C 259.24 81.397 260.514 84.009 267.146 88.748 C 274.475 93.984 274.722 94.651 270.669 98.282 C 266.617 101.912 265.757 101.83 258.421 97.151 C 242.643 87.083 222.139 93.518 213.234 111.331 C 207.428 122.954 209.086 132.439 218.594 141.979 C 225.12 148.531 227.871 149.572 238.252 149.43 C 248.134 149.296 250.167 149.977 249.478 153.19 C 248.349 158.452 228.29 160.914 219.571 156.859 C 213.685 154.123 212.542 154.573 205.218 162.537 C 200.841 167.294 197.086 173.338 196.874 175.966 C 196.66 178.624 196.583 181.089 196.648 183.379 C 196.713 185.67 196.92 187.787 197.276 189.751 C 197.631 191.714 198.135 193.524 198.792 195.202 C 199.449 196.879 200.26 198.423 201.231 199.855 C 202.201 201.287 203.331 202.606 204.626 203.833 C 213.133 211.895 230.243 217.118 234.793 213.04 C 239.597 208.735 242.095 209.757 242.094 216.027 C 242.094 219.7 240.188 222.316 236.816 223.275 C 230.386 225.102 230.114 229.841 235.931 238.661 C 250.427 260.65 289.576 250.544 289.575 224.814 C 289.575 215.152 288.376 213.243 275.064 201.69 C 266.775 194.494 260.553 187.021 260.553 184.254 C 260.552 179.582 260.847 179.546 268.863 183.261 C 291.303 193.659 320.415 173.686 312.93 153.025 C 309.378 143.216 299.081 134.613 290.894 134.612 C 282.638 134.611 280.554 131.204 285.882 126.426 C 290.443 122.34 300.599 122.687 310.122 127.254 C 319.645 131.82 326.489 142.873 326.606 153.881 C 326.706 163.052 327.74 164.737 336.242 169.603 C 348.783 176.776 358.247 178.27 369.699 174.882 C 381.022 171.534 392.445 160.056 392.444 152.03 C 392.444 136.042 377.086 123.945 359.099 125.763 C 349.501 126.732 347.592 126.253 347.592 122.883 C 347.591 116.576 358.885 112.511 372.566 113.891 C 381.651 114.81 386.644 116.968 392.604 122.554 C 403.504 132.774 406.339 140.672 404.331 155.209 C 402.663 167.29 402.813 167.656 411.379 172.335 C 426.872 180.8 450.34 159.647 452.253 147.586 C 453.194 141.633 459.96 141.147 463.661 146.402 C 466.242 150.068 464.648 156.169 461.716 162.55 C 454.711 161.398 450.029 161.563 447.705 164.127 C 446.933 166.085 449.576 166.764 454.724 171.217 C 448.174 178.706 439.364 187.763 430.678 187.762 C 420.403 187.762 402.357 182.878 397.326 176.329 C 396.394 175.116 391.052 177.33 385.453 181.249 C 379.855 185.165 371.638 188.963 367.198 189.688 C 356.239 191.475 340.466 187.996 330.951 181.694 C 328.332 179.959 325.713 178.225 323.094 176.49 C 320.358 179.226 317.622 181.963 314.886 184.7 C 310.371 189.214 303.433 194.112 299.467 195.579 C 297.063 196.469 294.659 197.358 292.254 198.248 C 293.903 200.832 295.551 203.415 297.2 205.998 C 306.721 220.926 302.342 242.441 287.44 253.928 C 280.985 258.9 276.527 255.751 280.294 261.024 C 275.365 262.132 253.437 262.829 243.28 258.524 C 228.334 252.186 223.161 246.37 219.71 232.012 C 218.348 226.345 215.62 223.432 209.5 221.112 C 180.683 210.198 173.452 177.092 195.362 156.413 C 198.076 153.851 200.791 151.288 203.506 148.726 C 201.905 144.737 200.304 140.748 198.704 136.758 C 192.914 122.294 194.215 110.035 202.743 98.376 C 209.294 89.421 219.217 83.785 234.157 80.535 C 241.223 78.997 243.57 77.17 244.147 72.757 C 246.871 51.884 261.498 36.299 282.954 31.421 C 295.644 28.532 303.558 29.471 317.641 35.532 C 322.55 37.644 324.997 36.377 336.291 25.882"
            fill="#03aa39"
            stroke-width="1"/>
    </g>
    <g id="eis">
        <path
            id="path_5"
            d="M 1011.43 258.73 C 989.519 265.728 972.193 288.541 972.193 310.39 C 972.193 323.326 981.559 344.922 990.211 351.939 C 1004.92 363.865 1039.06 367.243 1057.9 358.634 C 1068.77 353.663 1080.27 342.6 1078.77 338.557 C 1077.6 335.427 1055.36 329.59 1055.36 332.412 C 1055.36 333.614 1051.44 336.742 1046.64 339.362 C 1029.83 348.547 1011.81 343.975 1004.11 328.566 L 999.274 318.902 L 1043.41 318.244 L 1087.55 317.585 L 1087.55 310.2 C 1087.55 306.138 1085.72 297.161 1083.48 290.25 C 1074.71 263.225 1042.07 248.944 1011.43 258.73 Z M 1176.97 259.857 C 1163.84 265.197 1157.36 273.053 1155.43 285.966 C 1152.83 303.296 1165.82 315.058 1192.18 319.26 C 1218.62 323.477 1227.34 329.669 1220.01 339.037 C 1216.76 343.196 1213.27 344.143 1201.18 344.143 C 1188.19 344.143 1185.49 343.278 1179.58 337.251 C 1173.32 330.852 1172.09 330.53 1162.39 332.737 C 1150.68 335.4 1150.01 336.859 1156.45 345.677 C 1165.16 357.581 1179.42 363.375 1200 363.375 C 1210.27 363.375 1222.06 362.233 1226.21 360.836 C 1236.89 357.247 1246.14 347.59 1248.75 337.311 C 1253.44 318.859 1236.14 303.666 1204.8 298.721 C 1187.41 295.976 1181.45 292.866 1181.45 286.529 C 1181.45 274.363 1203.93 270.312 1215.23 280.44 C 1222.5 286.952 1228.13 287.793 1239.2 284.022 L 1246.33 281.594 L 1240.86 273.805 C 1229.12 257.103 1199.59 250.655 1176.97 259.857 Z M 1108.44 275.021 C 1107.81 276.68 1107.5 287.772 1107.75 299.671 C 1108.01 311.57 1108.39 330.229 1108.62 341.138 L 1109.02 360.971 L 1135.96 360.971 L 1135.24 317.099 L 1134.5 273.228 L 1122.05 272.617 C 1113.95 272.218 1109.2 273.057 1108.44 275.021 Z M 1013.78 281.12 C 1008.51 285.166 999.021 297.048 999.021 299.587 C 999.021 300.294 1012.9 300.873 1029.87 300.873 C 1047.64 300.873 1060.73 299.902 1060.73 298.582 C 1060.73 292.786 1053.63 283.368 1046.92 280.259 C 1036.94 275.632 1020.35 276.062 1013.78 281.12 Z"
            fill="#03aa39"
            fill-opacity="0"
            stroke-width="1"
            fill-rule="evenodd"/>
        <path
            id="path_6"
            d="M 1122.58 230.844 C 1119.18 230.844 1115.866 231.81 1113.115 233.604 C 1110.365 235.398 1108.317 237.929 1107.266 240.831 C 1106.215 243.734 1106.215 246.862 1107.266 249.765 C 1108.317 252.667 1110.365 255.198 1113.115 256.992 C 1115.866 258.786 1119.18 259.752 1122.58 259.752 C 1126.849 259.752 1130.947 258.228 1133.966 255.519 C 1136.984 252.809 1138.682 249.13 1138.682 245.298 C 1138.682 241.466 1136.984 237.787 1133.966 235.077 C 1130.947 232.368 1126.849 230.844 1122.58 230.844 Z"
            fill="#099c41"
            fill-opacity="0"
            stroke-width="1"/>
    </g>
    <g id="ick">
        <path
            id="path_7"
            d="M 757.569 287.651 L 757.569 360.971 L 787.08 360.971 L 787.08 345.879 C 787.08 331.008 788.744 327.814 799.638 321.78 C 801.326 320.847 807.51 326.027 814.166 333.951 C 820.543 341.54 827.923 349.845 830.566 352.41 C 833.208 354.973 835.371 357.947 835.371 359.021 C 835.371 360.093 843.827 360.971 854.161 360.971 L 872.951 360.971 L 848.795 334.145 C 835.51 319.393 824.639 306.267 824.639 304.979 C 824.639 303.693 826.753 300.887 829.334 298.748 C 840.886 289.171 867.194 260.478 865.673 259.112 C 864.745 258.283 857.957 257.603 850.59 257.603 L 837.192 257.603 L 812.226 281.041 L 787.263 304.479 L 787.171 259.406 L 787.08 214.332 L 757.569 214.332 L 757.569 287.651 Z M 676.777 256.244 C 675.87 257.074 672.321 258.237 668.889 258.831 C 652.68 261.627 633.189 283.673 629.187 303.734 C 626.576 316.813 634.067 338.564 644.406 347.932 C 660.28 362.312 691.484 367.783 712.587 359.882 C 728.92 353.766 746.1 331.225 734.728 330.83 C 733.274 330.78 728.617 329.915 724.381 328.907 C 718.234 327.448 715.903 328.071 712.842 331.987 C 705.051 341.951 688.549 346.155 677.085 341.095 C 662.896 334.831 658.274 327.148 658.4 310.046 C 658.51 295.428 662.276 287.981 672.643 281.887 C 683.025 275.786 702.83 278.651 710.599 287.38 C 716.05 293.505 716.646 293.62 726.704 290.5 C 732.448 288.719 737.51 286.267 737.958 285.053 C 739.839 279.933 727.737 267.509 715.849 262.35 C 703.339 256.925 680.018 253.278 676.777 256.244 Z M 579.611 259.206 C 578.627 260.086 577.822 283.344 577.822 310.89 L 577.822 360.971 L 604.65 360.971 L 604.65 257.603 L 593.025 257.603 C 586.63 257.603 580.593 258.324 579.611 259.206 Z"
            fill="#03aa39"
            fill-opacity="0"
            stroke-width="1"
            fill-rule="evenodd"/>
        <path
            id="path_8"
            d="M 594 217 C 589.758 217 585.686 218.529 582.686 221.247 C 579.687 223.965 578 227.656 578 231.5 C 578 235.344 579.687 239.035 582.686 241.753 C 585.686 244.471 589.758 246 594 246 C 598.242 246 602.314 244.471 605.314 241.753 C 608.313 239.035 610 235.344 610 231.5 C 610 227.656 608.313 223.965 605.314 221.247 C 602.314 218.529 598.242 217 594 217 Z"
            fill="#099c41"
            fill-opacity="0"
            stroke-width="1"/>
    </g>
    <g
        id="barra"
        transform="translate(-600 0)">
        <path
            id="path_3"
            d="M 1330.35 271.134 C 1328.34 280.711 1327.91 280.161 1348.06 293.661 C 1363.06 303.712 1372.17 310.832 1372.17 312.505 C 1372.16 313.38 1367.03 317.068 1360.76 320.703 C 1337.93 333.941 1331.93 340.561 1331.93 352.523 C 1331.93 358.492 1332.53 363.375 1333.25 363.375 C 1333.98 363.375 1337.3 361.312 1340.63 358.793 C 1343.96 356.273 1354.53 348.72 1364.12 342.009 C 1397.53 318.631 1399 317.342 1399 311.457 C 1399 305.722 1396.27 303.64 1346.16 271.214 L 1332.22 262.192 L 1330.35 271.134 Z"
            fill="#03aa39"
            stroke-width="1"
            fill-rule="evenodd"/>
        <path
            id="path_4"
            d="M 1303.52 241.977 L 1259.25 379 L 1278.03 379 L 1320.96 241.977 L 1303.52 241.977 Z"
            fill="#03aa39"
            stroke-width="1"/>
    </g>
    <path
        id="r"
        d="M 634.015 259.761 C 629.988 262.076 624.432 266.305 621.671 269.156 C 615.804 275.218 613.172 273.819 613.172 264.641 C 613.172 258.297 612.761 258.107 601.77 259.365 C 595.5 260.081 590.279 260.79 590.172 260.939 C 590.065 261.086 590.505 283.654 591.151 311.09 L 592.326 360.971 L 618.537 360.971 L 618.548 330.321 C 618.556 304.171 619.326 298.541 623.79 291.981 C 629.282 283.909 645.98 277.755 654.468 280.673 C 658.111 281.928 658.779 280.069 658.779 268.677 L 660 255.374 L 650.06 255.374 C 645.263 255.47 638.044 257.444 634.015 259.761"
        fill="#03aa39"
        stroke-width="1"
        fill-rule="evenodd"/>
    <path
        id="r_1"
        d="M 525.507 257.997 C 522.556 259.456 516.82 263.413 512.764 266.788 L 505.386 272.925 L 505.386 265.264 C 505.386 258.401 504.571 257.603 497.558 257.603 C 480.678 257.603 481.241 255.766 481.241 310.746 L 481.241 360.971 L 508.069 360.971 L 508.109 330.321 C 508.133 310.77 509.349 297.587 511.463 293.918 C 516.021 286.002 531.758 278.716 540.933 280.271 C 548.252 281.512 548.311 281.418 548.311 268.36 L 548.311 255.199 L 539.592 255.271 C 534.798 255.312 528.458 256.538 525.507 257.997 Z M 396.733 274.714 C 381.978 285.389 367.794 295.14 365.21 296.38 C 355.734 300.938 359.745 309.015 378.259 322.657 C 388.016 329.847 399.687 338.578 404.188 342.057 C 408.693 345.538 415.8 350.196 419.982 352.41 L 427.585 356.434 L 427.585 345.901 C 427.585 335.708 426.973 334.939 408.87 322.325 C 398.576 315.155 390.125 308.075 390.09 306.594 C 390.055 305.113 398.477 297.596 408.806 289.887 C 426.719 276.517 427.585 275.392 427.585 265.533 C 427.585 259.85 426.678 255.223 425.573 255.252 C 424.468 255.28 411.488 264.038 396.733 274.714 Z"
        fill="#03aa39"
        stroke-width="1"
        fill-rule="evenodd"/>
</svg>
