<svg
    xmlns="http://www.w3.org/2000/svg"
    viewBox="0 0 1580 390"
    id="vector"
    width="1580px"
    height="390px">
    <g id="cachos">
        <path
            id="path_1"
            d="M 611 193.673 L 624 199 L 624 237 C 620.8 233.8 614.46 234.667 611.689 235.5 C 613.077 219.974 612.906 205.571 611 193.673 Z M 392 263.463 L 408.571 263.463 C 414.847 291.476 447.15 351.208 501.5 355.5 L 501.5 369 C 438.848 366.413 402.502 299.703 392 263.463 Z"
            fill="#057e2c"
            fill-opacity="0"
            stroke-width="1"/>
        <path
            id="path_2"
            d="M 584.743 177.86 C 588.064 174.062 589.974 173.128 591.851 169.042 C 584.728 167.872 579.967 168.04 577.604 170.648 C 576.819 172.64 579.508 173.331 584.743 177.86 Z"
            fill="#03aa39"
            fill-opacity="0"
            stroke-width="1"/>
        <path
            id="path_3"
            d="M 219.507 238.467 C 219.412 238.445 219.317 238.423 219.221 238.4 C 219.126 238.378 219.031 238.356 218.936 238.334 C 218.841 238.312 218.745 238.289 218.65 238.267 C 218.555 238.245 218.46 238.222 218.365 238.2 C 218.365 238.2 218.365 238.2 218.365 238.2 C 218.365 238.2 216.422 247.729 216.422 249.578 C 216.422 249.608 216.423 249.638 216.425 249.668 C 216.427 249.698 216.43 249.729 216.434 249.76 C 216.438 249.79 216.442 249.821 216.448 249.852 C 216.454 249.883 216.461 249.915 216.468 249.946 C 216.476 249.978 216.484 250.01 216.493 250.042 C 216.503 250.074 216.513 250.106 216.524 250.139 C 216.535 250.171 216.546 250.204 216.559 250.237 C 216.572 250.27 216.585 250.303 216.599 250.336 C 216.613 250.37 216.628 250.403 216.644 250.437 C 216.66 250.471 216.676 250.505 216.693 250.539 C 216.711 250.574 216.729 250.608 216.747 250.643 C 216.766 250.678 216.785 250.713 216.805 250.748 C 216.825 250.783 216.846 250.819 216.867 250.854 C 216.888 250.89 216.91 250.926 216.933 250.962 C 216.955 250.998 216.978 251.035 217.002 251.071 C 217.026 251.108 217.05 251.145 217.075 251.182 C 217.1 251.219 217.125 251.256 217.151 251.294 C 217.177 251.331 217.203 251.369 217.23 251.407 C 217.257 251.445 217.285 251.483 217.313 251.522 C 217.341 251.56 217.369 251.599 217.398 251.638 C 217.427 251.677 217.456 251.716 217.486 251.755 C 217.516 251.795 217.546 251.834 217.576 251.874 C 217.607 251.914 217.638 251.954 217.669 251.994 C 217.7 252.035 217.732 252.075 217.764 252.116 C 217.796 252.157 217.829 252.198 217.861 252.239 C 217.894 252.281 217.927 252.322 217.96 252.364 C 217.993 252.406 218.027 252.448 218.061 252.49 C 218.094 252.532 218.128 252.575 218.163 252.617 C 218.197 252.66 218.231 252.703 218.266 252.746 C 218.301 252.789 218.336 252.833 218.371 252.876 C 218.406 252.92 218.441 252.964 218.476 253.008 C 218.512 253.052 218.547 253.097 218.583 253.141 C 218.619 253.186 218.654 253.231 218.69 253.276 C 218.726 253.321 218.762 253.366 218.798 253.412 C 218.834 253.457 218.87 253.503 218.906 253.549 C 218.942 253.595 218.978 253.642 219.014 253.688 C 219.051 253.735 219.087 253.781 219.123 253.828 C 219.159 253.876 219.195 253.923 219.231 253.97 C 219.267 254.018 219.303 254.066 219.339 254.114 C 219.375 254.162 219.411 254.21 219.447 254.258 C 219.482 254.307 219.518 254.356 219.553 254.405 C 219.589 254.454 219.624 254.503 219.66 254.552 C 219.695 254.602 219.73 254.652 219.765 254.702 C 219.8 254.751 219.834 254.802 219.869 254.852 C 219.903 254.903 219.938 254.953 219.972 255.004 C 220.006 255.055 220.039 255.107 220.073 255.158 C 220.107 255.209 220.14 255.261 220.173 255.313 C 220.206 255.365 220.238 255.417 220.271 255.47 C 220.303 255.522 220.335 255.575 220.367 255.628 C 220.398 255.681 220.43 255.734 220.461 255.787 C 220.492 255.841 220.522 255.895 220.552 255.949 C 220.583 256.003 220.612 256.057 220.642 256.111 C 220.671 256.166 220.7 256.22 220.728 256.275 C 220.757 256.33 220.785 256.385 220.812 256.441 C 220.84 256.496 220.867 256.552 220.893 256.608 C 220.92 256.664 220.946 256.72 220.971 256.777 C 220.996 256.833 221.021 256.89 221.046 256.947 C 221.07 257.004 221.094 257.061 221.117 257.119 C 221.14 257.176 221.162 257.234 221.184 257.292 C 221.206 257.35 221.228 257.408 221.248 257.467 C 221.269 257.525 221.289 257.584 221.308 257.643 C 221.327 257.702 221.346 257.761 221.364 257.821 C 222.475 261.514 218.364 271 218.364 271 C 218.364 271 227.928 264.271 229.098 259.229 C 230.267 254.187 225.295 249.007 225.295 247.729 C 225.295 246.451 228.642 240.606 228.642 240.606 C 228.547 240.584 228.452 240.561 228.357 240.539 C 228.261 240.517 228.166 240.495 228.071 240.472 C 227.976 240.45 227.881 240.428 227.786 240.405 C 227.69 240.383 227.595 240.361 227.5 240.339 C 227.405 240.316 227.31 240.294 227.215 240.272 C 227.119 240.25 227.024 240.227 226.929 240.205 C 226.834 240.183 226.739 240.16 226.644 240.138 C 226.549 240.116 226.453 240.094 226.358 240.071 C 226.263 240.049 226.168 240.027 226.073 240.005 C 225.978 239.982 225.882 239.96 225.787 239.938 C 225.692 239.915 225.597 239.893 225.502 239.871 C 225.407 239.849 225.311 239.826 225.216 239.804 C 225.121 239.782 225.026 239.759 224.931 239.737 C 224.836 239.715 224.741 239.693 224.645 239.67 C 224.55 239.648 224.455 239.626 224.36 239.603 C 224.265 239.581 224.17 239.559 224.074 239.537 C 223.979 239.514 223.884 239.492 223.789 239.47 C 223.694 239.448 223.599 239.425 223.504 239.403 C 223.408 239.381 223.313 239.358 223.218 239.336 C 223.123 239.314 223.028 239.292 222.933 239.269 C 222.837 239.247 222.742 239.225 222.647 239.202 C 222.623 239.196 222.6 239.191 222.576 239.185 C 222.552 239.18 222.528 239.174 222.505 239.169 C 222.481 239.163 222.457 239.158 222.433 239.153 C 222.41 239.147 222.386 239.142 222.362 239.136 C 222.314 239.125 222.266 239.113 222.219 239.102 C 222.171 239.091 222.124 239.08 222.076 239.069 C 221.981 239.047 221.886 239.024 221.791 239.002 C 221.696 238.98 221.6 238.957 221.505 238.935 C 221.41 238.913 221.315 238.891 221.22 238.868 C 221.125 238.846 221.029 238.824 220.934 238.802 C 220.839 238.78 220.744 238.757 220.649 238.735 C 220.554 238.712 220.458 238.69 220.363 238.668 C 220.268 238.646 220.173 238.623 220.078 238.601 C 219.983 238.579 219.888 238.556 219.792 238.534 C 219.697 238.512 219.602 238.49 219.507 238.467"
            fill="#03aa39"
            stroke-width="1"/>
    </g>
    <g id="eis">
        <path
            id="path_4"
            d="M 1034.43 266.73 C 1012.52 273.728 995.193 296.541 995.193 318.39 C 995.193 331.326 1004.56 352.922 1013.21 359.939 C 1027.92 371.865 1062.06 375.243 1080.9 366.634 C 1091.77 361.663 1103.27 350.6 1101.77 346.557 C 1100.6 343.427 1078.36 337.59 1078.36 340.412 C 1078.36 341.614 1074.44 344.742 1069.64 347.362 C 1052.83 356.547 1034.81 351.975 1027.11 336.566 L 1022.27 326.902 L 1066.41 326.244 L 1110.55 325.585 L 1110.55 318.2 C 1110.55 314.138 1108.72 305.161 1106.48 298.25 C 1097.71 271.225 1065.07 256.944 1034.43 266.73 Z M 1199.97 267.857 C 1186.84 273.197 1180.36 281.053 1178.43 293.966 C 1175.83 311.296 1188.82 323.058 1215.18 327.26 C 1241.62 331.477 1250.34 337.669 1243.01 347.037 C 1239.76 351.196 1236.27 352.143 1224.18 352.143 C 1211.19 352.143 1208.49 351.278 1202.58 345.251 C 1196.32 338.852 1195.09 338.53 1185.39 340.737 C 1173.68 343.4 1173.01 344.859 1179.45 353.677 C 1188.16 365.581 1202.42 371.375 1223 371.375 C 1233.27 371.375 1245.06 370.233 1249.21 368.836 C 1259.89 365.247 1269.14 355.59 1271.75 345.311 C 1276.44 326.859 1259.14 311.666 1227.8 306.721 C 1210.41 303.976 1204.45 300.866 1204.45 294.529 C 1204.45 282.363 1226.93 278.312 1238.23 288.44 C 1245.5 294.952 1251.13 295.793 1262.2 292.022 L 1269.33 289.594 L 1263.86 281.805 C 1252.12 265.103 1222.59 258.655 1199.97 267.857 Z M 1131.44 283.021 C 1130.81 284.68 1130.5 295.772 1130.75 307.671 C 1131.01 319.57 1131.39 338.229 1131.62 349.138 L 1132.02 368.971 L 1158.96 368.971 L 1158.24 325.099 L 1157.5 281.228 L 1145.05 280.617 C 1136.95 280.218 1132.2 281.057 1131.44 283.021 Z M 1036.78 289.12 C 1031.51 293.166 1022.02 305.048 1022.02 307.587 C 1022.02 308.294 1035.9 308.873 1052.87 308.873 C 1070.64 308.873 1083.73 307.902 1083.73 306.582 C 1083.73 300.786 1076.63 291.368 1069.92 288.259 C 1059.94 283.632 1043.35 284.062 1036.78 289.12 Z"
            fill="#03aa39"
            fill-opacity="0"
            stroke-width="1"
            fill-rule="evenodd"/>
        <path
            id="path_5"
            d="M 1139.1 -260 C 1134.831 -260 1130.733 -258.476 1127.714 -255.767 C 1124.696 -253.057 1122.998 -249.378 1122.998 -245.546 C 1122.998 -241.714 1124.696 -238.035 1127.714 -235.3"
            fill="#099c41"
            stroke-width="1"/>
    </g>
    <g id="ick">
        <path
            id="path_6"
            d="M 780.569 295.651 L 780.569 368.971 L 810.08 368.971 L 810.08 353.879 C 810.08 339.008 811.744 335.814 822.638 329.78 C 824.326 328.847 830.51 334.027 837.166 341.951 C 843.543 349.54 850.923 357.845 853.566 360.41 C 856.208 362.973 858.371 365.947 858.371 367.021 C 858.371 368.093 866.827 368.971 877.161 368.971 L 895.951 368.971 L 871.795 342.145 C 858.51 327.393 847.639 314.267 847.639 312.979 C 847.639 311.693 849.753 308.887 852.334 306.748 C 863.886 297.171 890.194 268.478 888.673 267.112 C 887.745 266.283 880.957 265.603 873.59 265.603 L 860.192 265.603 L 835.226 289.041 L 810.263 312.479 L 810.171 267.406 L 810.08 222.332 L 780.569 222.332 L 780.569 295.651 Z M 699.777 264.244 C 698.87 265.074 695.321 266.237 691.889 266.831 C 675.68 269.627 656.189 291.673 652.187 311.734 C 649.576 324.813 657.067 346.564 667.406 355.932 C 683.28 370.312 714.484 375.783 735.587 367.882 C 751.92 361.766 769.1 339.225 757.728 338.83 C 756.274 338.78 751.617 337.915 747.38 336.907 C 741.234 335.448 738.903 336.071 735.842 339.987 C 728.051 349.951 711.549 354.155 700.085 349.095 C 685.896 342.831 681.274 335.148 681.4 318.046 C 681.51 303.428 685.276 295.981 695.643 289.887 C 706.025 283.786 725.83 286.651 733.599 295.38 C 739.05 301.505 739.646 301.62 749.704 298.5 C 755.448 296.719 760.51 294.267 760.958 293.053 C 762.839 287.933 750.737 275.509 738.849 270.35 C 726.339 264.925 703.018 261.278 699.777 264.244 Z M 602.801 282.365 C 601.81 283.114 601 302.914 601 326.365 L 601 369 L 628 369 L 628 281 L 616.301 281 C 609.864 281 603.789 281.614 602.801 282.365 Z"
            fill="#03aa39"
            fill-opacity="0"
            stroke-width="1"
            fill-rule="evenodd"/>
        <path
            id="path_7"
            d="M 614 239 C 609.758 239 605.686 240.529 602.686 243.247 C 599.687 245.965 598 249.656 598 253.5 C 598 257.344 599.687 261.035 602.686 263.753 C 605.686 266.471 609.758 268 614 268 C 618.242 268 622.314 266.471 625.314 263.753 C 628.313 261.035 630 257.344 630 253.5 C 630 249.656 628.313 245.965 625.314 243.247 C 622.314 240.529 618.242 239 614 239 Z"
            fill="#099c41"
            fill-opacity="0"
            stroke-width="1"/>
    </g>
    <path
        id="r2"
        d="M 657.015 267.761 C 652.988 270.076 647.432 274.305 644.671 277.156 C 638.804 283.218 636.172 281.819 636.172 272.641 C 636.172 266.297 635.761 266.107 624.77 267.365 C 618.5 268.081 613.279 268.79 613.172 268.939 C 613.065 269.086 613.505 291.654 614.151 319.09 L 615.326 368.971 L 641.537 368.971 L 641.548 338.321 C 641.556 312.171 642.326 306.541 646.79 299.981 C 652.282 291.909 668.98 285.755 677.468 288.673 C 681.111 289.928 681.779 288.069 681.779 276.677 L 683 263.374 L 673.06 263.374 C 668.263 263.47 661.044 265.444 657.015 267.761 Z"
        fill="#03aa39"
        fill-opacity="0"
        stroke-width="1"
        fill-rule="evenodd"/>
    <path
        id="r1"
        d="M 548.507 265.997 C 545.556 267.456 539.82 271.413 535.764 274.788 L 528.386 280.925 L 528.386 273.264 C 528.386 266.401 527.571 265.603 520.558 265.603 C 503.678 265.603 504.241 263.766 504.241 318.746 L 504.241 368.971 L 531.069 368.971 L 531.109 338.321 C 531.133 318.77 532.349 305.587 534.463 301.918 C 539.021 294.002 554.758 286.716 563.933 288.271 C 571.252 289.512 571.311 289.418 571.311 276.36 L 571.311 263.199 L 562.592 263.271 C 557.798 263.312 551.458 264.538 548.507 265.997 Z"
        fill="#03aa39"
        fill-opacity="0"
        stroke-width="1"
        fill-rule="evenodd"/>
</svg>
