<svg
    xmlns="http://www.w3.org/2000/svg"
    viewBox="0 0 1580 390"
    id="logo_rickreis"
    width="1580px"
    height="390px">
    <g id="cachos">
        <path
            id="path"
            d="M 394.747 361.985 C 321.323 372.76 277.473 295.052 266 255.463 L 282.571 255.463 C 289.76 287.551 333.067 360.756 402 345.231 C 405.528 347.541 410.971 351.076 415.211 353.762 C 416.526 354.595 417.726 355.346 418.716 355.953 L 421.5 357.5 C 421.5 357.511 421.49 357.516 421.469 357.513 C 413.726 360.801 404.005 360.627 394.747 361.985 Z M 498 185.673 L 498 235.873 C 497.211 240.571 497.929 247.662 496.5 253.5 C 485.793 253 483.256 255.602 480.707 260.5 C 486.501 232.854 485.913 202.037 482.703 182 L 498 185.673 Z"
            fill="#057e2c"
            fill-opacity="0"
            stroke-width="1"/>
        <path
            id="path_1"
            d="M 458.743 169.86 C 462.064 166.062 463.974 165.128 465.851 161.042 C 458.728 159.872 453.967 160.04 451.604 162.648 C 450.819 164.64 453.508 165.331 458.743 169.86 Z"
            fill="#03aa39"
            fill-opacity="0"
            stroke-width="1"/>
        <path
            id="path_2"
            d="M 328.858 39.411 C 328.866 39.413 328.873 39.414 328.881 39.416 C 340.17 28.93 341.917 28.109 352.8 28.111 C 369.183 28.112 387.708 35.625 391.495 43.801 C 395.057 51.494 396.186 51.648 404.768 45.608 C 424.903 31.423 460.614 43.407 464.598 65.682 C 466.186 74.545 466.367 74.679 474.594 73.3 C 488.745 70.924 511.363 81.817 518.718 94.545 C 523.499 102.823 523.502 120.972 518.727 127.089 C 515.309 131.473 515.492 132.17 520.986 136.039 C 529.942 142.35 534.463 155.768 534.477 164.302 C 534.496 176.636 514.703 193.024 503.803 197.43 C 474.181 201.843 452.733 186.347 440.022 175.35 C 443.081 171.853 444.842 170.993 446.572 167.232 C 468.806 180.513 481.435 185.897 485.488 186.592 C 489.398 187.261 499.054 187.795 503.825 184.752 C 510.46 180.526 522.526 174.865 522.533 165.483 C 522.541 156.686 521.249 153.558 515.194 147.745 C 509.044 141.839 506.655 140.922 500.541 142.129 C 492.224 143.769 483.069 140.272 483.077 135.455 C 483.084 133.365 485.597 132.216 490.152 132.218 C 495.088 132.22 499.248 130.054 503.961 125.029 C 509.802 118.8 510.517 116.522 509.265 108.006 C 507.474 95.843 500.687 89.084 487.288 86.123 C 473.03 82.972 465.068 84.858 461.427 92.251 C 455.4 104.466 428.502 110.108 426.831 99.512 C 426.13 95.047 426.812 94.623 432.573 95.919 C 437.689 97.07 440.675 96.043 446.365 91.168 C 452.39 86.004 453.63 83.168 453.638 74.492 C 453.645 65.535 452.564 63.219 446.059 58.311 C 438.836 52.861 433.935 51.621 422.805 52.438 C 408.02 53.518 396.882 62.585 396.889 73.542 C 396.897 79.648 396.7 79.796 390.939 77.815 C 388.133 76.849 387.046 73.495 387.054 65.842 C 387.061 56.723 386.004 54.409 379.594 49.572 C 370.256 42.529 357.923 40.328 346.582 43.687 C 338.193 46.17 325.773 56.806 324.977 62.196 C 323.263 73.723 323.875 77.94 329.458 83.044 C 335.66 88.705 335.978 95.749 329.615 96.149 C 322.152 96.548 313.867 86.302 312.741 74.128 C 311.663 62.485 311.737 61.391 302.079 58.267 C 294.257 55.949 289.955 55.9 280.742 58.024 C 264.681 61.732 256.486 70.59 256.691 84.021 C 256.821 92.598 258.012 95.041 264.221 99.475 C 271.082 104.373 271.312 104.995 267.516 108.391 C 263.719 111.786 262.913 111.706 256.043 107.321 C 241.267 97.89 222.066 103.911 213.726 120.588 C 208.288 131.467 209.839 140.345 218.74 149.274 C 224.849 155.406 227.424 156.377 237.142 156.24 C 246.394 156.112 248.296 156.745 247.649 159.751 C 246.589 164.674 227.805 166.976 219.639 163.175 C 214.126 160.61 213.054 161.029 206.193 168.482 C 202.094 172.933 198.576 178.589 198.375 181.046 C 198.173 183.532 198.098 185.836 198.157 187.977 C 198.216 190.119 198.408 192.098 198.739 193.933 C 199.07 195.768 199.539 197.46 200.153 199.027 C 200.766 200.595 201.523 202.037 202.43 203.375 C 203.336 204.712 204.392 205.944 205.602 207.09 C 213.566 214.635 229.585 219.523 233.844 215.701 C 238.339 211.666 240.676 212.621 240.673 218.489 C 240.67 221.925 238.884 224.371 235.724 225.266 C 229.701 226.973 229.444 231.407 234.889 239.663 C 248.46 260.25 285.115 250.783 285.112 226.688 C 285.109 217.638 283.985 215.848 271.518 205.027 C 263.753 198.285 257.926 191.285 257.923 188.691 C 257.92 184.313 258.193 184.276 265.698 187.752 C 286.707 197.486 313.964 178.78 306.953 159.431 C 303.625 150.243 293.981 142.185 286.312 142.181 C 278.58 142.178 276.626 138.984 281.612 134.508 C 285.881 130.679 295.389 131.001 304.303 135.274 C 313.218 139.546 319.623 149.893 319.731 160.198 C 319.822 168.782 320.788 170.357 328.747 174.911 C 340.488 181.625 349.348 183.021 360.068 179.846 C 370.668 176.708 381.362 165.958 381.359 158.44 C 381.357 143.467 366.974 132.137 350.13 133.836 C 341.14 134.741 339.351 134.29 339.348 131.132 C 339.346 125.223 349.918 121.415 362.726 122.704 C 371.232 123.562 375.905 125.579 381.483 130.807 C 391.687 140.374 394.34 147.767 392.457 161.376 C 390.894 172.686 391.032 173.026 399.051 177.405 C 413.556 185.329 435.529 165.519 437.317 154.223 C 438.197 148.646 444.531 148.189 447.994 153.107 C 450.409 156.537 448.915 162.248 446.168 168.219 C 439.607 167.139 435.22 167.291 433.042 169.689 C 432.317 171.52 434.791 172.153 439.609 176.32 C 433.475 183.33 425.224 191.808 417.089 191.805 C 407.466 191.802 390.567 187.227 385.854 181.093 C 384.98 179.954 379.977 182.025 374.733 185.692 C 369.489 189.357 361.794 192.911 357.635 193.588 C 347.372 195.259 332.601 191.999 323.691 186.096 C 321.237 184.469 318.783 182.842 316.33 181.216 C 313.767 183.776 311.204 186.336 308.64 188.897 C 304.412 193.121 297.914 197.705 294.199 199.077 C 291.947 199.908 289.695 200.739 287.442 201.57 C 288.985 203.986 290.528 206.403 292.07 208.82 C 300.984 222.796 296.883 242.94 282.929 253.693 C 276.884 258.346 272.709 255.395 276.235 260.331 C 271.62 261.367 251.086 262.017 241.575 257.985 C 227.58 252.048 222.735 246.6 219.504 233.153 C 218.228 227.845 215.673 225.115 209.942 222.941 C 182.959 212.719 176.188 181.719 196.703 162.354 C 199.244 159.952 201.786 157.551 204.328 155.15 C 202.829 151.413 201.33 147.676 199.831 143.938 C 194.41 130.277 195.752 118.192 203.738 107.275 C 209.872 98.889 219.162 93.612 233.152 90.569 C 239.774 89.13 241.978 87.421 242.524 83.29 C 245.081 63.747 258.783 49.155 278.879 44.589 C 290.769 41.885 298.185 42.767 311.378 48.443 C 315.98 50.422 318.278 49.237 328.858 39.411"
            fill="#03aa39"
            stroke-width="1"/>
    </g>
    <g id="eis">
        <path
            id="path_5"
            d="M 1011.43 258.73 C 989.519 265.728 972.193 288.541 972.193 310.39 C 972.193 323.326 981.559 344.922 990.211 351.939 C 1004.92 363.865 1039.06 367.243 1057.9 358.634 C 1068.77 353.663 1080.27 342.6 1078.77 338.557 C 1077.6 335.427 1055.36 329.59 1055.36 332.412 C 1055.36 333.614 1051.44 336.742 1046.64 339.362 C 1029.83 348.547 1011.81 343.975 1004.11 328.566 L 999.274 318.902 L 1043.41 318.244 L 1087.55 317.585 L 1087.55 310.2 C 1087.55 306.138 1085.72 297.161 1083.48 290.25 C 1074.71 263.225 1042.07 248.944 1011.43 258.73 Z M 1176.97 259.857 C 1163.84 265.197 1157.36 273.053 1155.43 285.966 C 1152.83 303.296 1165.82 315.058 1192.18 319.26 C 1218.62 323.477 1227.34 329.669 1220.01 339.037 C 1216.76 343.196 1213.27 344.143 1201.18 344.143 C 1188.19 344.143 1185.49 343.278 1179.58 337.251 C 1173.32 330.852 1172.09 330.53 1162.39 332.737 C 1150.68 335.4 1150.01 336.859 1156.45 345.677 C 1165.16 357.581 1179.42 363.375 1200 363.375 C 1210.27 363.375 1222.06 362.233 1226.21 360.836 C 1236.89 357.247 1246.14 347.59 1248.75 337.311 C 1253.44 318.859 1236.14 303.666 1204.8 298.721 C 1187.41 295.976 1181.45 292.866 1181.45 286.529 C 1181.45 274.363 1203.93 270.312 1215.23 280.44 C 1222.5 286.952 1228.13 287.793 1239.2 284.022 L 1246.33 281.594 L 1240.86 273.805 C 1229.12 257.103 1199.59 250.655 1176.97 259.857 Z M 1108.44 275.021 C 1107.81 276.68 1107.5 287.772 1107.75 299.671 C 1108.01 311.57 1108.39 330.229 1108.62 341.138 L 1109.02 360.971 L 1135.96 360.971 L 1135.24 317.099 L 1134.5 273.228 L 1122.05 272.617 C 1113.95 272.218 1109.2 273.057 1108.44 275.021 Z M 1013.78 281.12 C 1008.51 285.166 999.021 297.048 999.021 299.587 C 999.021 300.294 1012.9 300.873 1029.87 300.873 C 1047.64 300.873 1060.73 299.902 1060.73 298.582 C 1060.73 292.786 1053.63 283.368 1046.92 280.259 C 1036.94 275.632 1020.35 276.062 1013.78 281.12 Z"
            fill="#03aa39"
            fill-opacity="0"
            stroke-width="1"
            fill-rule="evenodd"/>
        <path
            id="path_6"
            d="M 1122.58 230.844 C 1119.18 230.844 1115.866 231.81 1113.115 233.604 C 1110.365 235.398 1108.317 237.929 1107.266 240.831 C 1106.215 243.734 1106.215 246.862 1107.266 249.765 C 1108.317 252.667 1110.365 255.198 1113.115 256.992 C 1115.866 258.786 1119.18 259.752 1122.58 259.752 C 1126.849 259.752 1130.947 258.228 1133.966 255.519 C 1136.984 252.809 1138.682 249.13 1138.682 245.298 C 1138.682 241.466 1136.984 237.787 1133.966 235.077 C 1130.947 232.368 1126.849 230.844 1122.58 230.844 Z"
            fill="#099c41"
            fill-opacity="0"
            stroke-width="1"/>
    </g>
    <g id="ick">
        <path
            id="path_7"
            d="M 757.569 287.651 L 757.569 360.971 L 787.08 360.971 L 787.08 345.879 C 787.08 331.008 788.744 327.814 799.638 321.78 C 801.326 320.847 807.51 326.027 814.166 333.951 C 820.543 341.54 827.923 349.845 830.566 352.41 C 833.208 354.973 835.371 357.947 835.371 359.021 C 835.371 360.093 843.827 360.971 854.161 360.971 L 872.951 360.971 L 848.795 334.145 C 835.51 319.393 824.639 306.267 824.639 304.979 C 824.639 303.693 826.753 300.887 829.334 298.748 C 840.886 289.171 867.194 260.478 865.673 259.112 C 864.745 258.283 857.957 257.603 850.59 257.603 L 837.192 257.603 L 812.226 281.041 L 787.263 304.479 L 787.171 259.406 L 787.08 214.332 L 757.569 214.332 L 757.569 287.651 Z M 676.777 256.244 C 675.87 257.074 672.321 258.237 668.889 258.831 C 652.68 261.627 633.189 283.673 629.187 303.734 C 626.576 316.813 634.067 338.564 644.406 347.932 C 660.28 362.312 691.484 367.783 712.587 359.882 C 728.92 353.766 746.1 331.225 734.728 330.83 C 733.274 330.78 728.617 329.915 724.381 328.907 C 718.234 327.448 715.903 328.071 712.842 331.987 C 705.051 341.951 688.549 346.155 677.085 341.095 C 662.896 334.831 658.274 327.148 658.4 310.046 C 658.51 295.428 662.276 287.981 672.643 281.887 C 683.025 275.786 702.83 278.651 710.599 287.38 C 716.05 293.505 716.646 293.62 726.704 290.5 C 732.448 288.719 737.51 286.267 737.958 285.053 C 739.839 279.933 727.737 267.509 715.849 262.35 C 703.339 256.925 680.018 253.278 676.777 256.244 Z M 579.611 259.206 C 578.627 260.086 577.822 283.344 577.822 310.89 L 577.822 360.971 L 604.65 360.971 L 604.65 257.603 L 593.025 257.603 C 586.63 257.603 580.593 258.324 579.611 259.206 Z"
            fill="#03aa39"
            fill-opacity="0"
            stroke-width="1"
            fill-rule="evenodd"/>
        <path
            id="path_8"
            d="M 594 217 C 589.758 217 585.686 218.529 582.686 221.247 C 579.687 223.965 578 227.656 578 231.5 C 578 235.344 579.687 239.035 582.686 241.753 C 585.686 244.471 589.758 246 594 246 C 598.242 246 602.314 244.471 605.314 241.753 C 608.313 239.035 610 235.344 610 231.5 C 610 227.656 608.313 223.965 605.314 221.247 C 602.314 218.529 598.242 217 594 217 Z"
            fill="#099c41"
            fill-opacity="0"
            stroke-width="1"/>
    </g>
    <g
        id="barra"
        transform="translate(-600 0)">
        <path
            id="path_3"
            d="M 1330.35 271.134 C 1328.34 280.711 1327.91 280.161 1348.06 293.661 C 1363.06 303.712 1372.17 310.832 1372.17 312.505 C 1372.16 313.38 1367.03 317.068 1360.76 320.703 C 1337.93 333.941 1331.93 340.561 1331.93 352.523 C 1331.93 358.492 1332.53 363.375 1333.25 363.375 C 1333.98 363.375 1337.3 361.312 1340.63 358.793 C 1343.96 356.273 1354.53 348.72 1364.12 342.009 C 1397.53 318.631 1399 317.342 1399 311.457 C 1399 305.722 1396.27 303.64 1346.16 271.214 L 1332.22 262.192 L 1330.35 271.134 Z"
            fill="#03aa39"
            stroke-width="1"
            fill-rule="evenodd"/>
        <path
            id="path_4"
            d="M 1303.52 241.977 L 1259.25 379 L 1278.03 379 L 1320.96 241.977 L 1303.52 241.977 Z"
            fill="#03aa39"
            stroke-width="1"/>
    </g>
    <path
        id="r"
        d="M 634.015 259.761 C 629.988 262.076 624.432 266.305 621.671 269.156 C 615.804 275.218 613.172 273.819 613.172 264.641 C 613.172 258.297 612.761 258.107 601.77 259.365 C 595.5 260.081 590.279 260.79 590.172 260.939 C 590.065 261.086 590.505 283.654 591.151 311.09 L 592.326 360.971 L 618.537 360.971 L 618.548 330.321 C 618.556 304.171 619.326 298.541 623.79 291.981 C 629.282 283.909 645.98 277.755 654.468 280.673 C 658.111 281.928 658.779 280.069 658.779 268.677 L 660 255.374 L 650.06 255.374 C 645.263 255.47 638.044 257.444 634.015 259.761"
        fill="#03aa39"
        stroke-width="1"
        fill-rule="evenodd"/>
    <path
        id="r_1"
        d="M 525.507 257.997 C 522.556 259.456 516.82 263.413 512.764 266.788 L 505.386 272.925 L 505.386 265.264 C 505.386 258.401 504.571 257.603 497.558 257.603 C 480.678 257.603 481.241 255.766 481.241 310.746 L 481.241 360.971 L 508.069 360.971 L 508.109 330.321 C 508.133 310.77 509.349 297.587 511.463 293.918 C 516.021 286.002 531.758 278.716 540.933 280.271 C 548.252 281.512 548.311 281.418 548.311 268.36 L 548.311 255.199 L 539.592 255.271 C 534.798 255.312 528.458 256.538 525.507 257.997 Z M 396.733 274.714 C 381.978 285.389 367.794 295.14 365.21 296.38 C 355.734 300.938 359.745 309.015 378.259 322.657 C 388.016 329.847 399.687 338.578 404.188 342.057 C 408.693 345.538 415.8 350.196 419.982 352.41 L 427.585 356.434 L 427.585 345.901 C 427.585 335.708 426.973 334.939 408.87 322.325 C 398.576 315.155 390.125 308.075 390.09 306.594 C 390.055 305.113 398.477 297.596 408.806 289.887 C 426.719 276.517 427.585 275.392 427.585 265.533 C 427.585 259.85 426.678 255.223 425.573 255.252 C 424.468 255.28 411.488 264.038 396.733 274.714 Z"
        fill="#03aa39"
        stroke-width="1"
        fill-rule="evenodd"/>
</svg>
