<?xml version="1.0" encoding="utf-8"?>
<svg xmlns="http://www.w3.org/2000/svg" width="99" height="111" viewBox="0 0 99 111" fill="none">
  <path d="M45.3053 1.02147L3.81673 24.9549C1.44985 26.3168 0 28.8426 0 31.5666V79.4334C0 82.1573 1.46224 84.6831 3.81673 86.0451L45.3053 109.979C47.6721 111.34 50.5843 111.34 52.9512 109.979L94.4396 86.0451C96.8065 84.6831 98.2564 82.1573 98.2564 79.4334V31.5666C98.2564 28.8426 96.7941 26.3168 94.4396 24.9549L52.9512 1.02147C50.5843 -0.340491 47.6721 -0.340491 45.3053 1.02147Z" fill="#2B2CA3"/>
  <path d="M84.1977 55.6189C84.1977 53.1712 84.1856 50.8326 83.7005 48.4152C83.4579 47.1853 83.1608 45.0223 82.4149 43.5137C82.1118 42.8958 81.7297 42.3868 81.2446 42.096C77.5882 39.9089 75.1141 47.0641 74.7382 49.5239C72.4097 64.9613 68.1529 71.6016 63.5687 76.4848C63.5687 76.4848 63.5626 76.4909 63.5505 76.5091C63.2655 76.812 62.9805 77.1028 62.6955 77.3936C60.6338 79.3869 55.0066 83.9672 46.8084 84.0823C40.2534 83.9915 33.7288 81.4711 28.7261 76.4727C23.7235 71.4743 21.201 64.9552 21.11 58.4059C21.2252 50.2207 25.8155 44.5922 27.8044 42.5322C28.0955 42.2475 28.3866 41.9627 28.6897 41.678C28.7079 41.6659 28.714 41.6598 28.714 41.6598C33.6075 37.0734 40.2473 32.8203 55.6979 30.4937C58.1598 30.1242 65.3151 27.6462 63.1321 23.9928C62.841 23.5081 62.3317 23.1265 61.7132 22.8235C60.2033 22.0783 58.0324 21.7814 56.8076 21.5391C54.3942 21.0605 52.0535 21.0483 49.6038 21.0483C30.424 21.0483 14.8704 36.5887 14.8704 55.7522C14.8704 64.9977 18.4237 73.6373 24.9302 80.2048H24.9969V80.2715C31.57 86.7724 40.217 90.3227 49.4704 90.3227C68.6441 90.3227 84.2038 74.7823 84.2038 55.6189H84.1977Z" fill="url(#paint0_linear_3224_37347)"/>
  <path d="M62.2045 68.0575C62.259 68.009 62.3197 67.9545 62.3742 67.906C64.6239 65.8642 65.8427 63.6225 66.152 63.0167C68.0742 58.7999 69.1778 54.1711 69.8691 49.6271C69.8752 49.5665 70.9242 43.5745 74.3139 41.9811C74.4412 41.9205 74.5685 41.872 74.6959 41.8296C73.6711 39.6182 72.2461 37.5462 70.4209 35.7225C70.2875 35.5892 70.1541 35.4681 70.0207 35.3348C69.8933 35.2015 69.766 35.0621 69.6326 34.9349C67.8074 33.1113 65.7336 31.6875 63.5203 30.6636C63.4779 30.7908 63.4293 30.918 63.3687 31.0453C61.7679 34.432 55.7708 35.4802 55.7162 35.4862C51.1684 36.1709 46.5356 37.2796 42.3152 39.2002C41.7634 39.4789 39.8715 40.5089 37.9978 42.3689C37.9735 42.3931 37.9553 42.4113 37.9311 42.4294C37.8947 42.4658 37.8583 42.5082 37.8159 42.5506C37.7189 42.6536 37.6158 42.7566 37.5188 42.8657C31.2549 49.5847 31.558 60.2661 38.3131 67.0154C44.8863 73.5829 55.1947 74.0434 61.9377 68.2937C62.0286 68.215 62.1196 68.1423 62.2105 68.0635L62.2045 68.0575Z" fill="url(#paint1_radial_3224_37347)"/>
  <defs>
    <linearGradient id="paint0_linear_3224_37347" x1="70.9604" y1="21.0483" x2="4.3652" y2="107.403" gradientUnits="userSpaceOnUse">
      <stop stop-color="#71D0FF"/>
      <stop offset="1" stop-color="#2D12D3"/>
    </linearGradient>
    <radialGradient id="paint1_radial_3224_37347" cx="0" cy="0" r="1" gradientUnits="userSpaceOnUse" gradientTransform="translate(68.4527 34.5957) rotate(135.024) scale(45.1221 44.9177)">
      <stop stop-color="#71D0FF"/>
      <stop offset="1" stop-color="#524CF6"/>
    </radialGradient>
  </defs>
</svg>