<svg xmlns="http://www.w3.org/2000/svg" width="1000" height="1000" fill="none"><rect width="1000" height="1000" rx="222.222" fill="url(#a)"></rect><mask id="b" style="mask-type:alpha" maskUnits="userSpaceOnUse" x="291" y="216" width="497" height="569"><path fill-rule="evenodd" clip-rule="evenodd" d="M780.404 512.756c9.696-5.598 9.696-19.593 0-25.191l-466.95-269.594c-9.696-5.598-21.816 1.4-21.816 12.596v539.187c0 11.196 12.12 18.194 21.816 12.595l466.95-269.593ZM597.962 500.81c1.707-.985 1.707-3.448 0-4.433L395.656 379.576c-1.706-.985-3.838.246-3.838 2.216v233.603c0 1.97 2.132 3.202 3.838 2.217L597.962 500.81Z" fill="#C4C4C4"></path></mask><g mask="url(#b)"><path fill="#fff" d="M227.355 198.618h167.26v738.125h-167.26z"></path><g filter="url(#c)"><path fill="#fff" d="m935.686 498.597-83.63 144.851-639.235-369.062 83.63-144.851z"></path></g><g filter="url(#d)"><path fill="#fff" d="M746.594 413.149 830.224 558 190.989 927.063l-83.63-144.851z"></path></g></g><defs><filter id="c" x="92.82" y="9.534" width="962.865" height="753.914" filterUnits="userSpaceOnUse" color-interpolation-filters="sRGB"><feGaussianBlur stdDeviation="60"></feGaussianBlur></filter><filter id="d" x="-12.641" y="293.149" width="962.865" height="753.914" filterUnits="userSpaceOnUse" color-interpolation-filters="sRGB"><feGaussianBlur stdDeviation="60"></feGaussianBlur></filter><linearGradient id="a" x1="96.355" y1="1156.62" x2="1188.45" y2="545.361" gradientUnits="userSpaceOnUse"><stop stop-color="#E50093"></stop><stop offset=".797" stop-color="#F73400"></stop><stop offset="1" stop-color="#ED8000"></stop></linearGradient></defs></svg>