<svg width="500" height="500" viewBox="0 0 500 500" fill="none" xmlns="http://www.w3.org/2000/svg">
<g filter="url(#filter0_d_8_12)">
<path d="M271.395 488.816C176.28 501.79 121.292 396.335 107.321 342.836L128.735 343.179C137.374 386.707 184.849 488.163 275.033 467.455C277.855 466.807 282.118 474.957 284.811 474.202L292.942 480.924L299.478 484.324C289.394 488.605 283.403 487.178 271.395 488.816Z" fill="#057E2C"/>
<path d="M408.629 253.751L407.545 321.289C406.424 327.592 406.282 328.242 404.309 336.066C397.034 335.95 387.071 340.733 383.671 347.269C391.755 310.194 392.656 275.516 388.941 248.492L408.629 253.751Z" fill="#057E2C"/>
<path d="M348.714 231.562C352.791 226.227 355.135 224.915 357.439 219.176C348.695 217.532 342.851 217.768 339.951 221.431C338.987 224.229 342.288 225.2 348.714 231.562Z" fill="#03AA39"/>
<path d="M200.824 24.2558C186.729 39.2491 183.676 41.0591 177.551 38.0436C159.971 29.3853 150.095 28.0447 134.254 32.1712C107.474 39.1411 89.2158 61.4048 85.8172 91.2225C85.0993 97.5272 82.1715 100.137 73.3522 102.336C54.7025 106.979 42.3166 115.03 34.1395 127.821C23.4924 144.476 21.9083 161.762 29.137 182.381L35.1307 199.475L24.9645 210.453C-2.38601 239.994 6.6408 287.284 42.613 302.875C50.2533 306.187 53.6586 310.348 55.3579 318.442C59.6655 338.953 66.1235 347.26 84.7798 356.314C97.1519 358.644 123.39 361.992 129.364 356.737C128.478 353.637 133.373 355.502 139.906 349.742C158.506 333.334 163.973 302.598 152.087 281.273L145.912 270.2L154.916 266.384C159.866 264.287 168.527 257.29 174.162 250.841L184.407 239.109L194.215 246.542C206.09 255.545 225.78 260.512 239.461 257.959C245.003 256.922 255.258 251.496 262.247 245.9C269.235 240.301 275.904 237.137 277.066 238.87C283.346 248.223 305.872 255.2 318.699 255.2C329.54 255.2 340.538 242.261 348.714 231.562C342.288 225.2 338.987 224.229 339.951 221.431C342.851 217.768 348.695 217.532 357.439 219.176C361.098 210.06 363.087 201.343 359.865 196.105C355.245 188.598 346.798 189.29 345.622 197.793C343.234 215.022 313.937 245.238 294.596 233.146C283.903 226.46 283.715 225.936 285.797 208.677C288.303 187.909 284.763 176.627 271.155 162.025C263.715 154.046 257.481 150.963 246.139 149.649C229.06 147.677 214.962 153.482 214.962 162.491C214.962 167.304 217.343 167.986 229.324 166.601C251.777 164.004 270.947 181.284 270.947 204.122C270.947 215.586 256.688 231.981 242.553 236.762C228.257 241.601 216.441 239.467 200.785 229.218C190.17 222.265 188.88 219.858 188.754 206.756C188.606 191.029 180.063 175.239 168.175 168.715C156.286 162.191 143.607 161.695 137.913 167.53C131.261 174.354 133.862 179.22 144.167 179.22C154.386 179.22 167.24 191.509 171.672 205.52C181.015 235.033 144.674 263.565 116.662 248.71C106.654 243.401 106.285 243.452 106.285 250.125C106.285 254.076 114.05 264.75 124.398 275.029C141.015 291.532 142.511 294.257 142.511 308.058C142.511 344.812 93.6387 359.248 75.5422 327.837C68.2806 315.234 68.6198 308.464 76.6455 305.853C80.8542 304.482 83.232 300.744 83.232 295.496C83.232 286.537 80.1133 285.075 74.1163 291.225C68.4354 297.05 47.0754 289.587 36.4546 278.068C28.3697 269.299 25.4354 257.236 26.7692 238.241C27.0326 234.486 31.7189 225.852 37.1824 219.054C46.3245 207.677 47.7505 207.032 55.0977 210.939C65.9819 216.731 91.0205 213.212 92.43 205.695C93.2896 201.103 90.7505 200.13 78.4139 200.319C65.455 200.522 62.0201 199.033 53.8726 189.672C42.0037 176.043 39.9323 162.491 47.1807 145.887C58.2955 120.439 83.8906 111.244 103.588 125.626C112.743 132.309 113.816 132.424 118.875 127.237C123.933 122.05 123.624 121.094 114.475 113.615C106.196 106.844 104.605 103.109 104.431 90.017C104.154 69.5194 115.078 55.9984 136.487 50.3354C148.768 47.0868 154.501 47.1544 164.928 50.6832C177.686 55.0023 178.022 55.5257 179.458 73.288C180.959 91.8608 190.994 108.306 200.821 108.306C209.179 108.306 209.281 98.1857 201.012 89.703C193.569 82.0712 192.4 76.3441 194.686 58.7573C195.756 50.538 212.324 34.3155 223.518 30.5301C238.647 25.4073 255.1 28.7673 267.559 39.5159C276.114 46.8977 277.534 50.4299 277.534 64.346C277.534 76.0232 278.993 81.1426 282.744 82.6183C290.434 85.644 290.707 85.4211 290.707 76.1077C290.707 59.3955 305.566 45.5639 325.286 43.9193C340.135 42.6767 346.679 44.5711 356.318 52.8883C364.999 60.3782 366.452 63.9138 366.452 77.5834C366.452 90.8207 364.808 95.1499 356.786 103.032C349.211 110.471 345.24 112.041 338.429 110.288C330.759 108.313 329.86 108.961 330.805 115.776C333.042 131.944 368.912 123.34 376.957 104.706C381.821 93.4311 392.445 90.5573 411.464 95.366C429.336 99.8876 438.396 110.201 440.794 128.76C442.473 141.754 441.528 145.232 433.753 154.738C427.479 162.407 421.943 165.713 415.373 165.713C409.31 165.713 405.971 167.469 405.971 170.66C405.971 178.012 418.185 183.35 429.284 180.852C437.444 179.011 440.639 180.413 448.849 189.425C456.93 198.296 458.663 203.071 458.663 216.494C458.663 230.812 442.588 239.45 433.753 245.9C427.393 250.543 414.523 249.73 409.313 248.71C403.913 247.65 387.078 239.437 357.439 219.176C355.135 224.915 352.791 226.227 348.714 231.562C365.663 248.341 394.259 271.982 433.753 265.251C448.289 258.531 474.681 233.529 474.661 214.713C474.648 201.695 468.625 181.226 456.69 171.599C449.376 165.699 449.142 164.639 453.71 157.953C460.085 148.623 460.092 120.939 453.726 108.313C443.932 88.8959 413.789 72.2817 394.932 75.9085C383.975 78.0156 383.745 77.813 381.637 64.2954C376.335 30.3139 328.737 12.0349 301.904 33.6773C290.473 42.8961 288.978 42.6631 284.239 30.9285C279.2 18.4577 254.514 7 232.683 7C218.183 7 215.864 8.2562 200.824 24.2558Z" fill="#03AA39"/>
<path fill-rule="evenodd" clip-rule="evenodd" d="M420.817 390.616C419.263 398.045 418.93 397.618 434.54 408.09C446.162 415.886 453.217 421.409 453.213 422.707C453.211 423.386 449.237 426.246 444.381 429.066C426.688 439.334 422.043 444.47 422.043 453.748C422.043 458.378 422.505 462.165 423.066 462.165C423.629 462.165 426.202 460.566 428.781 458.611C431.362 456.657 439.553 450.798 446.983 445.592C472.861 427.458 474 426.459 474 421.894C474 417.445 471.882 415.83 433.066 390.678L422.268 383.68L420.817 390.616Z" fill="#03AA39"/>
<path d="M400.034 368L382.889 421.143L365.743 474.286H380.291L413.543 368H400.034Z" fill="#03AA39"/>
<path fill-rule="evenodd" clip-rule="evenodd" d="M326.254 396.911C314.824 405.192 303.836 412.755 301.835 413.717C294.494 417.252 297.601 423.517 311.943 434.099C319.502 439.677 328.542 446.449 332.03 449.147C335.519 451.847 341.025 455.461 344.265 457.178L350.154 460.3V452.129C350.154 444.223 349.681 443.626 335.656 433.842C327.682 428.28 321.136 422.788 321.108 421.64C321.081 420.491 327.605 414.66 335.607 408.68C349.483 398.309 350.154 397.436 350.154 389.789C350.154 385.381 349.452 381.792 348.596 381.814C347.739 381.837 337.685 388.63 326.254 396.911Z" fill="#03AA39"/>
</g>
<defs>
<filter id="filter0_d_8_12" x="-4" y="0" width="508" height="508" filterUnits="userSpaceOnUse" color-interpolation-filters="sRGB">
<feFlood flood-opacity="0" result="BackgroundImageFix"/>
<feColorMatrix in="SourceAlpha" type="matrix" values="0 0 0 0 0 0 0 0 0 0 0 0 0 0 0 0 0 0 127 0" result="hardAlpha"/>
<feOffset dy="4"/>
<feGaussianBlur stdDeviation="2"/>
<feComposite in2="hardAlpha" operator="out"/>
<feColorMatrix type="matrix" values="0 0 0 0 0 0 0 0 0 0 0 0 0 0 0 0 0 0 0.25 0"/>
<feBlend mode="normal" in2="BackgroundImageFix" result="effect1_dropShadow_8_12"/>
<feBlend mode="normal" in="SourceGraphic" in2="effect1_dropShadow_8_12" result="shape"/>
</filter>
</defs>
</svg>
